<?xml version="1.0" encoding="UTF-8"?>
<svg id="Layer_1" data-name="Layer 1" xmlns="http://www.w3.org/2000/svg" viewBox="0 0 195.69 213.77">
  <defs>
    <style>
      .cls-1 {
        fill: #fff;
        stroke-width: 0px;
      }
    </style>
  </defs>
  <path class="cls-1" d="M115.29,114.71c.33-6.81-.88-15.98-6.05-21-5.73-5.57-13.33-1.3-16.83,4.76-8.95,15.5,17.34,26.17,27.61,30.83,1.08.49,2.36.13,2.6-1.15,1.93-10.5,5.47-20.59,6.76-31.25.71-5.89,1.11-19.19-7.47-20.03-7.34-.72-11.1,10.62-12.65,15.9-2.28,7.77-3.74,18.3,1.31,25.34.95,1.32,3.82,1.17,3.38-.92-1.99-9.65-11.52-22.27-22.44-21.37-10.86.9-11.37,15.52-2.85,20.13,4.28,2.31,9.72,2.88,14.48,3.3,4.02.36,9.73.62,13.08-2.11,3.5-2.86,2.06-7.26-.46-10.09-3.07-3.45-8.76-4.99-13.19-4.31-.64.1-1.14.77-1.22,1.38-.87,6.13,2.51,12.5,9.17,13.17,7,.7,9.9-5.3,8.7-11.46-.33-1.68-2.62-2.66-3.59-.91-2.6,4.69-3.68,10.31.79,14.16.95.82,2.25.69,2.9-.4,5.95-10.02,8.61-20.94,7.7-32.57-.12-1.49-2.24-2.53-3.31-1.3-5.38,6.19-7.28,14.46-4.53,22.25.47,1.33,2.04,1.64,3.05.79,4.88-4.09,4.56-10.53,2.71-16.1-.38-1.14-1.7-1.55-2.71-1.08-7.11,3.26-9.06,12.95-3.52,18.52.65.65,1.88.71,2.5,0,5.19-5.95,3.3-16.29-.78-22.34-.68-1-2.57-1.35-3.11,0-2.5,6.29-2.93,13.57,3.81,17.15.72.38,1.51.26,2.09-.29,3.57-3.37,4.55-7.7,3.75-12.44-.22-1.29-2.12-2.54-3.14-1.23-3.61,4.59-2.73,10.84-2.19,16.27.25,2.57,1.38,6.8-1.84,7.8-2.4.75-5.2-2.06-6.74-3.48-4.48-4.14-7.87-9.4-11.7-14.11-2.36-2.9-5.29-6.25-9.5-5.4-9.8,1.97-11.47,18.88-3.42,23.88,6.71,4.16,22.22,2.26,17.45-8.68-.38-.87-1.24-1.39-2.19-1.19-1.96.43-2.11,1.19-3.7,2.44-1.49,1.17.26,3.63,1.81,2.62.81-.53,2.27-1.72,3.13-1.83-.73-.4-1.46-.79-2.19-1.19,1.97,5.61-3.96,7.13-8.39,6.51-6.41-.89-8.02-6.36-6.92-12.04,1.01-5.2,5.54-9.2,9.77-4.75,3.14,3.29,5.7,7.18,8.58,10.7,3.34,4.08,9.98,12.5,16.29,9.55,8.23-3.85-.54-18.19,4.52-24.62-1.05-.41-2.09-.82-3.14-1.23.67,3.99-.05,7.16-3.03,9.96l2.09-.29c-4.85-2.59-3.52-8.14-1.87-12.35-1.04,0-2.08,0-3.11,0,3.23,4.76,5.04,13.38.89,18.1.83,0,1.67,0,2.5,0-4.07-4.13-1.19-10.83,3.43-12.98-.9-.36-1.81-.72-2.71-1.08,1.44,4.23,2.03,9.27-1.84,12.45.9.36,1.8.72,2.71,1.08-2.28-6.64-.39-13.56,4.15-18.76-1.1-.43-2.21-.87-3.31-1.3.85,11.03-1.84,21.27-7.47,30.74.97-.13,1.93-.26,2.9-.4-3.18-2.74-1.28-6.8.33-9.72-1.2-.3-2.39-.61-3.59-.91,2.17,10.96-11.79,9.18-10.27-.74-.41.46-.81.92-1.22,1.38,3.31-.46,6.93,1.16,9.36,3.29,4.04,3.54-1.65,5.59-4.26,5.87-5.7.61-11.86-.46-17.27-2.25-8.21-2.72-6.21-14.99,3.06-13.61,7.16,1.07,14,10.81,15.33,17.43,1.13-.31,2.26-.61,3.38-.92-4.14-5.85-2.52-14.63-.87-21.08.69-2.71,4.88-16.2,9.6-14.33,6.32,2.5,2.75,17.74,1.93,22.35-1.43,8.07-3.98,15.91-5.38,23.98.87-.38,1.73-.76,2.6-1.15-5.08-2.24-10.1-4.56-14.9-7.36-4.94-2.88-11.52-7.17-12.33-13.36-.85-6.47,8.73-14.59,13.61-8.19,3.56,4.67,4.84,11.59,5.34,17.3.09,1.07,2.04,1.53,2.1.26h0Z"/>
  <path class="cls-1" d="M106.15,105.75c1.73-8.33-8.13-12.39-14.69-13.72-10.67-2.17-20.18,3.88-26.44,12.09-8.81,11.56-10.47,29.07,5.34,34.76,13.71,4.93,30.66,2.48,44.14-2.1,6.32-2.15,13.78-5.61,16.95-11.8,1.96-3.83,2.42-8.54,3.1-12.72.83-5.11,1.63-10.21,1.82-15.39.33-8.72-1.96-18.24-11.13-21.31-7.17-2.41-13.88.41-18.78,5.83-9.08,10.04-12.57,33.88,3.17,39.66,1.18.43,1.5-1.14.83-1.81-6.4-6.52-8.41-14.18-6.37-23.08,1.66-7.26,7.09-16.03,15.16-16.99,12.95-1.54,12.94,14.19,12.07,22.89-.83,8.32-.98,20.89-8.38,26.34-11.93,8.78-31.39,11.23-45.63,8.97-6.55-1.04-13.91-3.95-15.52-11.09-2.45-10.85,6.65-23.05,15.25-28.38,7.41-4.59,26.69-4.28,27.49,7.65.06.87,1.43,1.13,1.62.2h0Z"/>
  <path class="cls-1" d="M102.07,116.17c-9.69-1.86-21.94-1.95-30.84,2.78-.63.33-.56,1.11-.26,1.63,3.99,6.93,12.85,10.29,20.19,12.13,6.22,1.55,18.44,2.71,22.14-4.23.64-1.2-1.05-2.59-2.14-1.9-2.74,1.72-4.73,3.28-8.02,3.97-3.78.79-7.87.29-11.61-.43-6.69-1.29-15-4.54-18.61-10.72-.09.54-.17,1.09-.26,1.63,9.51-5.16,19.5-2.02,29.52-3.86.55-.1.33-.91-.12-.99h0Z"/>
  <path class="cls-1" d="M106.78,101.47c-13.53-5.97-43.71,13-30.51,28.05,5.98,6.81,16.27,9.86,24.86,11.41,6.09,1.1,18.23,2.89,22.14-3.58.67-1.11-1.04-2.5-2.06-1.83-10.74,7.19-29.57,1.74-39.54-4.48-18.37-11.46,10.54-34,24.44-28.1,1.06.45,1.68-1.02.66-1.47h0Z"/>
  <path class="cls-1" d="M104.19,100.8c-8.24-.06-17.35.56-24.45,5.17-7.33,4.76-6.4,13.6-3.03,20.57,3.84,7.93,13.08,10.65,21.2,11.13,8.48.5,20.12-1.33,25.95-8.12.7-.82-.43-1.85-1.28-1.45-12.49,5.88-33.46,12.21-43.43-1.48-5.41-7.43-4.32-16.45,3.75-20.92,6.3-3.49,14.32-4.12,21.36-4.32.4-.01.29-.58-.07-.59h0Z"/>
  <path class="cls-1" d="M110.45,96.47c-3.41-9.41,6.68-18.64,14.18-22.35,10.21-5.06,20.04,2.76,20.83,13.38.69,9.24-5.15,18.64-10.39,25.74-5.03,6.81-11.24,13.36-18.41,17.94.82,1.19,1.64,2.38,2.46,3.56,2.66-1.79,4.42-3.72,6.03-6.48.52-.9-.74-1.61-1.46-1.3-2.59,1.11-4.68,2.71-7.03,4.22-2.21,1.41.39,4.94,2.46,3.56,9.15-6.06,16.61-14.94,22.38-24.17,5.55-8.87,10.08-20.67,5.12-30.78-4.9-10-15.11-12.23-24.42-7.3-7.9,4.18-17.24,14.82-13.06,24.32.35.79,1.65.56,1.32-.35h0Z"/>
  <path class="cls-1" d="M114.41,96.74c4.09-6.33,10.57-11.32,17.98-12.97,10.06-2.25,14.16,6.82,15.31,15.13,1.2,8.62.23,18.33-3.87,26.08-4.43,8.4-15.05,12.06-22.01,17.95-1.93,1.63,1.37,4.6,3.3,2.93,1.9-1.64,3.19-3.22,4.36-5.41.33-.62-.45-1.47-1.1-1.23-2.31.84-4.1,2.03-6.15,3.38.97,1.09,1.93,2.18,2.9,3.27,8.58-7.26,19.27-11.41,23.58-22.57,3.68-9.55,3.36-21.28.29-30.92-6.12-19.17-27.89-7.97-34.92,4.19-.11.2.22.37.34.18h0Z"/>
  <path class="cls-1" d="M108.01,91.32c3.56-6.83,11.72-10.16,18.88-11.61,9.46-1.91,18.13,1.17,20.44,11.2,3.67,15.97-8.94,34.69-19.87,45.1,1.23.48,2.46.97,3.7,1.45-.2-2.12.08-2.43-.49-4.34-.2-.66-1.09-.88-1.56-.41-1.32,1.31-1.67,2.43-2.07,4.23-.46,2.07,2.29,3.2,3.69,1.97,13.32-11.73,26.41-36.75,17.02-54.04-7.91-14.56-34.62-6.45-40.62,5.97-.25.52.61,1.01.89.47h0Z"/>
  <path class="cls-1" d="M134.41,123.47c.54-.58,1.01-1.7,1.94-1.71-.19-.26-.37-.52-.56-.79-1.16,3.28-2.72,6.06-4.81,8.84-1.46,1.94-4.2,4.08-4.27,6.65-.01.58.52,1.3,1.19,1.05,2.68-.99,4.29-4.74,5.75-7.06,1.73-2.76,3.29-5.91,3.16-9.23-.01-.35-.54-.71-.85-.46-.95.77-1.1,1.47-1.85,2.43-.14.18.14.43.29.26h0Z"/>
  <path class="cls-1" d="M98.43,123.28c-1.78,9.05,7.17,12.95,14.56,14.5,4.93,1.04,10.07,1.22,15.09.98,3.3-.15,9.11.04,10.81-3.24.38-.73,0-1.59-.54-2.1-.06-.06-.12-.12-.18-.17-.55-.53-1.41-.64-2.07-.27-.26.19-.55.31-.86.37-1.12.03-1.19,1.24-.57,1.91.79.84,1.51.83,2.64.87-.6-.42-1.19-.84-1.79-1.26-.38-1.26-1.11-.46-2.52-.1-1.73.44-3.52.72-5.29.94-3.89.49-7.84.54-11.75.29-7.47-.48-18.13-3.06-17.05-12.59.03-.28-.42-.43-.48-.12h0Z"/>
</svg>