<?xml version="1.0" encoding="UTF-8"?>
<svg id="Layer_1" data-name="Layer 1" xmlns="http://www.w3.org/2000/svg" viewBox="0 0 195.69 213.77">
  <defs>
    <style>
      .cls-1 {
        fill: #fff;
        stroke-width: 0px;
      }
    </style>
  </defs>
  <path class="cls-1" d="M99.47,114.64c9.5-4.98,1.35-19.11-5.3-22.74-9.97-5.45-24.72-3.88-31.79,5.4-8.67,11.39-.59,27.91,10.1,34.59,10.1,6.3,24.9,5.9,32.35,16.18,1.03,1.42,3.6.72,3.05-1.21-2.08-7.39-11.99-10.24-18.38-12.49-10.34-3.64-19.27-6.44-24.58-16.93-3.16-6.25-2.68-14.05,2.07-19.34,3.56-3.96,9.56-5.08,14.62-5.14,5.07-.06,10.66,1.51,14.44,4.99,3.53,3.25,6.36,12,2.91,16.07-.29.34.06.86.48.64h0Z"/>
  <path class="cls-1" d="M101.31,99.4c-1.88-7.01,9.56-12.32,14.55-14.11,8.13-2.91,18.49-2.58,21.42,7.04,4.12,13.57-10.46,27.39-19.78,35.34-6.91,5.89-20.55,14.88-18.95,25.54.23,1.54,2.42,1.33,2.83.04,4.62-14.55,19.78-22.35,29.33-33.52,7.85-9.18,16.36-25.09,5.4-35.43-6.77-6.39-18.01-3.55-25.37.01-4.6,2.23-14.96,9.2-10.64,15.56.4.59,1.41.27,1.21-.48h0Z"/>
</svg>