<?xml version="1.0" encoding="UTF-8"?>
<svg id="Layer_1" data-name="Layer 1" xmlns="http://www.w3.org/2000/svg" viewBox="0 0 195.69 213.77">
  <defs>
    <style>
      .cls-1 {
        fill: #fff;
        stroke-width: 0px;
      }
    </style>
  </defs>
  <path class="cls-1" d="M83.01,84.11c.15-2.43-3.73-4.43-5.44-5.54-3.73-2.41-7.98-4.24-12.28-5.32-8.49-2.13-14.46,2.04-15.05,10.77-.55,8.23,8.99,12.06,15.27,14.29,8.84,3.13,19.31,4.33,26.62,10.63,1,.87,2.73-.23,1.95-1.48-3.28-5.26-11.36-7.01-16.84-8.7-7.22-2.21-16.18-3.84-21.72-9.37-2.91-2.9-2.48-7.66-.5-10.96,2.04-3.39,7.11-2.6,10.25-1.83,3.8.93,7.3,2.78,10.72,4.64,1.8.98,4.61,3.59,6.8,3.12.12-.03.2-.14.2-.26h0Z"/>
  <path class="cls-1" d="M78.68,80.98c3.55-5.12,8.54-8.67,14.14-11.32,5.9-2.78,17.33-3.34,12.96,6.31-2.73,6.03-7.78,11.07-11.71,16.33-2.33,3.11-6.94,8.51-5.12,12.71.21.49,1.05.5,1.27.01,1.38-3.05,2.37-6,4.23-8.84,2.42-3.68,5.27-7.06,7.91-10.58,3.2-4.26,8.43-10.74,5.93-16.42-4.89-11.1-29.08,3.38-30.68,11.35-.13.65.68.99,1.06.45h0Z"/>
  <path class="cls-1" d="M137.39,106.68c4.79-10.98-24.19-15.59-24.91-3.25-.37,6.28,7.38,10.43,11.92,13.14,6.15,3.67,13.05,6.36,18.47,11.1,1.38,1.21,3.14-.26,2.47-1.87-1.39-3.31-6.79-5.35-9.69-6.91-5.22-2.81-10.73-5.39-15.41-9.07-3.83-3.02-6.45-7.95.07-9.49,4.86-1.15,14.95.05,16,6.2.08.49.89.64,1.1.16h0Z"/>
  <path class="cls-1" d="M131.92,100.25c-.65-2.43-.35-10.24,4.3-8.23,1.77.77,2.36,4.05,2.75,5.67.79,3.25.43,6.7.24,10-.29,5.03-2.13,14.19,1.72,18.34,1.18,1.28,2.82-.32,2.25-1.7-3.96-9.66,1.44-20.81-2.68-30.45-4.2-9.81-15.45-.32-9.44,6.85.34.4,1-.02.87-.49h0Z"/>
  <path class="cls-1" d="M86.97,132.66c.77-3.75,1.04-8.18-2.55-10.54-2.38-1.56-5.74-1.12-6.69,1.74-.88,2.64.59,6.01,1.99,8.19.93,1.45,4.48,5.29,6.34,2.97.45-.56.38-1.22-.21-1.65-.52-.38-1.14-.3-1.7-.56-.78-.36-1.42-1.07-1.93-1.74-1.14-1.53-1.99-3.48-2.11-5.4-.15-2.36,1.9-2.19,3.57-1.22,2.45,1.41,2.35,5.79,2.7,8.2.04.31.54.3.6,0h0Z"/>
  <path class="cls-1" d="M86.24,124.5c1.52-1.19,7.42-4.43,7.76-.36.14,1.67-2.05,3.66-3.08,4.72-2.35,2.43-6.76,4.98-7.69,8.41-.4,1.48,1.4,2.45,2.49,1.46,2.07-1.88,3.96-4.17,5.89-6.2,1.81-1.9,4.2-4.27,4.55-7,.26-2-.75-4.41-3-4.71-2.74-.36-5.38,1.57-7.15,3.46-.14.15.06.34.22.22h0Z"/>
</svg>