<?xml version="1.0" encoding="UTF-8"?>
<svg id="Layer_1" data-name="Layer 1" xmlns="http://www.w3.org/2000/svg" viewBox="0 0 195.69 213.77">
  <defs>
    <style>
      .cls-1 {
        fill: #fff;
        stroke-width: 0px;
      }
    </style>
  </defs>
  <path class="cls-1" d="M102.18,117.87c.68-2.05-.65-3.89-2.56-4.64-2.19-.87-4.55-.5-6.36.98-.5.41-.34,1.11,0,1.54,2.46,3.2,7.25,2.78,9.77,6.02.86,1.11,2.44-.45,1.56-1.55-1.2-1.49-2.75-2.36-4.5-3.08-1.73-.71-3.93-1.11-5.11-2.7-.06.44-.12.87-.18,1.31,1.12-.88,2.56-1,3.89-.61,1.32.38,1.94,1.71,2.44,2.87.21.5.92.3,1.06-.13h0Z"/>
  <path class="cls-1" d="M101.3,112.48c1.17-1.45,2.3-2.92,3.61-4.25.76-.77,2.31-2.3,3.49-1.33,1.3,1.08.86,3.06.25,4.33-1.41,2.92-6.91,6.88-5.43,10.59.32.81,1.69,1.4,2.16.31.53-1.23.77-2.51,1.4-3.71.82-1.55,1.91-2.96,2.81-4.46,1.39-2.31,1.84-4.61.62-7.06-2.68-5.39-7.99,3.18-9.39,5.21-.2.29.26.65.48.37h0Z"/>
</svg>