<?xml version="1.0" encoding="UTF-8"?>
<svg id="Layer_1" data-name="Layer 1" xmlns="http://www.w3.org/2000/svg" viewBox="0 0 195.69 213.77">
  <defs>
    <style>
      .cls-1 {
        fill: #fff;
        stroke-width: 0px;
      }
    </style>
  </defs>
  <path class="cls-1" d="M101.02,96.72c-.74-1.15-1.54-2.19-2.39-3.02-3.77-3.73-9.78-1.66-13,1.59-4.84,4.88-.69,11.46,2.79,15.68,2.15,2.6,4.61,4.93,6.9,7.41.94,1.02,1.84,2.06,2.69,3.16,1.23,1.61,2.18,1.85,3.61,3.46,0,0,.21.26.26.2,2.87-3.46-2.82-7.22-5.1-9.55-3.7-3.77-7.87-8.03-9.24-13.27-.62-2.36.01-4.61,1.39-6.56,2.57-3.65,5.15-2.71,7.49.28.91,1.16,1.6,2.48,2.17,3.86-.29.47-.57.94-.82,1.4-.2.38,1.7,1.94,1.88,1.72,0,0,0,0,0-.01.16.55.32,1.1.47,1.64.52,1.93.38,4.3,1.06,6.11.16.43,2.69,1.59,2.86,1.1,1.26-3.61.35-8.38-1.52-12.42,3.13-3.74,7.57-8.08,10.6-4.74,3.78,4.16,3.96,11.05,2.21,16.07-2.96,8.53-12.35,13.13-15.35,21.43-.17.47,2.88,1.51,3.19.91,5.13-9.86,17.85-17.08,16.19-30.07-.63-4.91-3.4-10.25-8.79-10.81-3.73-.39-7.04,1.67-9.56,4.44Z"/>
</svg>