<?xml version="1.0" encoding="UTF-8"?>
<svg id="Layer_1" data-name="Layer 1" xmlns="http://www.w3.org/2000/svg" viewBox="0 0 195.69 213.77">
  <defs>
    <style>
      .cls-1 {
        fill: #fff;
        stroke-width: 0px;
      }
    </style>
  </defs>
  <path class="cls-1" d="M104.68,108.97c7.1-2.24,6.37-9.45.97-13.21-6.82-4.76-15.97-6.49-23.22-1.76-5.89,3.84-2.9,10.12.57,14.44,2.72,3.39,6.07,6.29,9.22,9.27,2.71,2.55,5.13,5.72,8.16,7.89.42.3,1.16-.09,1.1-.62-.47-4.17-4.96-7.48-7.78-10.18-3.97-3.8-9.39-7.99-11.21-13.37-2.29-6.74,9.69-7.24,13.52-6.4,3.29.72,6.53,2.23,9.06,4.46,3.45,3.04,1.57,5.72-.89,8.61-.31.36-.04,1.04.49.88h0Z"/>
  <path class="cls-1" d="M104.68,102.65c3.9-1.48,7.68-3.07,11.76-4.02-.24.06,6.03-1.32,6.29-.17.36,1.57.21,3.23-.16,4.77-1.07,4.49-5.89,7.17-9.71,9.01-4.37,2.11-9.1,3.32-13.66,4.93-2.67.94-7.94,2.07-9.32,4.83-.27.54.05,1.25.7,1.25,3.16.01,7.22-2.48,10.26-3.45,4.54-1.44,9.08-3.08,13.37-5.15,7.26-3.49,12.2-9.3,10.04-17.62-.1-.39-.46-.68-.87-.69-6.79-.08-13.15,2.21-19.11,5.32-.53.28-.18,1.21.4.99h0Z"/>
</svg>