<?xml version="1.0" encoding="UTF-8"?>
<svg id="Layer_1" data-name="Layer 1" xmlns="http://www.w3.org/2000/svg" viewBox="0 0 195.69 213.77">
  <defs>
    <style>
      .cls-1 {
        fill: #fff;
        stroke-width: 0px;
      }
    </style>
  </defs>
  <path class="cls-1" d="M110.92,123.16c0-.35,0-.69.01-1.04,2.57-.07,7.51-1.03,3.11-1.9-1.02-.2-2.05-.4-3.07-.6.1-7.47-.1-14.59-5.33-20.69-.94-1.09-4.52-3.4-6.06-2.85-2.01.72-3.34,1.69-4.32,3.59-1.01,1.94-.82,3.92-.28,5.91-5.65-.75-11.57.83-12.5,7.23-.06.44.77.75,1.02.87,6.03,2.93,12.62,5.34,19.28,6.96-.05,1.24-.09,2.48-.1,3.7,0,1.42,8.23.83,8.25-1.19ZM101.93,102.39c.55,2.01.86,4.08,1,6.17-.85-.66-1.83-1.2-2.9-1.65.16-.76.38-1.5.63-2.25.29-.86.73-1.61,1.27-2.28ZM90.26,113.74c.22-1.24.57-2.33,1.24-3.43.33-.55,2.95-2.94,3.51-2.78.22.06.43.15.63.25.73,2.19,1.51,4.36,1.17,6.47.07-.47,1.2-2.09,1.65-3.32.6,1.23.97,2.58,1.14,3.69.1.64,1.72,1.55,3.33,2.21-.02.36-.03.73-.05,1.09-4.31-1.02-8.54-2.29-12.62-4.19Z"/>
</svg>