<?xml version="1.0" encoding="UTF-8"?>
<svg id="Layer_1" data-name="Layer 1" xmlns="http://www.w3.org/2000/svg" viewBox="0 0 195.69 213.77">
  <defs>
    <style>
      .cls-1 {
        fill: #fff;
        stroke-width: 0px;
      }
    </style>
  </defs>
  <path class="cls-1" d="M111.13,125.03c1.13-6.36,3.35-12.49,4.42-18.89.97-5.79,2.06-15.11-4.36-18.21-6.22-2.99-16.11-2.15-18.7,5.02-1.14,3.15-.37,5.69,1.24,8.43,1.37,2.35,2.51,4.94,3.76,7.46-.46-.19-.92-.37-1.4-.55-3.32-1.2-6.92-2.04-10.45-2.24-4.85-.27-12.26.14-12.94,6.34-.55,5.04,6.72,8.41,10.32,10.07,3.04,1.4,6.28,2.46,9.44,3.54,2.56.88,6.17,1.07,8.42,2.53.81.53,2.2.09,3.49-.56,2.22,0,6.47-1.26,6.77-2.94ZM103.93,88.94c.37-.1.46.04,0,0h0ZM100.44,93.51c.35-1.22.96-2.29,1.76-3.27.28-.31.59-.6.92-.86.24-.21.46-.33.64-.4,2.18.77,3.18,3.05,3.72,5.16,1.43,5.54.12,11.95-.86,17.46-.22,1.23-.46,2.45-.71,3.67-.83-1.21-2.2-2.23-3.03-3.19,1.59,1.04,1.81,1.16.67.34-.76-.56-1.55-1.08-2.34-1.6-.13-.09-.27-.16-.4-.25-.07-.66-.25-1.23-.65-1.53-.41-.31-.77-.64-1.12-.97-.51-4.75.12-10.18,1.39-14.57ZM93.39,122.14c-2.24-.7-4.43-1.58-6.54-2.62-3.29-1.62-7.22-4.47-5.73-8.59,2.01-5.57,10.23-1.19,13.73-.11,1.57.48,3.14,1.06,4.65,1.76.44.71.89,1.41,1.39,2.06-.15-.2-.14-.75-.1-1.44,1.76.91,3.41,2,4.85,3.34-.56,2.59-1.17,5.17-1.82,7.74-3.18-.03-7.94-1.36-10.44-2.14Z"/>
</svg>