<?xml version="1.0" encoding="UTF-8"?>
<svg id="Layer_1" data-name="Layer 1" xmlns="http://www.w3.org/2000/svg" viewBox="0 0 195.69 213.77">
  <defs>
    <style>
      .cls-1 {
        fill: #fff;
        stroke-width: 0px;
      }
    </style>
  </defs>
  <path class="cls-1" d="M107.15,115.79c7.55.4,15.1.53,22.66.01.54-.04,4.3-1.26,3.61-2.24-3.82-5.46-8.94-9.86-14.21-14.14,4.33-6.15,8.21-12.56,10.65-19.78.32-.95-3.49.36-3.92.93-3.9,5.11-8.83,9.25-14.18,12.78-4.94-4.18-9.51-8.64-12.69-14.18-.74-2.21-1.68-4.39-2.88-6.54-.44-.79-4.05-.34-3.87.25.76,2.49,1.8,4.79,3.04,6.95,2.19,6.81,2.47,13.96,2.7,21.11-9.6,4.59-19.74,7.98-30.14,10.2-.51.11-3.85,2.22-2.35,2.23,11.17.08,22.31,1.14,33.46,1.93.26,1.8.6,3.58,1.05,5.35-2.53,3.87-4.78,7.89-6.5,12.23-.14.35,3.32,1.09,3.68.19,1.17-2.89,2.57-5.64,4.1-8.32.28.75.57,1.5.9,2.24.25.55,1.89,1.53,1.9,1.57-.59-2.07-1.02-4.16-1.34-6.27,1.37-2.21,2.82-4.36,4.33-6.48ZM127.8,113.38c-6.15-.04-12.29-.31-18.43-.65,2.57-3.49,5.22-6.93,7.78-10.42,3.9,3.44,7.61,7.02,10.65,11.07ZM101.87,100.7c2.8-1.35,5.59-2.81,8.33-4.41,1.6,1.39,3.21,2.76,4.82,4.15-2.96,4.08-6.12,8.05-9.16,12.08-1.29-.08-2.57-.15-3.86-.23-.12-3.86-.08-7.73-.12-11.58ZM123.36,86.78c-1.8,3.8-3.98,7.38-6.36,10.84-1.29-1.04-2.58-2.08-3.85-3.13,3.62-2.29,7.08-4.84,10.21-7.72ZM108.89,95.15c-2.3,1.39-4.67,2.69-7.05,3.91-.07-3.89-.26-7.75-.82-11.55,2.41,2.69,5.09,5.2,7.87,7.64ZM75,111.02c7.9-2.28,15.65-5.18,23.12-8.57.1,3.22.23,6.44.54,9.63-7.88-.49-15.76-.94-23.65-1.06ZM102.14,115.49c.48.03.96.06,1.44.09-.44.61-.88,1.21-1.31,1.82-.05-.64-.1-1.27-.13-1.91Z"/>
  <path class="cls-1" d="M146,123.47c1.14-.26,3.65-3.41,2.65-4.6-5.52-6.59-14.74-11.63-17.32-20.24-1.38-4.62.92-10.16,2.55-14.41,1.66-4.35,3.71-8.54,5-13.02.14-.48.13-1.02-.43-1.14-5.17-1.03-9.58-.02-14.51,1.47-5.27,1.59-9.92,1.09-14.56-1.96-4.37-2.87-8.03-6.68-12.69-9.12-4.25-2.23-9.07-2.34-13.73-1.77-.34.04-2.6.37-2.43,1.06,2.52,10.29,2.59,21.77,5.71,32.04-13.14,1.5-26.21,4.66-37.92,10.81-1.62.85-2.01,4.63-.77,5.88,9.58,9.73,19.51,16.59,33.36,17.47.16,10.23-1.47,20.41-1.05,30.66.01.35.26,1.39.88,1.09,11.22-5.53,17.65-16.56,27.27-24.1,10.55-8.27,25.53-7.26,38.01-10.13ZM82.74,151.73c-.24-10.01,1.31-19.97.9-29.99-.02-.44-.18-1.65-.84-1.68-6.69-.39-13.02-1.77-18.91-5.04-4.11-2.28-7.73-5.36-11.13-8.62,11.21-5.04,23.39-7.71,35.62-8.93.17.37.33.74.51,1.1.28.56,2.73,1.44,2.66,1.16-.2-.83-.4-1.66-.58-2.5,1.31-.11,2.62-.21,3.92-.29,2.06-.12,2.64-6.07,1.06-5.98-2.04.12-4.09.27-6.13.45-1.86-10.47-2.77-21.1-5.07-31.48,10.24.38,16.74,9.52,25.21,14.56,3.83,2.28,7.77,2.3,11.93,1.21,4.62-1.21,8.63-2.04,13.33-1.19-2.63,8.61-7.95,16.53-7.54,25.85.35,8.09,8.42,13.78,14.4,19.31-10.74,1.56-22,1.78-31.42,7.54-10.69,6.54-16.72,18.65-27.91,24.53Z"/>
</svg>