<?xml version="1.0" encoding="UTF-8"?>
<svg id="Layer_1" data-name="Layer 1" xmlns="http://www.w3.org/2000/svg" viewBox="0 0 195.69 213.77">
  <defs>
    <style>
      .cls-1 {
        fill: #fff;
        stroke-width: 0px;
      }
    </style>
  </defs>
  <path class="cls-1" d="M86.79,98.74c-1.3.31-3.47,4.45-1.89,5.29,2.67,1.43,5.36,2.85,7.97,4.36-.21.46-.42.93-.63,1.4-1.21,1.37-2.34,2.83-3.33,4.43-.48.78-1.46,5.7.67,4.38,3.23-2,3.7-1.78,5.91-2.92.1-.05-.74-1.43-1.24-1.73.48-.84.94-1.7,1.38-2.59.28-.25.56-.51.85-.75,2.89,1.85,5.66,3.88,8.2,6.26,1.07,1.01,3.14-3.48,2.89-4.35-.75-2.65-1.3-5.39-1.95-8.09,1.05-.6,2.1-1.18,3.15-1.76,2.22-.64,4.32-1.7,6.26-3.41.02-.01.04-.02.06-.03,0,0,0-.01,0-.02.13-.11.25-.22.38-.34.8-.76,2.23-6.01.06-4.81-2.28,1.26-4.61,2.49-6.92,3.76-1.55.36-3.17.52-4.83.58-.73-1.84-1.65-3.6-2.88-5.23-.75-.99-3.89,1.24-4.04,2.16-.16.98-.36,1.95-.58,2.91-3.33-.13-6.59-.18-9.49.51ZM99.25,103.57c-.24.17-.47.35-.7.52.06-.18.11-.36.16-.53.18,0,.36,0,.54.01ZM101.89,107.53c-.21-.15-.42-.3-.64-.45.14-.09.29-.19.43-.28.07.24.14.49.2.73Z"/>
</svg>