<?xml version="1.0" encoding="UTF-8"?>
<svg id="Layer_1" data-name="Layer 1" xmlns="http://www.w3.org/2000/svg" viewBox="0 0 195.69 213.77">
  <defs>
    <style>
      .cls-1 {
        fill: #fff;
        stroke-width: 0px;
      }
    </style>
  </defs>
  <path class="cls-1" d="M87.32,113.68c2.89-.27,5.7-.07,8.46.39-1.22,1.37-2.38,2.8-3.45,4.3-.7.98-1.28,2.02-1.86,3.07-1.11,2.02-.83,1.75.71,3.74.02.02.34.44.41.36,2.12-2.29,3.18-5.2,5-7.75.52-.73,1.09-1.44,1.66-2.13.22.21.39.27.48.07.03-.06.21-.4.17-.45.33-.11.58-.25.74-.42,2.53.61,5.05,1.36,7.58,2.11.49.14,4.16-.07,3.56-.92-1.82-2.58-3.79-5.05-5.78-7.49,3.55-3.49,7.18-6.9,10.2-10.89.34-.45-3.18-.56-3.84.16-2.66,2.9-5.7,5.37-8.98,7.51-2.6-3.2-5.16-6.44-7.4-9.95-.42-.66-4.07,0-3.86.64,1.44,4.4,2.37,9,3.89,13.38-2.72,1.27-5.52,2.36-8.35,3.3-1.69.56-.38,1.08.68.98ZM100.94,108.79c-.62.59-1.23,1.19-1.84,1.79-.02-.12-.05-.25-.07-.37-.06-.29-.13-.57-.19-.86.61-.29,1.22-.59,1.82-.9.09.11.19.23.28.34ZM102.63,110.93c.88,1.12,1.75,2.26,2.58,3.41-1.58-.44-3.16-.82-4.75-1.15.65-.69,1.3-1.37,1.95-2.04.07-.07.15-.15.22-.22ZM97.63,104.69c.64.79,1.27,1.58,1.91,2.37-.37.21-.74.42-1.12.62-.26-1-.54-2-.8-3ZM95.61,111.11c.04.11.31.69.68,1.4-1.42-.17-2.85-.27-4.3-.29,1.18-.44,2.35-.9,3.52-1.39.04.09.07.19.1.28Z"/>
</svg>