<?xml version="1.0" encoding="UTF-8"?>
<svg id="Layer_1" data-name="Layer 1" xmlns="http://www.w3.org/2000/svg" viewBox="0 0 195.69 213.77">
  <defs>
    <style>
      .cls-1 {
        fill: #fff;
        stroke-width: 0px;
      }
    </style>
  </defs>
  <path class="cls-1" d="M65.81,65.48c-4.08,2.55-3.23,7.6-.59,10.93,1.8,2.26,4.07,4.24,6.26,6.21,2.22,3.31,5,6.3,7.7,8.98,1.21,1.2,2.45,2.35,3.72,3.48,3.11,4.56,6.29,9.08,9.56,13.53,2.6,4.37,5.75,8.42,9.2,12.21-.54,1.13-1.05,2.26-1.53,3.42-.52,1.26-1.01,2.6-1.41,3.98-4.25,6.74-8.17,13.71-11.54,20.92-2.64,5.66-6.05,12.59-5.71,19.02.12,2.17,1.03,3.42,2.34,4.04-.01.22-.03.44-.04.66,0,0,0,0,0,0,0,0,0,0,0,0,0,.02,0,.04,0,.07,0,.33,1.49,1.41,1.77,1.19.61-.47,1.21-.96,1.82-1.44,1.61-.14,3.31-.63,4.78-1.21,2.62-.76,5.15-2.18,7.52-3.94,8.97-3.32,16.79-10.65,22.96-17.41,1.12-1.23,2.22-2.48,3.3-3.76,2.43,2.08,4.93,4.07,7.51,5.94,1.06,1.31,2.11,2.63,3.13,3.97.3.39,1.22.05,1.99-.46,4.85,3.11,9.96,5.81,15.37,7.95.83.33,3.29-1.76,2.78-2.63-1.7-2.92-3.63-5.64-5.71-8.24,3.75,2,7.61,3.78,11.52,5.22.48.18,1.02-.19,1.47-.76,2.03,1.56,4.13,3.03,6.33,4.36.96.58,2.76-1.5,2.91-2.33,2.13-11.81-7.44-21.62-16.33-27.78-2.86-1.98-6.06-3.89-9.45-5.55,2.46-3.19,4.6-6.66,6.36-10.43,2.7-5.78,4.84-11.86,6.06-18.14.74-3.8,1.17-7.97.28-11.8,1.2-4.81,2.05-9.72,2.96-14.59.54-.97,1.07-1.94,1.61-2.91.09-.17-.39-.64-.85-.98.11-.56.23-1.13.35-1.69.06-.27-.25-.3-.42-.3-7.47-.27-15.06,5.13-20.83,9.24-9.13,6.51-17.38,14.36-24.81,22.74-7-8.94-13.85-18.02-22.6-25.36-7.63-6.4-20.09-12.38-29.73-6.35ZM83.18,79.21c1.37.25,2.7.64,3.98,1.12,9.35,6.56,17.43,15.48,25.23,23.71-.79,1-1.56,2.01-2.32,3.04-1.02-.82-2.04-1.64-3.06-2.46-9.41-9.99-18.68-20.21-29.57-28.52-.33-.25-1.39.12-2.19.59-.25-.3-.5-.59-.75-.9-.59-.73-3.61,1.12-3.17,1.81,2.12,3.28,4.25,6.55,6.4,9.81-3.96-4.42-7.29-9.58-7.78-15.37,4.95,1.31,9.53,3.43,13.84,6.09-.42-.1-.84-.2-1.27-.28.14.02.25,1.29.64,1.36ZM137.36,151.28c-.32-.41-.64-.83-.97-1.24,1.67,1.27,3.32,2.56,4.96,3.86-1.35-.83-2.69-1.71-4-2.62ZM100.97,128.46c1.02-1.65,2.05-3.28,3.11-4.9,1.07,1.3,2.15,2.6,3.25,3.88.52.61,1.05,1.22,1.58,1.82-2.46,2.95-4.96,5.87-7.46,8.82-.28-.73-.51-1.47-.65-2.25-.45-2.42-.33-4.9.17-7.37ZM100.82,163.82c-1.13,1.06-2.47,2.27-3.93,3.41-.39.1-.78.19-1.17.27-.74.15-1.49.24-2.24.3-.1,0-.2.02-.3.03,5.62-4.89,10.9-10.1,15.91-15.58.2.16.99.34,1.7.36-3.02,3.99-6.31,7.79-9.96,11.21ZM86.04,169.96c.53-2.5,1.43-4.94,2.59-7.3-.56,2.08-.93,4.21-1,6.43.07.11.17.17.31.17.1,0,.19,0,.29.02-.6.5-1.21,1-1.82,1.49-.24-.2-.35-.47-.36-.81ZM142.15,91.2c-4.9,5.89-9.7,11.86-14.36,17.94-.09-.12-.18-.24-.27-.36,1.91-2.62,3.84-5.22,5.85-7.77,2.56-3.25,5.23-6.43,8.08-9.42.23-.13.46-.26.7-.39ZM146.76,96.01c-3.99,6.77-8.13,13.47-12.47,20.03-.4.3-.8.6-1.2.92-1.22-2-2.49-3.95-3.85-5.86,5.41-7.1,11.02-14.06,16.73-20.93.68,1.9.9,3.86.78,5.83ZM90.95,166.98c-.03-.23-.04-.5,0-.84.61-7.94,5.38-15.13,10.08-21.45.13.14.26.26.4.39-.87,1.45-1.74,2.91-2.62,4.39-.2.34.91,1.35.88,1.4.94-1.58,1.96-3.14,3.02-4.68.02.02.04.03.06.04-2.16,3.76-4.24,7.57-6.22,11.44-.18.35,1.87,1.24,2.23.98,1.79-1.32,3.54-2.69,5.27-4.1-4.17,4.34-8.53,8.5-13.09,12.44ZM130.59,127.22s0,0,0,0c.04-.05.07-.09.11-.14.21.11.41.22.62.33-.05.07-.11.15-.16.22-.19-.14-.38-.27-.56-.4ZM134.04,129.05c-.33-.16-.66-.32-.99-.47.05-.07.09-.13.14-.2.09.05.17.09.26.14.2.18.39.35.59.53ZM116.7,128.51c.06-.06.11-.12.17-.17.42.92.85,1.83,1.32,2.73-.69-.57-1.38-1.14-2.06-1.71.19-.28.38-.57.57-.85ZM115.76,125.68c-.48.7-.97,1.41-1.45,2.12-.2-.17-.4-.35-.6-.52.61-.74,1.2-1.49,1.8-2.24.08.22.17.43.25.65ZM122.93,115.6c-.04.05-.08.11-.12.16-.08-.05-.16-.1-.24-.14.06-.08.11-.15.17-.23.06.07.13.14.19.21ZM110.99,131.61c-.65.73-1.28,1.47-1.89,2.22.58-.8,1.15-1.61,1.71-2.42.06.07.12.13.18.2ZM113.1,133.93c.46.5.92,1,1.39,1.49-1.01.48-2.03.86-3.04,1.08.55-.86,1.1-1.72,1.65-2.57ZM103.44,141.46c.56-.75,1.12-1.49,1.68-2.24-.53.79-1.05,1.59-1.56,2.39-.04-.05-.08-.1-.12-.15ZM110.53,137.95c1.67-.05,3.42-.56,5.14-1.32.21.22.43.44.65.66-1.25,2.1-2.43,4.24-3.52,6.42-.64.63-1.28,1.25-1.93,1.87-1.33-.24-2.63-.65-3.89-1.29-.08-.04-.15-.09-.23-.13,1.24-2.09,2.5-4.16,3.79-6.21ZM107.78,148.45c-2.16,1.96-4.38,3.85-6.64,5.67,1.2-2.24,2.43-4.46,3.69-6.66.95.45,1.94.78,2.95.99ZM129.02,139.17c-.49-.74-1-1.54-1.46-2.37.64.59,1.29,1.16,1.95,1.71-.16.22-.32.44-.49.66ZM126.45,114.82c.26-.35.52-.7.79-1.05,1.02,1.5,1.97,3.08,2.87,4.69-1.22-1.21-2.44-2.42-3.65-3.63ZM124.76,113.13c-.08-.08-.15-.15-.23-.23.35-.48.69-.96,1.04-1.44.07.1.15.2.22.3-.34.46-.69.91-1.03,1.37ZM113.8,122.52c-.64,1.04-1.29,2.07-1.95,3.1-1.92-1.75-3.78-3.55-5.56-5.4.75-1.11,1.51-2.21,2.28-3.31,1.73,1.88,3.47,3.76,5.23,5.62ZM118.45,141.31c-.91,1.49-1.84,2.96-2.81,4.42-.3.03-.6.05-.9.07,1.25-1.48,2.49-2.98,3.7-4.49ZM145.95,141.12c.58.39,1.16.79,1.75,1.19.61.62,1.21,1.23,1.82,1.84-2.06-1.19-4.06-2.5-6.01-3.91.8.32,1.61.61,2.43.88ZM86.81,94.03c-.07.18-.11.34-.13.49-.37-.55-.74-1.11-1.11-1.66.41.39.82.79,1.24,1.18ZM94.45,102c-.64-.47-1.28-.96-1.91-1.44-.11-.24-.22-.47-.33-.72.75.71,1.5,1.43,2.24,2.16ZM101.3,109.03c.56.6,1.12,1.19,1.68,1.79-.7.78-1.21,1.68-.71,1.93,1,.5,1.98,1.02,2.95,1.56-.58.96-1.15,1.92-1.69,2.9-3.55-4.04-6.69-8.36-9.22-13.06,2.31,1.67,4.65,3.29,7,4.88ZM106.69,115.16c.19.11.39.23.58.35-.78,1.09-1.55,2.19-2.32,3.29-.07-.08-.14-.15-.21-.23.62-1.17,1.28-2.31,1.94-3.41ZM91.48,169.29c.99-.06,1.97-.17,2.94-.34-1.6.99-3.29,1.76-4.99,2.05.69-.57,1.37-1.13,2.05-1.71ZM113.44,148.6c.09-.01.18-.03.27-.04-.21.3-.42.61-.64.91.12-.29.24-.58.37-.87ZM131.06,140.99c.23-.15.46-.31.68-.46.44.65.88,1.3,1.32,1.94-.67-.49-1.33-.99-2-1.48ZM138.31,116.6c.6-.88,1.19-1.77,1.78-2.66.05-.02.11-.05.16-.07-.39.69-.79,1.37-1.2,2.04-.25.23-.49.46-.74.69ZM153.77,81.9c.15.13.3.26.44.4-.52,1.19-1.05,2.38-1.6,3.57-.95,1.67-1.9,3.34-2.86,5.01-.06-.35-.14-.69-.23-1.04-.15-.58-.39-1.13-.63-1.68-.13-.29-.75-.18-.96-.13-.06.01-.13.03-.19.05,1.57-1.88,3.14-3.74,4.72-5.61.43-.21.87-.41,1.31-.57ZM143.73,89.3s-.03.01-.04.02c.05-.05.1-.1.15-.15-.04.04-.07.09-.11.13ZM114.37,106.12c-.71.89-1.42,1.79-2.12,2.7-.3-.24-.6-.48-.9-.72.69-.98,1.4-1.95,2.13-2.92.3.31.6.62.9.94ZM122.14,142.98c.27.25.54.5.81.75-.68.28-1.36.55-2.06.79.42-.51.84-1.02,1.25-1.54ZM147.32,154.75c1.08,1.27,2.12,2.58,3.12,3.93-1.54-.68-3.06-1.41-4.55-2.2.54-.39,1.12-1.08,1.44-1.73ZM141.01,129.32c-.53-.53-1.06-1.06-1.59-1.58.08-.12.15-.25.23-.37,1.18.45,2.34.94,3.49,1.47-.35.4-.71.8-1.08,1.19-.35-.24-.7-.47-1.05-.71ZM137.58,122.21c1.14-1.67,2.25-3.36,3.33-5.07.31-.3.62-.59.93-.89,1.06-1.02,2.09-2.05,3.09-3.1-1.62,3.29-3.36,6.54-5.2,9.72-.71-.24-1.43-.46-2.15-.66ZM146.69,106.55c1.24-2.7,2.37-5.67,2.94-8.69,2.3-4.3,4.44-8.65,6.42-13.03.31.62.56,1.27.76,1.94-1.58,6.1-3.76,11.97-7.2,17.33-1.35,2.1-2.91,4.02-4.58,5.86.58-1.13,1.15-2.26,1.67-3.41ZM156.39,79.11c-.22-.17-.45-.32-.68-.46.88-1.03,1.76-2.06,2.64-3.08-.65,1.18-1.3,2.36-1.95,3.54ZM151.26,80.44c-.43.5-.86,1.01-1.3,1.51-1.54.73-3.01,1.67-4.4,2.75,1.62-1.54,3.31-3.03,5.05-4.46.22.06.43.13.65.2ZM131.64,97.31c-.09.11-.17.23-.26.34-2.39,2.37-4.58,5-6.61,7.76-1.3-1.55-2.58-3.11-3.84-4.69,4.71-5.63,9.82-10.99,15.61-15.42,3.15-2.41,7.46-5.25,11.64-5.35-6.27,4.96-11.63,11.14-16.54,17.36ZM122.89,108.05c-.44.64-.87,1.28-1.3,1.93-1.14-1.13-2.27-2.26-3.41-3.39-.37-.37-.74-.74-1.11-1.11.6-.76,1.21-1.52,1.82-2.28,1.33,1.62,2.68,3.23,4,4.85ZM115.87,104.28c-.32-.33-.65-.65-.97-.98.66-.85,1.35-1.67,2.04-2.5.3.37.6.75.9,1.12-.66.78-1.32,1.57-1.97,2.36ZM97.08,135c.18-.31.36-.61.54-.92-.17,2.5.12,4.97,1.12,7.21-5.23,6.29-10.48,13.21-13.53,20.85.2-1.04.44-1.96.62-2.62,2.43-8.63,6.82-16.78,11.24-24.52ZM108.71,160.94c-1.72,1.33-3.55,2.52-5.45,3.58,1.92-1.77,3.7-3.67,5.28-5.48,3.52-3.73,6.76-7.72,9.8-11.38.08-.09.15-.19.23-.29,1.96-.66,3.9-1.5,5.74-2.43.05.05.11.1.16.14-4.68,5.82-9.85,11.29-15.77,15.85ZM153.33,134.41c7.84,5.02,16.7,13.02,17.19,22.83-2.38-1.58-4.66-3.31-6.88-5.14-.05-.08-.09-.16-.14-.23.5.28,1,.55,1.5.81.8.41,3.47-.97,3.02-1.23-3.16-1.79-6.17-3.82-9.07-6.01.37.08.74.16,1.12.23.5.09,3.5-.86,2.8-1.47-5.28-4.61-11.16-8.32-17.26-11.68-.77-.56-1.54-1.11-2.33-1.66.43-.45.85-.91,1.27-1.37,3.1,1.49,6.05,3.18,8.77,4.92ZM157.27,96.36c-.72,6.65-3.07,13.18-5.73,19.26-1.53,3.49-3.41,6.72-5.59,9.7-1.33-.61-2.68-1.18-4.05-1.69,2.43-4.18,4.68-8.44,6.74-12.75.13-.26.13-.56-.27-.52-.32.03-.64.08-.96.12,3.8-4.32,7.04-8.98,9.38-14.48.23-.55.45-1.1.67-1.66-.04.69-.1,1.37-.17,2.02ZM158.14,80.96c-.1-.14-.2-.28-.3-.41.21-.37.41-.74.62-1.1-.1.5-.21,1.01-.31,1.51ZM133.23,84.04c7.03-6.26,15.34-13.22,24.53-15.98.69-.21,1.4-.36,2.11-.46,1.67-.24,1,.2.67,1.69-.05.21-.09.42-.13.63-1.63,1.86-3.27,3.73-4.9,5.61-.07-.23-.14-.41-.16-.4-1.31.73-2.58,1.53-3.82,2.37-3-.11-6.25.98-8.93,2.36-7.74,4-14.25,10.43-20.1,16.77-.87.94-1.72,1.89-2.57,2.85-.3-.38-.6-.76-.9-1.15,4.42-5.08,9.2-9.85,14.2-14.29ZM87.29,68.7c5.48,3.51,10.13,8.28,14.45,13.11,4.77,5.34,9.08,11.08,13.43,16.76.28.36.56.72.84,1.07-.73.86-1.46,1.72-2.17,2.6-3.65-3.7-7.34-7.49-11.18-11.1-3.53-3.46-7.55-7.36-12.06-10.08-6.49-4.63-13.57-8.27-21.63-10-.15-.03-1.8-.34-1.78.05.21,3.5,1.43,6.75,3.19,9.76-.88-.88-1.72-1.79-2.48-2.78-3.12-4.05-3.25-10.3,1.59-12.93,5.67-3.08,12.99.46,17.8,3.54Z"/>
</svg>