<?xml version="1.0" encoding="UTF-8"?>
<svg id="Layer_1" data-name="Layer 1" xmlns="http://www.w3.org/2000/svg" viewBox="0 0 195.69 213.77">
  <defs>
    <style>
      .cls-1 {
        fill: #fff;
        stroke-width: 0px;
      }
    </style>
  </defs>
  <path class="cls-1" d="M58.71,93.74c-9.96-13.67-36.49,4.48-29.87,18.94,2.93,6.4,11.72,9.53,18.13,10.43,3.65.51,12.33,1.22,12.5-4.41.04-1.22-1.79-1.48-2.1-.31-3.91,14.54,20.13,12.13,27.91,10.18,2.88-.72,5.27-1.88,7.61-3.72,4.73-3.72,6.19-11.86,13.49-10.53,4.48.82,7.16.94,11.07-1.57,3.92-2.51,7.47-5.74,10.54-9.22,7.99-9.08,8.84-20.79-.56-29.08-7.45-6.58-19.8-10.31-29.46-7.14-5.88,1.93-9.08,7.26-8.65,13.35,1.12-.13,2.24-.26,3.35-.38-4.17-16.43-41.82-5.7-28.41,12.36,1.04-.78,2.07-1.57,3.11-2.35-3.36-2.89-8.4-3.26-12.65-3.24-1.69.01-6.19,1.22-4.33,3.77,1.11,1.52,3.71.09,2.58-1.45,1.33,1.81-1.67,1.49.89,1.72,1.17.1,2.4,0,3.58.07,2.19.14,5.35.47,7.14,1.91,1.98,1.6,4.37-.78,2.79-2.78-10.39-13.12,18.84-20.15,21.99-9.19.51,1.78,3.56,1.61,3.35-.38-2.16-21.12,43.85-10.95,38.92,11.38-1.75,7.92-9.02,14.2-15.36,18.59-2.65,1.83-4.71,2.22-7.93,1.63-1.64-.3-3.82-1.04-5.5-.64-3.63.88-5.67,4.08-7.69,6.97-5.04,7.23-12.25,8.77-20.6,9.18-5.81.28-17.13-.35-15.12-8.85-.7-.1-1.4-.2-2.1-.31,0,4.21-9.44,2.66-11.72,2.23-5.31-.99-11.11-3.38-14.41-7.84-9.07-12.27,16.97-30.05,26.95-18.88.26.3.8-.1.56-.43h0Z"/>
  <path class="cls-1" d="M119.8,107.68c5.97.35,14.08-.97,16.01,6.35,2.66,10.11-7,20.65-16.92,20.66.29.72.58,1.44.87,2.16,3.57-3.13,7.41-.09,7.27,4.11.34-.42.67-.85,1.01-1.27-11,4.31-21.94,4.52-33.59,4.29-3.49-.07-6.91.23-10.33-.66-2.43-.63-4.6-5.13-.76-4.47,2.73.46,2.05,3.42.78,4.82-4.1,4.54-13.05,5.54-18.76,5.93-3.24.22-5.71-.3-8.29-2.41-1.94-1.59-7.46-7.97-2.07-7.84-.15-1.35-.31-2.69-.47-4.04-6.3,2.49-8.42-6.61-6.67-11.11.83-2.14-2.68-3.61-3.7-1.57-3.92,7.86,2.29,20.33,11.87,16.46,1.98-.8.91-3.8-.98-3.84-13.63-.24-2.06,17.32,6.15,18.21,7.89.86,25.22-1.5,27.67-10.82,1.09-4.13-2.84-8.11-6.94-7.49-5.24.8-5.65,6.88-2.08,10,4.48,3.92,13.15,2.26,18.58,2.34,10.35.17,21.17-.6,30.55-5.35.57-.29.71-.91.64-1.49-.74-6.17-6.36-10.35-11.67-5.61-.82.73-.19,2.17.87,2.16,10.99-.11,19.71-10.1,19.16-20.9-.55-10.72-10.08-9.87-18.2-9.31-.43.03-.45.65-.01.67h0Z"/>
  <path class="cls-1" d="M123.05,71.54c10.16-4.56,21.87-7.47,30.32-15.05,1.29-1.16-.62-3.1-1.9-1.92-8.37,7.72-20.06,9.21-29.16,15.65-.79.56-.15,1.71.74,1.31h0Z"/>
  <path class="cls-1" d="M135.06,52.01c10.35,1.55,20.45-1.6,30.69-2.6-.32-.79-.64-1.59-.96-2.38-4.61,5.84-14.54,11.69-13.21,20.23.12.75,1.25.87,1.58.23,1.87-3.65,3.52-6.91,6.36-9.95,2.64-2.84,5.44-5.49,7.45-8.82.66-1.1-.4-2.25-1.54-2.05-10.12,1.72-19.92,4.84-30.28,4.72-.35,0-.46.57-.09.63h0Z"/>
  <path class="cls-1" d="M51.59,145.56c-3.24,2.37-5.9,5.22-8.46,8.3-1.59,1.9-4.75,4.6-2.88,7.07.2.26.66.35.96.27.91-.26.94-1.05,1.45-1.72.37-.49-.23-1.07-.73-.97-.34.07-1.77.77-.95.7.32.26.64.51.97.77-.11-.78,1.5-2.55,1.92-3.18.87-1.3,1.76-2.6,2.67-3.88,1.69-2.39,3.49-4.75,5.29-7.07.12-.15-.04-.43-.22-.3h0Z"/>
  <path class="cls-1" d="M35.49,152.42c-.33,4.4-.36,8.86-.36,13.27,0,.8.59,1.28,1.33,1.37,2.82.34,5.56-1.02,8.01-2.27,2.81-1.43,6.52-2.84,8.8-5.02.45-.44.27-1.34-.38-1.47-2.6-.53-5.08,1.01-7.3,2.22-3.11,1.69-5.99,3.01-9.43,3.88.56.44,1.12.89,1.68,1.33-.39-4.43-.34-8.86-.65-13.29-.08-1.08-1.6-1.12-1.69-.03h0Z"/>
  <path class="cls-1" d="M128.43,146.04c7.96.26,13.7,5.01,20.4,8.57,1.59.85,3-1.52,1.42-2.43-6.73-3.87-13.86-8.16-21.89-6.77-.37.06-.28.62.07.63h0Z"/>
  <path class="cls-1" d="M136.1,157.74c5.36.55,10.77.62,16.14,1.09.96.08,1.71-.81,1.75-1.7.15-3.17-.41-6.36-1.69-9.27-1.01-2.3-2.56-5.77-5.28-6.32-.91-.18-2.02.59-1.67,1.63.69,2.06,2.47,3.59,3.48,5.55,1.31,2.55,1.82,5.52,1.72,8.36.44-.55.87-1.1,1.31-1.65-5.25.88-10.46.77-15.74,1.3-.65.06-.67.95-.02,1.01h0Z"/>
</svg>