<?xml version="1.0" encoding="UTF-8"?>
<svg id="Layer_1" data-name="Layer 1" xmlns="http://www.w3.org/2000/svg" viewBox="0 0 195.69 213.77">
  <defs>
    <style>
      .cls-1 {
        fill: #fff;
        stroke-width: 0px;
      }
    </style>
  </defs>
  <path class="cls-1" d="M78.74,146.6c.92-1.08,1.84-2.16,2.77-3.24,4.44-1.55,8.89-3.02,13.43-4.3,4.29,2.81,8.88,5.22,13.75,6.32.91.21,3.86-.66,3.93-1.85.17-2.94.27-5.88.34-8.82,5.7-1.18,11.42-2.22,17.13-3.25.67-.12,4.49-2.84,3.12-3.23-6.78-1.95-13.5-4.26-20.22-6.54-.12-6.48-.4-12.95-.8-19.46-.04-.64-2.91-1.44-3.22-.87-3.06,5.53-6.63,10.68-10.39,15.68-8.53-2.53-17.18-4.56-26.11-5.26-1.04-.08-4.28,1.82-3.63,3.13,3.62,7.32,11.08,13.03,17.5,17.91-1.98,2.59-3.91,5.21-5.76,7.9-6.19,2.53-11.88,5.95-17.98,8.62-1.6.7,2.27,1,3.09.44,3.57-2.41,8.2-3.74,12.3-5.17-.05.08-.11.16-.16.24-.22.35.94,1.74.93,1.75ZM85.26,138.95c1.19-1.41,2.38-2.82,3.57-4.24.96.72,1.94,1.45,2.94,2.16-2.18.64-4.36,1.33-6.51,2.08ZM91.81,131.1c2.6-3.17,5.14-6.39,7.61-9.66,3.27,1.05,6.53,2.15,9.78,3.27-.03,2.57-.09,5.14-.16,7.71-3.89.86-7.75,1.81-11.61,2.85-1.94-1.37-3.82-2.79-5.63-4.17ZM108.68,141.81c-2.72-1.16-5.38-2.65-7.96-4.31,2.73-.69,5.47-1.33,8.22-1.94-.07,2.08-.16,4.16-.26,6.24ZM123.69,129.59c-3.57.59-7.13,1.26-10.68,1.99.02-1.85.03-3.7.02-5.55,3.55,1.22,7.1,2.43,10.66,3.56ZM109.13,107.37c.1,4.35.13,8.7.11,13.06-2.43-.81-4.87-1.61-7.32-2.37,2.53-3.49,4.95-7.05,7.21-10.69ZM74.92,115.61c7.15.93,14.16,2.67,21.1,4.77-2.26,2.92-4.55,5.81-6.82,8.71-4.96-3.81-10.52-8.23-14.28-13.48Z"/>
</svg>