<?xml version="1.0" encoding="UTF-8"?>
<svg id="Layer_1" data-name="Layer 1" xmlns="http://www.w3.org/2000/svg" viewBox="0 0 195.69 213.77">
  <defs>
    <style>
      .cls-1 {
        fill: #fff;
        stroke-width: 0px;
      }
    </style>
  </defs>
  <path class="cls-1" d="M106.43,151.87c8.47,2.19,17.77-.35,25.24-4.49,15.08-8.36,17.4-26.68,16.24-42.3-1.16-15.69-5.06-33.32-18.98-42.54-1.09-.72-2.21-1.36-3.36-1.91-2.33-2.33-5.89-3.94-8.41-4.84-6.94-2.48-14.89-3.16-22.21-2.66-13.4.91-25.31,10.67-30.01,22.99-6.54,17.14-1.76,38.63,8.07,53.57,5.91,8.98,16.13,15.74,17.88,27.04,1.34,8.66-7.15,9.11-13.39,9.09-5.05-.02-10.5-.54-15.31-2.18,3.96-1.43,8.24-1.97,12.42-2.13-.03,0-1.31-1.8-2.08-1.66-7.32,1.4-16.4,2.75-21.6,8.63-.07.13-.05.23.07.31,4.61,3.88,8.86,8.12,14.73,10.04,1.48.48,8.7,1.55,9.41-.78.16-.52-1.98-1-2.26-1.04-1.66-.27,1.22-1.02-1.46-1.1-1.51-.04-2.98-.49-4.4-.96-2.78-.93-5.23-2.76-7.6-4.44-1.17-.83-2.43-1.56-3.65-2.31-1.44-.88,3.48-3.3,4.58-3.82-1.15,1.26-2.02,3.51-1.24,3.78,11.56,4.01,32.8,4.29,35.58-11.17.78-4.31-.88-8.59-3.38-12.49.87.51,1.77.93,2.7,1.26,3.7,2.79,7.84,4.95,12.4,6.13ZM115.05,59.12c4.8,1.89,9.57,5.15,8.62,10.49-.44,2.44-3.14,3.6-5.56,4.34-3.34-1.4-7.13-1.8-10.68-1.44-5.1.51-9.27,2.63-12.56,5.78-2.56.48-5.15,1.06-7.68,1.81,2.46-7.3,7.56-13.98,14.12-18,4.35-2.66,9.09-3.52,13.73-2.97ZM94.1,84.06c1.76-1.57,3.74-2.93,6.03-4.03.03-.01.06-.03.09-.04,2.77-.4,5.53-.81,8.27-1.35,7,1.16,11.97,8.38,14.21,15.62,2.51,8.15,2.23,18.23-2.23,25.64-2.75,4.57-7.3,8.23-12.26,10.13-6.77,2.6-11.79-2.76-14.51-8.14-5.55-10.99-6.3-26.94.4-37.84ZM103.87,76.86c-1.25.18-2.55.37-3.88.57,4.82-3.73,10.58-4.82,15.64-2.78-3.85,1.07-7.82,1.65-11.77,2.22ZM92.29,81.19c-.35.47-.69.95-1.02,1.45-.68.58-1.33,1.2-1.96,1.87-1.36,1.47-3.02,3.61-4.74,6.15.49-2.79,1.12-5.53,1.89-8.21,2.01-.54,4.01-.95,5.83-1.27ZM79.8,98.67c-1.71,3.26-3.25,6.72-4.34,10.1-2.28-5.85-4.69-13.32-1.31-18.93,1.66-2.75,4.7-4.65,8.12-6-1.34,4.82-2.04,9.88-2.47,14.83ZM79.25,108.82c-.06,3.09,0,6.27.27,9.44-.67-1.4-1.3-2.8-1.89-4.18.43-1.73.98-3.51,1.62-5.27ZM85.63,128.87c.25,0,.5.02.77.02.33,0-.27-.48-.98-.88-.86-3.57-1.35-7.08-1.65-9.88-.66-6.18-.78-12.64-.27-19.04,1.11-2.21,2.11-3.99,2.73-5.02.19-.32.38-.63.58-.94-4.77,19.16,4.01,43.82,24.42,37.73,18.56-5.53,19.4-29.92,10.83-43.83-2.84-4.61-6.96-7.54-11.49-8.82,1.9-.43,3.79-.93,5.64-1.54.63-.21,1.28-.45,1.94-.71,1.2.79,2.35,1.76,3.4,2.97,5.81,6.66,6.98,17.2,7.32,25.69.38,9.19-1.37,18.63-6.11,26.59-4.09,6.86-12.68,14.21-21.15,14.52-6.31-3.7-11.51-9.54-15.76-16.03-.08-.27-.15-.55-.22-.82ZM144.26,109.47c.61,18.38-5.72,40.34-27.82,40.37-4.89,0-9.31-1.21-13.32-3.28,4.03-.51,8.12-2.01,11.81-4.04,15.97-8.79,19.21-28.71,16.86-45.22-1.12-7.84-3.41-15.89-9.79-21.05-.56-.45-1.15-.86-1.76-1.22,3.35-1.64,6.44-4.05,7.46-7.6.31-1.08.32-2.09.11-3.04,13.35,9.95,15.93,29.56,16.44,45.08ZM71.75,117.38c-5.99-13.76-8.1-30.98-1.96-45.05,3.43-7.87,9.8-13.39,18.02-15.77,6.87-1.99,15.39-.65,22.17.98.4.1.83.21,1.27.33-7.22.45-14.27,3.5-19.56,8.81-4.22,4.23-6.94,9.38-8.74,14.9-5.5,2.22-10.3,5.55-13.07,10.82-2.94,5.56-.62,12.61,1.3,18.09.8,2.28,1.67,4.54,2.62,6.76-.15,4.47,1.22,8.17,5.02,10.13,1.34,2.34,2.79,4.61,4.35,6.8.09.22.18.44.28.66-.08-.09-.16-.18-.24-.26-4.83-5.21-8.59-10.65-11.44-17.19Z"/>
</svg>