<?xml version="1.0" encoding="UTF-8"?>
<svg id="Layer_1" data-name="Layer 1" xmlns="http://www.w3.org/2000/svg" viewBox="0 0 195.69 213.77">
  <defs>
    <style>
      .cls-1 {
        fill: #fff;
        stroke-width: 0px;
      }
    </style>
  </defs>
  <path class="cls-1" d="M76.87,95.87c.12-.11.25-.17.28-.26.94-2.76,3.28-3.43,5.76-3.99,1.22-.28,2.39-.91,3.67-.18.15.08.51-.15.75-.29,2.14-1.19,4.29-2.12,6.85-2.17,1.38-.03,2.96-.29,3.82-1.96.35-.68,1.49-.95,2.29-1.38.49-.26,1.03-.42,1.52-.69,1.81-.98,2.21-.93,3.75.5.14.13.3.25.36.3,1.37-1.17,2.61-2.41,4.03-3.38,1.33-.92,2.8-1.7,4.31-2.29,2.06-.81,3.97-.22,5.55,1.11.88-.37,1.73-.68,2.51-1.1.34-.18.73-.59.76-.94.18-1.61,1.3-2.14,2.61-2.6,1-.35,1.91-1.01,2.93-1.23,2.21-.48,4.03-2.33,6.51-1.85.19.04.4-.02.6-.05,2.35-.38,2.58-.15,3.14,2.11.59,2.38.9,4.77,1.07,7.21.28,4.02.71,8.02,1.09,12.03.42,4.41.85,8.82,1.28,13.23.03.36.06.71.08,1.07.13,2.1.14,2.13-1.84,2.94-.88.36-1.82.61-2.75.81-.26.06-.64-.18-.88-.38-.68-.57-1.33-1.2-1.99-1.8l-.32.23c.13.27.26.54.4.79.59,1.07.26,2.13-.9,2.58-1.41.55-2.83,1.13-4.3,1.46-.74.17-1.6-.18-2.71-.33-.88,2.8-3.41,4.22-6.21,5.33-2.98,1.19-5.68.36-8.31-1.2.13.91.25,1.8.4,2.89-2.47,1.13-4.92,2.26-7.38,3.37-.25.11-.63.25-.8.15-1.41-.88-1.79.42-2.42,1.12-1.24,1.39-2.29,3-3.7,4.19-1.7,1.44-3.04,1.25-5.07-.53-1.19-1.04-2.18-2.31-3.34-3.56-.09.2-.3.49-.32.8-.4,4.41-2.94,7.17-6.84,8.87-.88.38-1.82.6-2.72.93-1.79.66-3.53.5-5.23-.31-.14-.07-.28-.15-.43-.2-1.76-.65-1.91-.54-1.82,1.32,0,.12.02.24.02.36.09,2.39,0,2.49-2.24,3.25-3.88,1.31-7.75,2.65-11.64,3.94-.3.1-.78.02-1.04-.16-.8-.58-1.53-1.28-2.32-1.88-.29-.22-.69-.43-1.04-.42-.79.02-1.01-.23-.99-1.05.07-3.62.08-7.25.04-10.87-.04-3.71-.13-7.42-.28-11.13-.11-2.71-.32-5.42-.52-8.12-.19-2.54-.44-5.07-.63-7.61-.11-1.51,1.28-3.05,2.88-3.33,1.7-.3,3.33-.72,4.53-2.15.31-.36.96-.53,1.48-.6,1.77-.23,3.56-.33,5.33-.59.49-.07.93-.52,1.39-.81.92-.59,1.79-1.28,2.77-1.75.92-.44,1.94-.72,2.94-.95,1.3-.3,2.37.28,3.27,1.2ZM86.85,97.44l-.22.04c.55,3.14,1.1,6.28,1.68,9.41.04.21.24.39.38.58.62.84,1.48,1.6,1.82,2.54.54,1.48.85,3.07,1.04,4.64.3,2.49.63,4.96,1.5,7.33.26.7.52,1.46,1.01,1.99.3.32,1.05.42,1.54.33.59-.11,1-.54.79-1.34-1.16-4.56-2.26-9.13-3.4-13.7-.32-1.27-.74-2.53-.98-3.81-.18-.95.75-2.24,1.69-2.46,1.16-.26,1.36.7,1.67,1.45.53,1.28.94,2.62,1.56,3.86,1.81,3.64,3.71,7.23,5.55,10.86.6,1.18,1.2,1.4,2.3.67.76-.51,1.44-1.24,2.27-1.53,1.2-.41,1.23-1.19,1.08-2.15-.74-4.75-1.86-9.39-3.57-13.89-.2-.52-.31-1.07-.44-1.61-.92-3.75-1.82-7.51-2.79-11.24-.09-.35-.59-.59-.9-.89-.3.38-.79.73-.85,1.14-.11.77-.07,1.6.07,2.38.77,4.4,1.62,8.79,2.38,13.2.16.91.21,1.91-.04,2.78-.14.49-.95.85-1.54,1.08-.12.05-.66-.7-.85-1.15-1.26-3.09-2.4-6.23-3.72-9.29-.63-1.44-1.62-2.72-2.4-4.11-1.41-2.52-1.57-3.15-5.21-1.24-1.08.56-1.37,1.49-1.43,2.57-.03.52,0,1.04,0,1.56ZM73.73,97.65c-.91.39-1.58.77-2.29.95-1.02.26-1.47.84-1.45,1.88.04,1.92,0,3.83.08,5.75.19,4.06.42,8.11.7,12.16.23,3.34.42,6.69.9,10,.29,2.01,1.51,3.61,3.67,4.04,1.98.4,3.68-.19,4.97-1.84.32-.41.81-.8,1.3-.96,1.02-.32,1.75-1,1.96-1.94.42-1.89.74-3.82.89-5.76.14-1.82-.14-3.67.02-5.49.62-6.78-.38-13.48-.81-20.2-.02-.27-.44-.73-.68-.73-1.37,0-2.26,1.05-2.13,2.43.13,1.42.35,2.84.42,4.26.1,1.99.03,3.98.15,5.97.11,1.85.47,3.69.55,5.54.1,2.38.1,4.77.03,7.15-.04,1.53-.02,3.16-.52,4.56-.5,1.4-1.45,2.75-2.53,3.79-1.24,1.21-3.1.49-3.38-1.22-.24-1.48-.19-3.01-.26-4.52-.26-5.28-.5-10.55-.77-15.83-.15-2.91-.35-5.82-.54-8.73-.03-.41-.16-.81-.26-1.26ZM134.6,108.24c1.31-.82,2.39-1.47,3.42-2.18.19-.13.31-.48.31-.73.03-1.52.11-3.05-.01-4.55-.44-5.5-.95-10.99-1.45-16.48-.22-2.43-.49-4.85-.72-7.27-.07-.75-.29-1.24-1.2-.95-.29.09-.64.02-.95.05-.75.07-1.18.43-1.14,1.24.06,1.2.11,2.39.19,3.59.14,2.27.91,4.53-.3,6.81-.32.59-.49,1.06-1.13,1.28-2.38.82-2.27,1.27-2.55-1.55-.27-2.82-.6-5.64-.94-8.46-.04-.3-.27-.75-.5-.82-.9-.26-2.7,1.32-2.72,2.34-.15,7.65.52,15.23,1.79,22.76.31,1.83.38,3.69.58,5.54.04.41.16.81.24,1.21,2.2-.4,2.33-.4,2.29-2.44-.08-4.13.48-8.3-.7-12.38-.38-1.32.41-2.31,1.77-2.63.61-.15,1.19-.42,1.8-.59.31-.09.77-.24.96-.1.26.2.47.65.47.99,0,1.86-.17,3.73-.1,5.59.12,3.15.38,6.29.6,9.75ZM110.75,113.32c.54.08,1.01.02,1.28.22.75.56,1.47,1.2,2.12,1.88.65.68,1.31.92,2.24.57,1.79-.67,3.21-1.86,4.76-2.92,3.3-2.26,3.08-7.72,1.54-10.11-.15-.24-.43-.52-.68-.56-1.25-.19-3.28,1.69-3.22,2.97.09,1.83.22,3.67.34,5.5.06.99-1.02,2.34-1.95,2.25-.73-.08-1.48-.18-1.62-1.33-.43-3.49-1.01-6.96-1.57-10.43-.7-4.38-1.44-8.75-2.16-13.13-.17-1.05.52-1.93,1.78-2.34,1-.32,1.59.11,1.99.99.22.5.48.98.7,1.47.3.67.77,1.35.82,2.04.08,1.16.66,1.11,1.44.86.45-.15.87-.41,1.32-.56,1.13-.36,1.26-1.16.87-2.09-.62-1.43-1.22-2.88-2.01-4.21-1.36-2.27-3.9-2.62-6.04-.99-.83.63-1.71,1.18-2.55,1.78-1.44,1.04-2.37,2.45-2.39,4.22-.04,2.62-.15,5.28.22,7.85.77,5.37,1.84,10.7,2.79,16.07ZM59.3,103.46c-.69.07-1.28.14-1.87.19-1.14.11-1.83.98-1.73,2.13.13,1.47.22,2.94.32,4.41.11,1.71.22,3.41.33,5.12.04.56.12,1.11.13,1.67.06,3.07.06,6.14.17,9.2.15,4.3.38,8.6.53,12.9.03.85.34,1.04,1.11.84,1.42-.36,2.88-.61,4.28-1.03,1.48-.45,2.95-.95,4.34-1.62.43-.21.68-1.01.78-1.58.04-.22-.58-.82-.84-.79-1.45.19-2.94.38-4.31.85-1.64.56-2.41.09-2.36-1.66.06-2.35.04-4.71.02-7.06-.03-3.86-.19-7.72-.12-11.58.07-3.98.05-7.95-.77-12.01Z"/>
  <path class="cls-1" d="M86.85,97.44c0-.52-.02-1.04,0-1.56.06-1.08.35-2.01,1.43-2.57,3.64-1.91,3.8-1.28,5.21,1.24.78,1.38,1.77,2.66,2.4,4.11,1.33,3.06,2.47,6.2,3.72,9.29.18.45.73,1.2.85,1.15.58-.23,1.4-.6,1.54-1.08.25-.86.19-1.87.04-2.78-.76-4.41-1.6-8.8-2.38-13.2-.14-.78-.18-1.6-.07-2.38.06-.41.55-.76.85-1.14.31.29.81.54.9.89.97,3.74,1.87,7.49,2.79,11.24.13.54.24,1.09.44,1.61,1.71,4.5,2.83,9.15,3.57,13.89.15.95.12,1.73-1.08,2.15-.83.29-1.51,1.03-2.27,1.53-1.11.73-1.7.52-2.3-.67-1.84-3.62-3.74-7.22-5.55-10.86-.62-1.24-1.02-2.58-1.56-3.86-.31-.75-.52-1.71-1.67-1.45-.94.21-1.87,1.5-1.69,2.46.24,1.29.66,2.54.98,3.81,1.13,4.57,2.24,9.14,3.4,13.7.2.8-.2,1.23-.79,1.34-.49.09-1.25,0-1.54-.33-.48-.53-.75-1.29-1.01-1.99-.88-2.36-1.21-4.83-1.5-7.33-.19-1.57-.5-3.16-1.04-4.64-.34-.94-1.2-1.7-1.82-2.54-.14-.19-.34-.37-.38-.58-.57-3.14-1.12-6.27-1.68-9.41l.22-.04Z"/>
  <path class="cls-1" d="M73.73,97.65c.1.45.23.85.26,1.26.19,2.91.39,5.82.54,8.73.27,5.27.52,10.55.77,15.83.07,1.51.02,3.04.26,4.52.28,1.71,2.14,2.43,3.38,1.22,1.07-1.04,2.03-2.39,2.53-3.79.51-1.4.48-3.03.52-4.56.07-2.38.07-4.77-.03-7.15-.08-1.85-.44-3.69-.55-5.54-.12-1.98-.05-3.98-.15-5.97-.07-1.42-.29-2.84-.42-4.26-.13-1.37.76-2.43,2.13-2.43.24,0,.66.46.68.73.43,6.73,1.43,13.43.81,20.2-.16,1.82.12,3.67-.02,5.49-.15,1.93-.47,3.86-.89,5.76-.21.94-.93,1.62-1.96,1.94-.49.15-.97.54-1.3.96-1.29,1.65-2.99,2.24-4.97,1.84-2.15-.43-3.38-2.03-3.67-4.04-.48-3.31-.67-6.66-.9-10-.28-4.05-.51-8.11-.7-12.16-.09-1.91-.04-3.83-.08-5.75-.02-1.04.42-1.61,1.45-1.88.71-.18,1.38-.56,2.29-.95Z"/>
  <path class="cls-1" d="M134.6,108.24c-.22-3.46-.48-6.6-.6-9.75-.07-1.86.1-3.72.1-5.59,0-.34-.21-.79-.47-.99-.19-.14-.64,0-.96.1-.61.17-1.19.45-1.8.59-1.36.32-2.15,1.31-1.77,2.63,1.18,4.08.62,8.25.7,12.38.04,2.04-.09,2.05-2.29,2.44-.08-.4-.19-.8-.24-1.21-.2-1.85-.27-3.71-.58-5.54-1.27-7.54-1.94-15.12-1.79-22.76.02-1.02,1.81-2.6,2.72-2.34.23.07.46.52.5.82.34,2.82.67,5.64.94,8.46.27,2.82.17,2.37,2.55,1.55.64-.22.81-.68,1.13-1.28,1.22-2.28.44-4.54.3-6.81-.07-1.19-.12-2.39-.19-3.59-.04-.81.39-1.17,1.14-1.24.32-.03.66.04.95-.05.91-.29,1.13.19,1.2.95.23,2.43.5,4.85.72,7.27.5,5.49,1.01,10.98,1.45,16.48.12,1.51.04,3.04.01,4.55,0,.25-.12.61-.31.73-1.04.71-2.11,1.35-3.42,2.18Z"/>
  <path class="cls-1" d="M110.75,113.32c-.95-5.36-2.02-10.69-2.79-16.07-.37-2.58-.26-5.23-.22-7.85.02-1.78.95-3.19,2.39-4.22.84-.61,1.73-1.15,2.55-1.78,2.14-1.63,4.69-1.28,6.04.99.79,1.33,1.4,2.78,2.01,4.21.4.93.26,1.72-.87,2.09-.45.15-.87.41-1.32.56-.77.25-1.36.3-1.44-.86-.05-.7-.52-1.37-.82-2.04-.22-.5-.48-.98-.7-1.47-.39-.88-.99-1.31-1.99-.99-1.26.41-1.95,1.29-1.78,2.34.72,4.38,1.46,8.75,2.16,13.13.56,3.47,1.14,6.94,1.57,10.43.14,1.15.89,1.26,1.62,1.33.93.1,2.01-1.26,1.95-2.25-.12-1.83-.25-3.66-.34-5.5-.06-1.28,1.96-3.16,3.22-2.97.25.04.53.32.68.56,1.54,2.39,1.76,7.85-1.54,10.11-1.55,1.06-2.97,2.25-4.76,2.92-.93.35-1.58.11-2.24-.57-.65-.68-1.37-1.31-2.12-1.88-.27-.2-.74-.14-1.28-.22Z"/>
  <path class="cls-1" d="M59.3,103.46c.82,4.06.84,8.02.77,12.01-.07,3.86.09,7.72.12,11.58.02,2.35.04,4.71-.02,7.06-.04,1.75.72,2.22,2.36,1.66,1.38-.47,2.86-.66,4.31-.85.26-.03.88.57.84.79-.11.57-.35,1.37-.78,1.58-1.39.67-2.86,1.18-4.34,1.62-1.4.42-2.86.67-4.28,1.03-.77.2-1.08,0-1.11-.84-.15-4.3-.39-8.6-.53-12.9-.1-3.07-.11-6.14-.17-9.2-.01-.56-.09-1.11-.13-1.67-.11-1.71-.21-3.41-.33-5.12-.1-1.47-.19-2.95-.32-4.41-.1-1.15.59-2.02,1.73-2.13.59-.05,1.18-.12,1.87-.19Z"/>
</svg>