<?xml version="1.0" encoding="UTF-8"?>
<svg id="Layer_1" data-name="Layer 1" xmlns="http://www.w3.org/2000/svg" viewBox="0 0 195.69 213.77">
  <defs>
    <style>
      .cls-1 {
        fill: #fff;
        stroke-width: 0px;
      }
    </style>
  </defs>
  <path class="cls-1" d="M15.38,125.23c1.97,6.48,8.32,11.34,13.95,14.56,3.75,2.14,7.79,3.71,11.93,4.93,2.57,4.01,6.34,7.31,10.81,9.46,9.94,4.78,21.91,4.63,32.62,3.49,11.43-1.22,22.77-4.08,33.55-8.04.04-.02.08-.03.13-.05,5.57-.22,11.14-.63,16.7-1.38,13.72-1.84,27.97-5.8,38.44-15.32,3.92-3.56,6.66-7.8,7.97-12.36,4.17-7.32,3.76-16.5-1.17-24.55-5.39-8.81-15.23-13.31-25.12-15.63-.72-.41-1.44-.8-2.16-1.18-4.97-2.64-10.32-4.84-15.82-6.06-7.57-1.68-15.61-1.34-23.25-.36-5.56.71-11.02,1.97-16.35,3.68-5.43.14-10.85.55-16.18,1.19-12.49,1.51-25.09,4.8-36.31,10.55-6.91,3.55-13.98,8.85-17.76,15.84-7.7,4.95-14.71,12.17-11.96,21.22ZM28.09,134.73c-5.58-3.96-11.57-10.42-10.16-17.8.85-4.46,4.3-7.85,8.25-10.48-.69,1.69-1.19,3.47-1.45,5.34-.73,5.26.85,9.97,4.01,13.82,1.57,3.38,4.37,6.09,7.59,8.3.47.77,1,1.49,1.55,2.2.26,1.54.67,3.03,1.24,4.47-3.89-1.52-7.61-3.42-11.04-5.85ZM109.9,79.52c.92.06,1.85.12,2.77.2-3.66.64-7.29,1.46-10.88,2.43-3.72-.27-7.46-.35-11.18-.24,2.72-1.04,5.48-1.95,8.28-2.75,3.68.01,7.36.14,11.01.36ZM179.49,120.25c-1.34,1.9-3.12,3.55-5.22,4.98,2.63-4.4,3.81-9.66,2.67-15.88-.41-2.27-1.04-4.38-1.83-6.35,1.51,2.31,2.75,4.77,3.66,7.37,1.24,3.56,1.38,6.86.72,9.87ZM44.13,142.29c-.18-.27-.35-.55-.52-.83.64.44,1.3.86,1.98,1.26-.49-.13-.97-.29-1.45-.43ZM33,112.34c1.07-1.59,2.38-3,3.84-4.29-2.64,4.87-4.16,10.31-3.75,15.81.03.36.08.71.12,1.07-.97-.94-1.87-1.95-2.68-3.05,0,0,0,0-.01-.01-.51-2.91.15-6.09,2.47-9.52ZM163.86,130.05c2.32-3.61,3.59-7.76,3.08-12.39-.03-.24-.07-.47-.1-.71.59-1.25,1.06-2.53,1.39-3.84,2.49,5.83,2.06,12.01-4.38,16.94ZM46.89,113.04c-1.85,3.31-3.11,6.98-3.58,11.04-.22,1.89-.14,3.6.16,5.18-.02.24-.05.49-.07.73-.03.51-.03,1-.01,1.48-1.06-.47-2.1-.98-3.12-1.53.05-6.02,2.76-11.75,6.62-16.9ZM140.06,141.27c-1.03.15-2.06.29-3.07.42-.91.12-1.82.21-2.74.31,0,0,0,0,0,0,2.31-.29,4.62-.62,6.91-.99-.37.09-.73.18-1.1.27ZM162.02,121.96c-3.82,4.95-9.83,8.55-15.14,11.02-.22.1-.43.19-.65.29,3.98-2.48,7.51-5.59,10.15-9.49,2.15-3.17,3.05-6.5,3.03-9.78,1.38,2.47,2.33,5.13,2.61,7.96ZM79.81,144.32c-.59-.07-1.19-.13-1.78-.21-3.8-.49-8.67-1.33-13.37-2.79-.32-.25-.62-.5-.92-.76,6.5,1.12,13.09,1.81,19.67,2.28,1.07.19,2.14.37,3.18.53,2.26.35,4.54.67,6.83.94-4.56.25-9.11.26-13.62.01ZM49.35,119.79c.11,2.55.67,5.17,1.74,7.81.93,2.29,2.38,4.16,4.18,5.69.16.81.37,1.61.63,2.4-1.2-.31-2.4-.65-3.59-1-3.29-3.23-4.95-7.52-3.46-13.22.15-.57.32-1.12.5-1.68ZM52.41,113.26c1.09-1.32,2.21-2.54,3.28-3.63,5.15-5.22,11.36-9.3,17.78-12.79,1.36-.74,2.75-1.45,4.15-2.15.64-.16,1.28-.32,1.92-.47-2.18,1.39-4.32,2.93-6.37,4.6-5.45,3.69-10.8,9.18-13.43,15.33-.68,1.19-1.31,2.4-1.87,3.64-.21-.42-.57-.96-.67-.9-4.13,2.37-3.83,5.33-1.77,8.14-.14.64-.25,1.28-.33,1.92-2.62-3.87-3.61-8.82-2.83-13.46.05-.08.09-.16.14-.23ZM112.95,88.93c3.4.47,6.99,1.12,10.58,2.04-1.2-.17-2.4-.32-3.6-.45-5.57-.8-11.22-1.15-16.81-1.11,1.58-.26,3.12-.49,4.63-.68.33-.04.67-.08,1-.12,1.08.06,2.16.13,3.24.21.32.04.64.07.96.12ZM154.45,118.36c-.11.59-.27,1.16-.46,1.7.62-3.18.3-6.44-.68-9.58-.14-.81-.33-1.62-.57-2.41,1.7,2.9,2.46,6.31,1.7,10.29ZM60.55,136.81c-.08-.13-.16-.26-.23-.39.51.23,1.03.46,1.56.66-.44-.09-.89-.18-1.33-.27ZM58.16,123.59c.18,1.68.62,3.37,1.37,5.05-.6-.46-1.17-.93-1.68-1.4,0-1.23.1-2.45.31-3.65ZM67.24,106.51c2.7-3.13,5.8-5.94,9.18-8.39,4.03-2.36,8.51-4.18,13.09-5.59,1.64-.19,3.26-.34,4.87-.44,15.06-1.01,30.72,1.15,44.72,6.88,1.21.49,2.55,1.11,3.97,1.83.66.65,1.3,1.31,1.91,2.02,3.39,3.96,5.86,9.04,6.25,14.18-.05,3.51-1,7-2.87,10.03-.12.2-.25.39-.38.58-3.56,2.56-7.95,4.27-11.69,5.55-5.83,1.98-11.86,3.47-17.95,4.5-7.28.16-14.58.06-21.89.02-5.7-.03-11.85.01-17.87-.6-2.2-.53-4.37-1.15-6.51-1.88-.82-.28-1.9-.7-3.1-1.22-1.74-1.27-3.32-2.75-4.68-4.49-3.98-5.1-3.96-11.25-1.67-16.74,1.4-2.23,2.99-4.32,4.63-6.22ZM58.09,130.28c-.12-.74-.21-1.5-.24-2.27,0-.12,0-.24,0-.36.63.57,1.3,1.12,1.99,1.64.32.65.68,1.29,1.09,1.93.35.54.72,1.05,1.12,1.54-.59-.29-1.17-.59-1.74-.92-.8-.46-1.54-.98-2.22-1.56ZM72.55,136.18c-.1-.05-.19-.1-.29-.15.17.06.34.13.51.19-.07-.01-.15-.03-.22-.05ZM136.27,136.52c-3.87.44-7.75.72-11.64.9,4.67-1.02,9.29-2.33,13.79-3.85,2.46-.83,4.92-1.8,7.25-2.99-1.03,1.15-2.16,2.22-3.35,3.23-.41.29-.83.57-1.25.85-1.56.7-3.16,1.32-4.79,1.86ZM55.57,124.43c-1.05-2.02-.74-4.06,1.97-5.88-.82,1.9-1.48,3.86-1.97,5.88ZM150.56,127.57c.93-.7,1.83-1.46,2.66-2.28-.43.62-.91,1.22-1.44,1.82-1.19,1.35-2.51,2.54-3.92,3.61.97-.99,1.87-2.04,2.69-3.15ZM98.7,145.47c1.15-.1,2.29-.2,3.44-.32.79.06,1.58.11,2.37.16-.31.04-.62.09-.93.13-1.63.03-3.26.05-4.89.04ZM53.98,108.35c.52-1,1.13-1.95,1.85-2.84.34-.41.7-.8,1.06-1.19,1.9-1.46,3.92-2.76,6.03-3.92-3.14,2.36-6.2,5.02-8.94,7.95ZM50.2,112.87c-.64.87-1.26,1.76-1.83,2.67.77-1.83,1.71-3.56,2.73-5.11-.35.8-.65,1.61-.9,2.44ZM159.91,131.07c-.27.31-.57.61-.86.91-4.48,1.36-9.07,2.38-13.61,3.21,1.93-.9,3.83-1.85,5.69-2.86,3.98-2.15,7.87-5.07,10.98-8.48,0,.1,0,.2,0,.3-.07,2.41-.74,4.56-1.82,6.47-.12.15-.25.3-.38.45ZM44.25,135.55c.11.27.23.52.36.78-1.36-.7-2.69-1.45-3.96-2.26h0c1.18.53,2.38,1.02,3.6,1.48ZM46.18,139.2c.23.1.46.2.68.3.71.74,1.51,1.42,2.38,2.04-1.36-.74-2.68-1.57-3.93-2.5-.23-.17-.45-.36-.67-.54.52.24,1.04.48,1.54.7ZM165.82,112.97c-2.69-7.26-9.4-13.13-16.37-17.38-.43-.36-.86-.72-1.3-1.06,1.36.62,2.71,1.28,4.02,1.98,4.69,2.51,10.03,6.98,13.56,12.11.22,1.39.26,2.85.09,4.35ZM124.16,84.49c-3.13-.39-6.22-.59-9.27-.6-.61-.12-1.23-.25-1.84-.35,5.61-.85,11.33-1.31,16.99-1.19,8.8,2.08,17.26,5.41,24.56,10.7.51.37,1.01.75,1.51,1.14-9.55-5.69-21.22-8.36-31.95-9.71ZM71.91,92.57c-1.02.21-2.03.43-3.04.67,1.33-.89,2.68-1.75,4.04-2.59,2.28-.36,4.57-.68,6.85-.95-2.65.82-5.28,1.77-7.85,2.87ZM68.29,94.27c-1.38.7-2.73,1.45-4.04,2.26.87-.65,1.74-1.29,2.63-1.91.47-.12.94-.24,1.41-.35ZM38.13,127.72c-.07.29-.12.59-.18.88-.15-.09-.29-.19-.44-.29-1.54-4.54-1.67-9.58-.38-14.49.84-3.2,2.21-6.18,3.96-8.94,4.98-3.14,10.82-5.33,15.85-7.2,1.48-.55,2.98-1.06,4.49-1.53-10.29,8.13-20.43,18.67-23.31,31.57ZM159.45,135.24c1.91-.64,3.79-1.34,5.62-2.13-.04.03-.08.06-.13.09-2.39,1.57-4.97,2.83-7.66,3.88.75-.59,1.47-1.2,2.16-1.85ZM167.26,128.97c3.65-3.83,5.66-8.68,5.02-14.09-.41-3.46-1.87-6.7-3.87-9.61-.49-2.27-1.46-4.58-3.03-6.88-4.14-6.07-11.1-10.34-17.65-13.45,3.66,1.08,7.18,2.52,10.51,4.4,12.79,7.23,20.86,25.53,12.88,37.77-1.26.66-2.55,1.28-3.86,1.85ZM95.79,83.92c-2.03.66-4.04,1.37-6.03,2.13-3.61.28-7.24.68-10.87,1.19,2.34-1.24,4.72-2.39,7.14-3.44,3.26-.11,6.53-.06,9.77.13ZM72.63,88.23c-6.56,1.16-13.08,2.71-19.44,4.66,2.07-1.36,4.24-2.55,6.45-3.55,6.15-2.75,12.87-4.34,19.76-5.08-2.3,1.25-4.56,2.58-6.77,3.97ZM67.6,91.57c-.86.6-1.72,1.22-2.56,1.84-.53.39-1.06.79-1.59,1.2-1.72.47-3.43.97-5.13,1.52-3.96,1.27-9.8,3.28-15.34,6.1,1.63-2.1,3.48-4.04,5.51-5.79,6.22-2.04,12.65-3.64,19.12-4.86ZM43.96,98.66c-1.74,1.71-3.36,3.62-4.81,5.67-5.22,3.15-9.66,7.08-11.2,11.85-.87-3.84-.29-7.9,1.31-11.59,1.68-.94,3.36-1.76,4.89-2.48,3.54-1.68,7.2-3.18,10.95-4.51-.38.35-.77.7-1.14,1.06ZM102.24,151.58c-15.78,3.72-41.67,7.37-54.78-5.29.75.16,1.5.32,2.25.47,6.26,1.22,12.6,1.88,18.96,2.25.94.27,1.84.54,2.67.82.34.11.84-.18,1.31-.62,1.66.07,3.31.12,4.97.17,4.57.5,9.24.5,13.86.24.54,0,1.08.02,1.61.03,5.42.09,10.84.18,16.25.14-2.37.65-4.74,1.25-7.1,1.81ZM157.11,140.53c-4.49,1.68-9.13,2.92-13.85,3.85,1.16-.4,2.31-.81,3.45-1.26,1.7-.68,3.42-1.49,5.1-2.42,6.51-2.08,12.94-5.26,17.72-9.7,1.32-.69,2.62-1.43,3.88-2.22,1.41-.88,2.67-1.86,3.8-2.92-4.15,6.88-12.5,11.83-20.1,14.67ZM181.67,108.41c.14.62.24,1.23.31,1.82-.4-2.2-1.14-4.42-2.23-6.61-1.98-3.98-4.69-7.56-7.82-10.79,4.72,3.88,8.28,9,9.74,15.58ZM114.33,76.06c7.48-.85,15.39-.89,22.71,1.06,1.18.31,2.35.68,3.5,1.07-5.16-.36-10.38-.35-15.59.02-.06,0-.12-.02-.17-.03-4.75-.78-9.59-1.29-14.45-1.57,1.33-.21,2.66-.4,4-.55ZM32.31,99.49c8.26-10.51,24.15-14.79,36.6-17.43,6.79-1.44,13.72-2.29,20.68-2.66-2.23.93-4.42,1.93-6.58,3-2.27.22-4.53.51-6.77.87-9.72,1.58-19.09,5.05-26.96,10.87-4.43,1.49-8.77,3.18-12.98,5.07-1.77.8-3.75,1.77-5.76,2.89.53-.91,1.13-1.78,1.78-2.61Z"/>
</svg>