<?xml version="1.0" encoding="UTF-8"?>
<svg id="Layer_1" data-name="Layer 1" xmlns="http://www.w3.org/2000/svg" viewBox="0 0 195.69 213.77">
  <defs>
    <style>
      .cls-1 {
        fill: #fff;
        stroke-width: 0px;
      }
    </style>
  </defs>
  <path class="cls-1" d="M134.33,86.28c1.99-.17,2.23.13,2.5,2.07.09.68.56,1.39,1.05,1.91.75.81,1.71,1.42,2.47,2.23.41.44.7,1.08.81,1.67.29,1.53.43,3.09.65,4.63.09.64.06.96-.8,1.05-1.5.15-3,.49-4.44.94-.46.14-1.04.89-1.03,1.36.02,2.29-.47,4.61.33,6.88.2.58-.05,1.32-.1,2.22.6-.08,1.16-.14,1.71-.24,1.32-.24,2.16.33,1.98,1.59-.24,1.61.62,2.59,1.73,3.39,1.25.9,1.9,1.88,1.74,3.54-.14,1.43.21,2.91.34,4.36-3.61.76-7.08,1.45-10.54,2.24-1.43.33-2.84.79-4.21,1.33-1.76.7-2.52.53-3.49-1.09-.25-.41-.38-.91-.69-1.25-.28-.31-.74-.45-1.13-.67-.15.37-.42.75-.42,1.12.01,1.07.11,2.15.22,3.22.06.69-.13.89-.89,1.03-2.42.44-4.81,1.07-7.22,1.6-2.61.58-5.22,1.13-7.83,1.68-.19.04-.43.09-.58.02-1.33-.66-1.34.1-1.13,1.18-2.57.71-5.13,1.47-7.71,2.09-.49.12-1.13-.25-1.65-.5-.42-.2-.74-.65-1.17-.82-.49-.2-1.13-.44-1.57-.28-.77.28-1.6.81-1.37,1.85.28,1.28-.2,1.75-1.45,2.01-1.34.28-2.61.74-3.38,2.18-.45.85-1.43,1.34-2.62,1.43-1.28.1-2.51.67-3.78.95-1.62.36-3.26.63-4.89.94-2.66.51-5.35.91-7.97,1.59-2.39.62-3.37.45-4.98-1.44-.56-.66-1.11-1.42-1.83-1.83-1.35-.78-1.7-1.86-1.82-3.34-.22-2.86-.81-5.69-1.01-8.55-.27-4.06-.31-8.13-.49-12.2-.09-2.11-.56-4.24-.38-6.33.39-4.63-.56-9.14-.81-13.71-.08-1.45-.52-2.9-.89-4.32-.53-2,.17-3.52,2.17-4.18,1.73-.56,3.54-.86,5.26-1.45,2.29-.78,4.52-1.73,6.77-2.62.92-.37,1.84-.75,2.74-1.16.63-.29,1.22-.67,1.86-.93.37-.15.8-.25,1.2-.23.86.04,1.73.08,2.57.27,1.03.24,1.7-.41,2.53-.75,1.64-.67,3.35-1.24,5.07-1.65,2.12-.5,4.28-.91,6.49-.35.21.05.57-.1.74-.27,1.88-1.89,4.54-2.2,6.8-3.31.27-.13.94.07,1.11.32.51.75.93.46,1.6.23,1.83-.63,3.72-1.11,5.59-1.62,2-.54,4-1.06,6.01-1.57,1.14-.29,2.38-.16,3.34-1.19.37-.4,1.26-.3,1.91-.45.34-.08.8-.09.97-.31,1.21-1.67,3.13-1.46,4.76-1.59,2.11-.18,3.9-1.01,5.74-1.84,1.05-.47,2.04-1.07,3.12-1.45,1.3-.45,2-.1,2.17,1.22.29,2.24,1.52,3.78,3.24,5.1.36.28.63.85.68,1.31.16,1.63.24,3.27.26,4.9,0,.28-.4.74-.7.83-1.27.36-2.57.59-3.85.89-1.44.33-1.69.72-1.53,2.15.07.63.08,1.26.12,1.97ZM87.76,84.17c-.96.24-1.98.5-2.99.76-1.37.35-2.74.74-4.12,1.03-1.1.23-1.57.84-1.47,2,.06.71.03,1.43.02,2.15-.02,1.39-.16,2.79-.07,4.18.23,3.54.63,7.08.84,10.62.23,3.86.33,7.72.5,11.58.11,2.46.21,4.93.37,7.39.17,2.67.39,5.34.64,8,.03.32.44.85.7.86,1.21.05,2.7-1.6,2.68-2.85-.05-2.55-.08-5.1-.19-7.65-.14-3.42-.26-6.84-.55-10.25-.22-2.56,1.31-4.29,3.82-4.04.34.03.72,0,1.05-.09,1.31-.36,1.89.05,1.91,1.4,0,.36-.02.72.04,1.06.41,2.43.96,4.84,1.23,7.28.38,3.48.6,6.99,1.5,10.39.32,1.22,1.63,1.57,2.72.94,1.53-.89,2.33-1.95,1.69-3.74-.05-.14.03-.32,0-.48-.36-1.91-.71-3.82-1.11-5.73-.47-2.28-1.16-4.53-1.44-6.83-.23-1.85-.57-3.61-1.56-5.18-.38-.6-1.04-1.14-1.7-1.4-1.24-.49-1.75-1.44-1.01-2.56.62-.95,1.45-1.76,2.11-2.7.45-.64,1-1.35,1.08-2.08.38-3.62,1.03-7.25.18-10.89-.18-.78.05-1.92-1.13-2.16-1.85-.38-3.73-.68-5.74-1.04ZM103.43,124.74c1.79-.46,3.29-.82,4.77-1.24,2.52-.72,5.04-1.43,7.52-2.26.31-.1.38-.92.56-1.4-.41-.07-.82-.2-1.23-.18-.45.03-.9.27-1.35.29-1.42.06-2.83-.16-4.2.57-.67.35-1.45.07-1.55-.93-.46-4.67-1.03-9.33-1.32-14.01-.11-1.72.46-3.51,1.99-3.97,1.33-.4,2.6-1,3.91-1.47,1.62-.58,1.81-.81,1.79-2.5,0-.36-.04-.72-.04-1.08,0-.76-.31-1.02-1.05-.73-1.07.42-2.18.77-3.23,1.22-1.71.74-3.17-.19-3.39-2.01-.33-2.75-.77-5.5-1.28-8.23-.32-1.68.71-3.5,2.36-4.11,1.67-.61,3.3-1.34,4.88-2.14.43-.22.69-.9.86-1.42.05-.17-.45-.75-.67-.74-.73.04-1.45.26-2.17.43-2.36.57-4.72,1.12-7.06,1.76-.44.12-1.02.57-1.12.97-.21.84-.2,1.74-.17,2.62.16,6.19.37,12.37.5,18.56.1,4.94.05,9.88.16,14.82.05,2.36.34,4.71.54,7.2ZM61.55,128.45c-.1.02-.2.04-.3.06.58,2.56,1.13,5.13,1.78,7.67.11.44.68.76,1.03,1.14.31-.46.83-.89.89-1.38.11-.85-.09-1.74-.1-2.61-.01-3.98,0-7.96,0-11.94,0-2.37-.04-4.74-.04-7.12,0-.29.1-.73.29-.84,1.05-.57,2.1-1.31,3.23-1.51,2.93-.51,4.02-1.42,4.35-4.2.03-.28-.01-.71-.19-.84-.18-.13-.58-.01-.86.07-1.72.47-3.41,1.03-5.15,1.42-1.32.3-2.02-.35-2.14-1.7-.29-3.41-.56-6.82-.89-10.22-.07-.73.25-.94.82-1.22,2.01-1.01,4.3-1.41,6.07-2.99.73-.65.54-1.1.3-1.74-.3-.78-.87-.7-1.48-.49-1.82.66-3.63,1.37-5.47,1.97-.9.29-1.85.45-2.79.53-1.44.12-1.64.3-1.38,1.77.7,3.92,1.4,7.82,1.36,11.85-.04,4.37.22,8.75.33,13.13.06,2.43.06,4.86.12,7.29.02.63.14,1.26.22,1.89ZM123.87,116.01c-.05,0-.1,0-.15,0,0,.56-.06,1.12.01,1.68.21,1.67.69,1.95,2.31,1.54.69-.18,1.47-.47,2.1-.3,1.64.42,2.91-.27,4.28-.93.77-.37,1.64-.59,2.48-.75.66-.12,1.34-.08,1.33-.99,0-.9-.63-1.14-1.38-1.13-1.47.03-3.02-.53-4.34.69-.3.28-.91.28-1.39.29-1.44.03-2.04-.59-2.05-2.02,0-1.11-.02-2.22-.08-3.33-.18-3.66-.34-7.32-.6-10.98-.16-2.22.23-4.23,2.2-5.44,1.38-.85,3-1.29,4.5-1.94.24-.1.56-.34.59-.55.1-.68-.81-1.7-1.5-1.64-1.38.12-2.76.29-4.12.55-1.92.37-2.54-.1-2.48-2.03,0-.36,0-.72-.04-1.08-.24-2.85-.52-5.69-.72-8.54-.13-1.77,1.11-3.17,2.82-3.56,1.78-.41,3.55-.92,5.3-1.46.28-.09.66-.63.61-.87-.32-1.48-1.12-1.85-2.43-1.12-1.95,1.08-4.02,1.7-6.22,1.95-2.03.24-2.23.56-1.68,2.54.04.15.11.31.1.46-.18,2.1-.29,4.21-.6,6.29-.46,3.09-.67,6.17-.29,9.29.28,2.33.68,4.66.8,7,.28,5.45.43,10.9.63,16.35Z"/>
  <path class="cls-1" d="M87.76,84.17c2.01.36,3.88.66,5.74,1.04,1.18.24.95,1.38,1.13,2.16.86,3.63.2,7.27-.18,10.89-.08.73-.63,1.44-1.08,2.08-.65.93-1.48,1.75-2.11,2.7-.74,1.12-.23,2.07,1.01,2.56.66.26,1.32.81,1.7,1.4.99,1.56,1.34,3.32,1.56,5.18.28,2.3.96,4.55,1.44,6.83.4,1.9.75,3.82,1.11,5.73.03.15-.05.34,0,.48.64,1.8-.15,2.86-1.69,3.74-1.09.63-2.4.28-2.72-.94-.91-3.41-1.12-6.91-1.5-10.39-.27-2.44-.82-4.85-1.23-7.28-.06-.35-.04-.71-.04-1.06-.01-1.35-.6-1.77-1.91-1.4-.33.09-.71.13-1.05.09-2.51-.25-4.04,1.48-3.82,4.04.29,3.41.41,6.83.55,10.25.1,2.55.13,5.1.19,7.65.03,1.25-1.46,2.89-2.68,2.85-.25,0-.67-.54-.7-.86-.26-2.66-.47-5.33-.64-8-.16-2.46-.26-4.93-.37-7.39-.17-3.86-.26-7.73-.5-11.58-.21-3.54-.61-7.08-.84-10.62-.09-1.39.05-2.79.07-4.18.01-.72.04-1.44-.02-2.15-.1-1.16.37-1.77,1.47-2,1.39-.29,2.75-.69,4.12-1.03,1.01-.26,2.03-.52,2.99-.76ZM83.32,94.01c.31,2.64.67,5.4.95,8.18.14,1.39.28,1.59,1.67,1.41.46-.06.96-.21,1.33-.47,1.21-.9,2.53-1.73,3.51-2.85.86-.98,1.72-2.25,1.87-3.49.36-2.92.06-5.87-1.11-8.64-.68-1.61-2.85-2.32-3.85-1.22-.85.93-1.89,1.23-2.96,1.65-.45.18-1,.71-1.07,1.14-.22,1.36-.23,2.75-.34,4.28Z"/>
  <path class="cls-1" d="M103.43,124.74c-.19-2.49-.48-4.84-.54-7.2-.11-4.94-.06-9.88-.16-14.82-.12-6.19-.34-12.37-.5-18.56-.02-.87-.03-1.78.17-2.62.1-.4.67-.85,1.12-.97,2.34-.64,4.7-1.19,7.06-1.76.72-.17,1.44-.39,2.17-.43.22-.01.72.57.67.74-.17.52-.43,1.2-.86,1.42-1.58.81-3.21,1.53-4.88,2.14-1.65.61-2.68,2.44-2.36,4.11.51,2.73.95,5.47,1.28,8.23.22,1.82,1.68,2.74,3.39,2.01,1.06-.46,2.16-.8,3.23-1.22.74-.29,1.05-.03,1.05.73,0,.36.03.72.04,1.08.02,1.69-.16,1.92-1.79,2.5-1.31.47-2.58,1.07-3.91,1.47-1.53.46-2.09,2.26-1.99,3.97.29,4.68.86,9.34,1.32,14.01.1,1,.88,1.28,1.55.93,1.37-.73,2.79-.5,4.2-.57.45-.02.9-.26,1.35-.29.4-.02.82.11,1.23.18-.18.48-.25,1.3-.56,1.4-2.48.83-5,1.55-7.52,2.26-1.48.42-2.98.78-4.77,1.24Z"/>
  <path class="cls-1" d="M61.55,128.45c-.07-.63-.2-1.26-.22-1.89-.06-2.43-.06-4.86-.12-7.29-.11-4.38-.37-8.75-.33-13.13.04-4.03-.67-7.93-1.36-11.85-.26-1.47-.06-1.65,1.38-1.77.94-.08,1.9-.24,2.79-.53,1.84-.6,3.64-1.32,5.47-1.97.61-.22,1.18-.29,1.48.49.24.64.43,1.09-.3,1.74-1.77,1.58-4.06,1.97-6.07,2.99-.57.29-.89.49-.82,1.22.33,3.4.6,6.81.89,10.22.11,1.35.81,1.99,2.14,1.7,1.74-.39,3.43-.95,5.15-1.42.28-.08.69-.2.86-.07.18.13.22.56.19.84-.33,2.78-1.42,3.69-4.35,4.2-1.13.2-2.18.94-3.23,1.51-.2.11-.29.55-.29.84,0,2.37.04,4.74.04,7.12,0,3.98-.01,7.96,0,11.94,0,.87.21,1.76.1,2.61-.06.49-.58.92-.89,1.38-.35-.38-.92-.7-1.03-1.14-.65-2.54-1.2-5.11-1.78-7.67.1-.02.2-.04.3-.06Z"/>
  <path class="cls-1" d="M123.87,116.01c-.2-5.45-.35-10.91-.63-16.35-.12-2.34-.51-4.67-.8-7-.38-3.11-.17-6.19.29-9.29.31-2.08.41-4.19.6-6.29.01-.15-.06-.31-.1-.46-.55-1.99-.34-2.31,1.68-2.54,2.2-.26,4.27-.87,6.22-1.95,1.32-.73,2.11-.36,2.43,1.12.05.25-.33.79-.61.87-1.75.54-3.51,1.05-5.3,1.46-1.71.39-2.95,1.8-2.82,3.56.2,2.85.48,5.69.72,8.54.03.36.05.72.04,1.08-.05,1.93.56,2.4,2.48,2.03,1.36-.26,2.74-.43,4.12-.55.7-.06,1.6.95,1.5,1.64-.03.21-.35.44-.59.55-1.5.65-3.12,1.09-4.5,1.94-1.96,1.21-2.36,3.22-2.2,5.44.26,3.66.42,7.32.6,10.98.06,1.11.07,2.22.08,3.33,0,1.42.6,2.05,2.05,2.02.47-.01,1.08-.01,1.39-.29,1.32-1.22,2.87-.66,4.34-.69.75-.01,1.38.22,1.38,1.13,0,.91-.67.87-1.33.99-.85.15-1.71.37-2.48.75-1.36.66-2.64,1.35-4.28.93-.63-.16-1.41.12-2.1.3-1.62.42-2.11.13-2.31-1.54-.07-.55-.01-1.12-.01-1.68.05,0,.1,0,.15,0Z"/>
  <path class="cls-1" d="M83.32,94.01c.1-1.53.12-2.93.34-4.28.07-.44.62-.97,1.07-1.14,1.07-.42,2.11-.72,2.96-1.65,1-1.1,3.17-.39,3.85,1.22,1.17,2.76,1.47,5.72,1.11,8.64-.15,1.23-1.01,2.51-1.87,3.49-.98,1.12-2.29,1.95-3.51,2.85-.36.27-.87.42-1.33.47-1.39.17-1.53-.03-1.67-1.41-.28-2.77-.64-5.54-.95-8.18Z"/>
</svg>