<?xml version="1.0" encoding="UTF-8"?>
<svg id="Layer_1" data-name="Layer 1" xmlns="http://www.w3.org/2000/svg" viewBox="0 0 195.69 213.77">
  <defs>
    <style>
      .cls-1 {
        fill: #fff;
        stroke-width: 0px;
      }
    </style>
  </defs>
  <path class="cls-1" d="M97.72,70.45c.03.4.08.75.07,1.1-.05,1.01.12,1.83,1.35,2.02.26.04.54.34.7.59.21.33.28.74.46,1.09,1.42,2.84,2.19,3.02,4.66,1.1.12-.1.2-.26.34-.34,1.8-.97,3.51-2.41,5.43-2.78,2.3-.45,4.31-1.56,6.53-2.07,2.22-.51,4.46-.13,6.43.91.9.47,1.64,1.56,2.07,2.54,1.03,2.38,1.95,4.83,2.71,7.31.73,2.41,1.25,4.89,1.76,7.37.26,1.26.34,2.56.43,3.85.19,2.77.03,5.6.57,8.3.87,4.33.42,8.66.24,12.95-.08,1.76-.66,3.6-.69,5.45-.02,1.08.06,2.16,0,3.24-.16,2.77-.09,5.59-.64,8.28-.56,2.71-.46,5.59-1.92,8.11-1.01,1.75-2.25,3.18-4.17,3.91-2.02.76-4.03,1.56-6.09,2.18-.7.21-1.56-.03-2.33-.15-1.33-.21-2.71-.34-3.98-.77-1.7-.58-2.82-2-3.97-3.29-.72-.8-1.33-1.69-2.02-2.52-.45-.54-1.01-1.07-1.73-.54-.65.48-.62,1.12-.35,1.92.31.91.34,1.94.38,2.92,0,.21-.41.6-.67.64-2.07.34-4.15.64-6.24.89-.85.11-1.72.04-2.57.12-1.56.16-3.09-.05-4.6,1-1.07.75-2.7.76-4.1.95-2.7.36-5.18,1.22-7.32,2.92-1.59,1.26-4.31,1.2-5.13-1.22-.61-1.79-1.24-3.53-1.51-5.43-.28-1.95-1.01-3.84-1.47-5.77-.14-.58-.03-1.22-.02-1.83,0-.27.19-.61.08-.79-1.07-1.78-.69-3.8-1.01-5.7-.58-3.45-.81-6.98-1.72-10.33-1.14-4.21-1.24-8.5-1.75-12.75-.68-5.67-1.11-11.38-1.86-17.05-.29-2.19,0-4.17.83-6.11.74-1.71,2.14-3,3.84-3.52,1.97-.59,4.1-.66,6.16-.94.62-.08,1.25-.17,1.88-.16,1.48.03,2.98.02,4.45.19,1.83.21,2.5-.36,2.33-2.19-.14-1.54.31-2.29,1.83-2.73,2.37-.69,4.75-1.31,7.14-1.92,1.38-.35,2.78-.63,4.18-.92.3-.06.61,0,1.01,0ZM71.4,111.8h-.04c.09.64.14,1.28.26,1.9.32,1.72.71,3.44.99,5.17.42,2.64.73,5.3,1.17,7.93.62,3.69,1.43,7.35,3.04,10.75.28.6,1.26,1.2,1.93,1.22.9.02.56-.94.51-1.54-.25-2.86-.44-5.72-.79-8.57-.66-5.39-1.39-10.77-2.12-16.15-.23-1.7-.62-3.39-.74-5.09-.04-.58.4-1.46.88-1.73.5-.27,1.44-.17,1.97.14,1.23.72,1.94,1.71,2.23,3.34.6,3.31,1.59,6.57,2.67,9.77,1.79,5.33,3.74,10.61,5.73,15.86.22.58,1.2,1.23,1.83,1.23,1.66,0,3.32-.33,4.97-.54,1.02-.13,1.39-.7,1.33-1.74-.22-3.61-.35-7.22-.55-10.83-.1-1.8-.18-3.6-.42-5.38-.48-3.63-1.09-7.25-1.6-10.88-.49-3.47-.92-6.96-1.37-10.44-.22-1.73-.42-3.47-.63-5.2-.15-1.22-.27-2.44-.47-3.65-.37-2.26-.79-4.51-1.21-6.75-.05-.27-.24-.67-.43-.71-.23-.05-.65.14-.78.36-.21.36-.4.83-.35,1.23.14,1.08.47,2.13.61,3.21.19,1.5.28,3.02.41,4.53.13,1.43.33,2.85.4,4.29.13,2.61.03,5.25.3,7.85.44,4.35,1.17,8.68,1.61,13.03.09.89-.45,1.89-.87,2.75-.13.28-.83.48-1.21.41-.69-.13-1.4-.4-1.98-.8-.56-.38-1.23-.92-1.39-1.52-1.57-5.86-3-11.75-4.55-17.61-.83-3.15-1.22-6.45-3.02-9.29-.12-.19-.12-.46-.13-.69-.08-1.11-.98-2.3-2.1-2.34-2.45-.09-4.91-.04-7.36.07-.32.02-.83.77-.85,1.2-.06,1.31.03,2.63.14,3.93.21,2.57.49,5.14.72,7.71.22,2.42.39,4.84.61,7.26.19,2.1.43,4.2.65,6.3ZM102.35,115.37c-.08,0-.15,0-.23,0,.05,1.03-.03,2.09.17,3.1.41,2.1,1.04,4.15,1.43,6.25.32,1.73.3,3.58,1.53,4.96.93,1.05,1.46,2.36,2.69,3.26,1.46,1.06,2.74,2.26,4.68,2.31.87.03,1.76.42,2.59.3,2.45-.38,4.63-1.54,5.94-3.62,1.07-1.71,1.57-3.78,2.39-5.66,1.33-3.06,1.76-6.29,1.86-9.58.09-3.39.24-6.78.04-10.16-.24-4.17-.81-8.33-1.24-12.49-.21-1.98-.3-3.98-.67-5.93-.59-3.04-1.34-6.06-2.1-9.07-.12-.46-.58-1.05-.99-1.17-.85-.24-1.78-.28-2.67-.24-.74.04-1.47.45-2.21.46-2.16.03-4.2.5-6.02,1.62-1.61.99-3.43,1.78-4.34,3.64-.54,1.11-1.2,2.17-1.72,3.29-.35.75-.74,1.56-.81,2.36-.32,3.65-.64,7.3-.73,10.96-.06,2.42.34,4.85.41,7.28.08,2.71.02,5.42.02,8.13Z"/>
  <path class="cls-1" d="M71.4,111.8c-.22-2.1-.45-4.2-.65-6.3-.22-2.42-.39-4.84-.61-7.26-.23-2.57-.51-5.14-.72-7.71-.11-1.31-.2-2.63-.14-3.93.02-.43.54-1.18.85-1.2,2.45-.12,4.91-.16,7.36-.07,1.12.04,2.02,1.23,2.1,2.34.02.23.02.51.13.69,1.8,2.84,2.19,6.14,3.02,9.29,1.55,5.86,2.98,11.75,4.55,17.61.16.6.83,1.14,1.39,1.52.58.4,1.29.66,1.98.8.38.07,1.08-.13,1.21-.41.42-.87.96-1.87.87-2.75-.44-4.35-1.17-8.68-1.61-13.03-.27-2.6-.17-5.23-.3-7.85-.07-1.43-.26-2.86-.4-4.29-.14-1.51-.22-3.03-.41-4.53-.14-1.08-.47-2.13-.61-3.21-.05-.39.13-.87.35-1.23.13-.21.55-.41.78-.36.19.04.38.44.43.71.42,2.25.84,4.5,1.21,6.75.2,1.21.32,2.43.47,3.65.21,1.73.41,3.47.63,5.2.45,3.48.88,6.96,1.37,10.44.51,3.63,1.12,7.25,1.6,10.88.24,1.78.32,3.58.42,5.38.2,3.61.33,7.22.55,10.83.06,1.04-.31,1.61-1.33,1.74-1.66.21-3.32.54-4.97.54-.63,0-1.61-.65-1.83-1.23-2-5.25-3.94-10.53-5.73-15.86-1.08-3.2-2.07-6.46-2.67-9.77-.29-1.62-1-2.62-2.23-3.34-.53-.31-1.47-.41-1.97-.14-.48.26-.92,1.15-.88,1.73.12,1.71.51,3.39.74,5.09.73,5.38,1.46,10.76,2.12,16.15.35,2.85.54,5.71.79,8.57.05.6.39,1.56-.51,1.54-.67-.01-1.64-.62-1.93-1.22-1.61-3.4-2.42-7.06-3.04-10.75-.44-2.64-.75-5.29-1.17-7.93-.28-1.73-.67-3.44-.99-5.17-.12-.63-.18-1.26-.26-1.9h.04Z"/>
  <path class="cls-1" d="M102.35,115.37c0-2.71.06-5.42-.02-8.13-.07-2.43-.47-4.86-.41-7.28.09-3.66.42-7.31.73-10.96.07-.81.46-1.61.81-2.36.52-1.12,1.18-2.18,1.72-3.29.91-1.86,2.73-2.65,4.34-3.64,1.82-1.12,3.86-1.59,6.02-1.62.74-.01,1.47-.42,2.21-.46.89-.04,1.82,0,2.67.24.42.12.88.71.99,1.17.76,3.01,1.51,6.02,2.1,9.07.37,1.95.46,3.95.67,5.93.43,4.16,1,8.32,1.24,12.49.2,3.37.05,6.77-.04,10.16-.09,3.28-.53,6.52-1.86,9.58-.82,1.88-1.32,3.95-2.39,5.66-1.31,2.09-3.49,3.25-5.94,3.62-.83.13-1.72-.27-2.59-.3-1.94-.06-3.22-1.25-4.68-2.31-1.23-.89-1.76-2.21-2.69-3.26-1.22-1.38-1.21-3.23-1.53-4.96-.39-2.1-1.02-4.15-1.43-6.25-.2-1.01-.12-2.06-.17-3.1.08,0,.15,0,.23,0ZM120.52,104.46c-.08,0-.17,0-.25,0,0-1.28.02-2.56,0-3.83-.05-3.55.05-7.12-.24-10.65-.17-2.08-.61-4.18-3.29-4.98-2.65-.79-5.06.08-5.96,2.75-1.62,4.8-2.41,9.75-2.51,14.81-.03,1.59-.31,3.18-.26,4.77.13,4.11.26,8.22.61,12.31.26,3.02.32,6.19,2.56,8.66.55.61,1.07,1.58,1.73,1.69.9.15,2.03-.15,2.85-.63,2.34-1.38,3.95-3.35,4.06-6.23.24-6.22.47-12.44.7-18.65Z"/>
  <path class="cls-1" d="M120.52,104.46c-.23,6.22-.46,12.44-.7,18.65-.11,2.88-1.73,4.85-4.06,6.23-.81.48-1.95.78-2.85.63-.65-.11-1.17-1.08-1.73-1.69-2.24-2.47-2.3-5.64-2.56-8.66-.36-4.09-.48-8.2-.61-12.31-.05-1.58.22-3.18.26-4.77.1-5.06.89-10.01,2.51-14.81.9-2.67,3.31-3.54,5.96-2.75,2.68.8,3.12,2.9,3.29,4.98.29,3.53.19,7.1.24,10.65.02,1.28,0,2.56,0,3.83.08,0,.17,0,.25,0Z"/>
</svg>