<?xml version="1.0" encoding="UTF-8"?>
<svg id="Layer_1" data-name="Layer 1" xmlns="http://www.w3.org/2000/svg" viewBox="0 0 195.69 213.77">
  <defs>
    <style>
      .cls-1 {
        fill: #fff;
        stroke-width: 0px;
      }
    </style>
  </defs>
  <path class="cls-1" d="M87.26,99.06c-2.18,3.17.02,7.26,2.12,9.71,2.11,2.45,4.94,4.85,7.82,6.82-.3.55-.61,1.1-.9,1.67-1.32,2.65-1.2,2.6.75,4.95,0,0,.21.26.26.2,1.2-1.42,2.09-3.14,2.93-4.9.06.03.11.07.17.1.54.3,3.5.4,3.24.15-.79-.75-1.65-1.41-2.57-2.02.52-1.1,1.05-2.19,1.65-3.2,1.52-2.55,2.74-5.08,3.3-8.01.72-3.78-.59-8.8-3.82-11.13-1.94-1.41-4.52-2.45-6.94-1.93-3.7.79-2.05,4.69-.56,7.15-2.55-1.69-5.63-2.21-7.46.44ZM97.22,102.65c.2.38,1.72,1.55,1.71,1.49-.27-1.49-1.43-3.19-2.94-4.53.09-2.18-.79-4.27.9-6.2,3.28-3.75,5.83,4.75,6.11,6.6.67,4.42-1.74,8.57-3.88,12.23-.33.57-.66,1.13-.98,1.7-3.29-1.93-6.62-3.82-8.42-7.37-1.07-2.12-.82-5.42,1-7.06,2.53-2.28,5.38.98,6.51,3.14Z"/>
</svg>