<?xml version="1.0" encoding="UTF-8"?>
<svg id="Layer_1" data-name="Layer 1" xmlns="http://www.w3.org/2000/svg" viewBox="0 0 195.69 213.77">
  <defs>
    <style>
      .cls-1 {
        fill: #fff;
        stroke-width: 0px;
      }
    </style>
  </defs>
  <path class="cls-1" d="M102.41,114.09c3.47-1.19,4.17-4.91,1-7.05-3.3-2.23-8.03-2.6-10.93.54-5.04,5.48,8.84,11.85,11.57,14.57,1.29,1.28,3.29-.7,2-1.98-3.07-3.05-7.2-4.84-10.25-7.96-5.42-5.54,11.37-4.47,5.97.76-.46.44,0,1.36.64,1.13h0Z"/>
  <path class="cls-1" d="M104.65,111.36c2.39-.64,4.37-1.74,6.42-3.1-.45-.27-.89-.53-1.34-.8-.27,2.84-1.58,5.17-3.05,7.56-.94,1.53-3.09,3.66-2.34,5.57.16.41.51.7.98.59,2.22-.54,3.51-4.39,4.48-6.24,1.25-2.37,2-5,1.69-7.68-.1-.89-1.24-.76-1.65-.24-1.36,1.77-3.38,2.97-5.39,3.87-.26.12-.08.53.18.46h0Z"/>
</svg>