<?xml version="1.0" encoding="UTF-8"?>
<svg id="Layer_1" data-name="Layer 1" xmlns="http://www.w3.org/2000/svg" viewBox="0 0 247.11 91.55">
  <defs>
    <style>
      .cls-1 {
        fill: #000;
      }

      .cls-1, .cls-2 {
        stroke-width: 0px;
      }

      .cls-2 {
        fill: #fff;
      }
    </style>
  </defs>
  <path class="cls-1" d="M9.21,23.98c0-1.68,0-3.36,0-5.04.14-.32.3-.63.43-.96.29-.72.53-1.46.85-2.17.26-.58.71-1.08.9-1.68.52-1.64,1.51-2.82,2.96-3.74,1.92-1.22,3.76-2.52,6.12-2.8,1.3-.16,2.66-.28,3.84-.79,3.03-1.33,5.47-.49,7.76,1.6,2.59,2.38,3.74,5.61,5.26,8.63.81,1.61,1.56,3.24,2.35,4.86.1-.03.19-.05.29-.08.21-2.82.41-5.64.62-8.46.07-.87.09-1.75.24-2.61.21-1.22.79-1.73,2.04-1.72,1.63.02,3.27.1,4.9.25,2.36.22,4.64.75,6.38,2.54.52.54.87.49,1.13-.18.46-1.18,1.48-1.47,2.58-1.63,2.35-.34,4.72-.62,7.07-1.01,2.01-.33,2.85.19,3.37,2.15.17.65.51,1.26.86,2.09.5-.91.78-1.57,1.19-2.14.83-1.15,1.6-2.39,3.31-2.39,1.51,0,3.05.05,4.53-.2,2.15-.36,4.13-.31,6.07.89,1.26.78,2.28,1.64,2.84,3.05,1,2.51,1.88,5.1,3.17,7.46,1.26,2.32,1.65,4.8,2.03,7.28.54,3.53.84,7.09,1.26,10.64.1.83.25,1.65.38,2.47.14,0,.28-.02.42-.03,0-5.19.02-10.37-.02-15.56,0-1.15-.26-2.3-.36-3.45-.19-2.1-.4-4.19-.53-6.29-.06-1.03.66-1.81,1.6-1.86,2.11-.11,4.23-.39,6.32-.23,3.61.27,7.03-.64,10.44-1.47,2.49-.61,4.84-1.77,7.27-2.64,1.92-.68,2.89-.13,3.78,1.74.72,1.52,1.62,2.94,2.44,4.41.09-.04.19-.08.28-.12,0-1.19-.02-2.38,0-3.58.02-1.25.66-1.89,1.89-1.97.84-.05,1.67-.13,2.51-.18,1.79-.11,3.58-.28,5.37-.29,1.42-.01,2.83.47,3.39,1.83.71,1.75,1.41,3.62,1.5,5.48.21,4.17,1.54,8.18,1.62,12.36.03,1.69.61,3.37.76,5.06.26,2.9.46,5.81.55,8.71.07,2.11-.08,4.22-.12,6.33-.01.88.03,1.75.04,2.63.02.8.4,1.03,1.21,1.01,2.67-.07,5.35-.18,8.04.72-.34-.57-.64-1.04-.91-1.53-2.69-4.74-5.62-9.37-6.81-14.79-.73-3.3-1.46-6.61-.83-10.04.26-1.44.32-2.92.51-4.38.1-.75.14-1.54.44-2.21,1.38-3.14,3.91-5.15,7.01-6.3,1.99-.74,4.14-1.2,6.26-1.4,3.08-.29,6.16-.13,8.7,2.07.62.54,1.28,1.03,2.05,1.63,0-.69.04-1.24,0-1.78-.1-1.06.47-1.65,1.37-1.98.44-.16.92-.25,1.39-.3,3.21-.33,6.42-.66,9.64-.91.52-.04,1.21.19,1.59.55,2.04,1.86,3.8,3.95,4.92,6.53.23.54.59,1.04.96,1.5,1.03,1.3,2.18,2.51,2.3,4.32.07,1.14.29,2.28.51,3.41.55,2.8,1.12,5.59,1.71,8.37.36,1.74.76,3.48,1.14,5.22.12-.02.25-.04.37-.05-.3-2.85-.57-5.7-.92-8.54-.25-2.05-.64-4.08-.89-6.13-.15-1.19-.17-2.39-.23-3.58-.12-2.47-.35-4.95-.31-7.42.03-1.77.82-3.12,3.07-3.25,1.43-.08,2.9-.16,4.31.02,2.37.3,4.28,1.41,5.14,3.82.23.65.39,1.33.58,1.99.31-1.01.45-2.02.56-3.03.16-1.48,1.11-2.62,2.58-2.83,2.04-.29,4.09-.5,6.14-.71.67-.07,1.36.03,2.04-.02,1.78-.15,3.14.35,3.51,2.14.79-.42,1.47-1.06,2.21-1.12,1.94-.16,3.94-.28,5.85,0,2.04.29,3.98,1,4.9,3.27.99,2.43,2.21,4.77,3.3,7.16.23.49.32,1.05.47,1.57v5.52c-.14.61-.33,1.21-.41,1.83-.38,2.84-.59,5.71-1.12,8.51-.78,4.05-1.97,8.03-2.64,12.1-.71,4.32-1.07,8.7-1.5,13.06-.2,1.98-.1,3.98-.32,5.95-.38,3.4-.9,6.79-1.37,10.18-.16,1.17-1.01,1.72-2.19,1.56-2.24-.31-4.49-.71-6.74-.75-1.54-.03-2.5-.55-3.14-1.87-.82-1.68-1.66-3.35-2.5-5.01-.13-.25-.33-.46-.64-.86-.09.44-.13.62-.16.81-.32,2.08-.62,4.17-.97,6.25-.16.98-.78,1.53-1.79,1.6-1.08.07-2.15.18-3.23.22-2.11.09-4.23.16-6.35.2-.78.02-1.46-.21-1.89-.99-.16-.29-.55-.65-.84-.65-1.51,0-3.04.01-4.53.21-2.1.28-3.51-.42-4.55-2.34-.89-1.65-1.72-3.38-2.91-4.8-1.35-1.59-1.86-3.37-2.15-5.31-.12-.8-.24-1.6-.37-2.4-.15.34-.17.66-.15.98.26,3.69.83,7.37.49,11.1-.03.31.03.64.08.95.22,1.46-.48,2.22-1.93,2.34-1.34.11-2.66.41-3.99.57-.53.06-1.11.06-1.62-.09-1.54-.46-2.14-1.81-2.75-3.12-.62-1.33-1.25-2.66-1.89-3.98-.73-1.5-1.52-2.94-1.55-4.71-.04-1.71-.34-3.41-.52-5.11-.04,2.04-.04,4.08-.04,6.11,0,4.32-3.44,9.27-7.56,10.51-3.22.97-6.56,1.22-9.93.85-2.59-.29-4.73-1.33-6.41-3.32-.12-.14-.27-.25-.45-.41-.22,2.05-.92,2.58-2.98,2.37-.12-.01-.23-.07-.35-.07-3.84.17-7.63-.1-11.33-1.26-.93-.29-1.51-.8-1.89-1.64-1.18-2.57-2.4-5.11-3.54-7.7-.53-1.22-.9-2.51-1.35-3.77-.01.45.08.88.12,1.31.35,3.49.72,6.97,1.01,10.46.1,1.23-.18,1.43-1.4,1.63-1.96.32-3.92.64-5.87,1.01-.83.16-1.42-.16-1.85-.78-1.25-1.79-2.46-3.62-3.72-5.41-.38-.54-.87-1-1.31-1.49-.09.06-.19.12-.28.18-.02.38-.06.77-.06,1.15-.02,1.72,0,3.44-.06,5.16-.08,2.11-.45,2.42-2.5,2.73-1.55.24-3.19.2-4.58,1.12h-4.32c-.29-.37-.54-.78-.88-1.11-.24-.23-.58-.46-.9-.51-2.43-.38-4.86-.72-7.3-1.05-1.55-.21-2.22-1.2-2.8-2.56-1.03-2.41-2.29-4.72-3.44-7.07-.14-.28-.26-.59-.31-.89-.19-1.06-.33-2.12-.52-3.18-.18-1.02-.4-2.03-.6-3.05-.1,0-.21.01-.31.02-.02.33-.05.66-.06.98-.11,4.35-.19,8.69-.33,13.04-.05,1.42-.61,1.87-2.07,1.84-.75-.01-1.5-.1-2.25-.09-1.02.01-2.04.08-3.07.15-1.5.09-2.34-.67-2.85-2.03-.35-.93-.92-1.77-1.5-2.86-.68,1.78-1.18,3.28-1.83,4.72-.2.45-.77.97-1.22,1.02-2.93.32-5.68,1.56-8.67,1.56-1.58,0-1.94-.2-2.59-1.71-.49-1.15-1.09-2.26-1.76-3.64-.28,1.54-.5,2.74-.73,3.93-.31,1.63-.46,1.73-2.14,1.62-2.87-.18-5.65-.84-8.4-1.64-.78-.22-1.2-.66-1.44-1.42-.24-.78-.59-1.52-.89-2.29-.71.52-1.25,1.2-1.92,1.37-1.91.48-3.87,1-5.82,1.05-3.79.1-7.58-.08-11.37-.23-1.68-.06-3.37-.4-4.69-1.5-1.81-1.52-3.29-3.35-4.17-5.59-1.16-2.94-1.69-6.03-2.26-9.12-.52-2.84-.73-5.67-.77-8.55-.03-2.86-.41-5.71-.62-8.57-.04-.48-.05-.96,0-1.44.24-2.1.61-4.18.73-6.29.3-5.33.65-10.67-1.18-15.85ZM197.42,48.77h.22c0,1.28.04,2.56,0,3.84-.21,5.73.11,11.42,1.22,17.06.64,3.24.82,3.47,4.09,3.91.04,0,.08,0,.12.01,3.31.41,4.19-.2,4.54-3.56.48-4.61.77-9.24,1.22-13.85.26-2.66.64-5.32,1.98-7.73.43-.78,1.02-1.26,1.92-1.12.84.13.99.86,1.05,1.55.31,3.62.88,7.25.84,10.87-.04,3.58.64,6.98,1.36,10.42.2.94.66,1.25,1.56,1.22,1.52-.04,3.04-.07,4.55-.02,1.67.06,1.65.1,1.63-1.59-.03-2.72-.14-5.44-.01-8.15.14-2.91.59-5.8.76-8.71.27-4.6.83-9.15,2.21-13.57.39-1.25.66-2.56.81-3.87.59-5.16,1.13-10.33,1.63-15.5.28-2.86-.14-3.34-2.97-3.68-1.59-.2-2.24.32-2.39,1.88-.04.4-.05.8-.06,1.2-.06,4.99-.1,9.99-.17,14.98,0,.47-.03.97-.2,1.41-.51,1.33-1.5,1.47-2.46.44-1.57-1.69-2.21-3.67-2.39-5.97-.33-4.34-.9-8.66-1.37-12.98-.07-.66-.39-1.02-1.08-1.01-1.39.03-2.79-.02-4.18.1-1.15.1-1.81.87-2.01,2.05-.25,1.54-.5,3.08-.7,4.62-.49,3.6-.95,7.21-1.42,10.82-.17,1.33-.69,2.45-1.9,3.16-.71.42-1.36.36-1.68-.44-.43-1.06-.93-2.15-1.09-3.27-.68-4.87-1.26-9.75-1.83-14.63-.12-.99-.51-1.56-1.52-1.63-1.03-.08-2.07-.12-3.1-.26-.88-.11-1.16.28-1.12,1.08.09,1.68.12,3.36.28,5.03.22,2.38.54,4.75.81,7.12.29,2.53.72,5.06.82,7.6.14,3.71.04,7.43.04,11.15ZM117.8,46.67c0-3.2,0-6.4,0-9.6,0-1.09.39-1.55,1.51-1.79.94-.2,1.58.21,1.87,1.07.32.94.64,1.9.77,2.88.24,1.82.49,3.66.47,5.49-.05,5.5,1.36,10.67,3.34,15.72,1.11,2.82,2.28,5.62,3.5,8.4.21.48.76,1.03,1.24,1.12,2.51.49,5.04.84,7.57,1.24.79.13,1.15-.2,1.01-1-.19-1.1-.44-2.19-.61-3.3-1-6.69-1.51-13.42-1.49-20.18,0-3.03-.05-6.07-.21-9.1-.11-2.03-.53-4.04-.67-6.08-.42-6.02-1.05-12.02-2.13-17.96q-.44-2.4-2.89-1.87c-.16.03-.32.05-.47.09-1.47.3-1.71.56-1.48,2.02.51,3.35.98,6.71,1.65,10.03.89,4.38,1.96,8.71,1.27,13.26-.3,1.96-.15,3.99-.22,5.99-.05,1.28-.06,2.57-.26,3.82-.08.49-.58,1.06-1.03,1.28-.26.12-.99-.28-1.21-.64-.41-.65-.74-1.42-.88-2.18-.29-1.57-.41-3.17-.64-4.75-1.36-9.5-4.78-18.48-7.2-27.71-.34-1.29-.54-1.41-1.79-.95-2.96,1.1-5.88,2.3-8.78,3.53-.29.12-.53.77-.5,1.16.26,3.62.47,7.26.91,10.86.59,4.71,1.54,9.38,1.27,14.18-.48,8.47.91,16.82,1.73,25.2.39,4.06.89,4.4,4.87,4.63,1.15.07,1.46-.22,1.37-1.37-.14-1.75-.29-3.51-.52-5.25-.82-6.07-1.56-12.14-1.34-18.28ZM65.53,27.6c0-.84.03-1.68,0-2.52-.16-3.59-.32-7.19-.53-10.78-.1-1.65-.15-1.66-1.79-1.27-1.17.27-2.32.6-3.49.86-.67.15-1.07.47-1.11,1.19-.18,3.59-.49,7.18-.53,10.77-.03,2.99.27,5.99.4,8.98.08,1.98-.5,2.56-2.47,2.64-1.4.06-2.79.14-4.18.23-1.23.08-1.7-.36-1.65-1.59.02-.44.12-.87.17-1.31.21-1.9.58-3.81.6-5.71.06-4.79-.04-9.59-.05-14.38,0-.6-.18-1.01-.78-1.17-1.54-.42-3.06-.92-4.62-1.23-1.38-.27-1.58-.16-1.71,1.25-.45,4.93-.94,9.86-1.15,14.81-.15,3.71.31,7.44.15,11.14-.28,6.18-.91,12.35-1.26,18.53-.21,3.63-.26,7.27-.22,10.9.02,2.13.78,2.76,2.93,2.93.58.05,1.19-.08,1.77-.18,1.48-.28,1.5-.29,1.56-1.83.14-3.67.17-7.35.42-11.02.32-4.54.84-9.07,1.23-13.6.08-.86.42-1.41,1.29-1.41,1.91.01,3.83.05,5.73.19.35.03.88.51.96.86.64,2.93.2,5.89-.07,8.82-.17,1.85-.92,3.65-1.07,5.5-.32,3.85-.42,7.72-.6,11.59-.02.35.08.71.11,1.07.07.72.45,1.06,1.19,1.05,1.28-.03,2.56,0,3.84-.05,2.75-.11,2.81-.13,2.59-2.85-.55-6.72-.32-13.41.66-20.09,1.09-7.4,1.93-14.83,1.69-22.33ZM35.05,59.01c-.16-2.76-.33-5.83-.5-8.91-.04-.71-.29-1.3-1.1-1.3-1.27,0-2.55.03-3.81.19-.57.08-1.63.08-1.05,1.27.03.06-.06.26-.14.3-.89.37-.62,1.14-.54,1.76.16,1.19.41,2.36.67,3.53.69,3.14.33,6.21-.75,9.19-.16.44-.56.95-.97,1.1-.74.26-1.57.35-2.36.35-1.54,0-2.91-1.17-3.17-2.71-.83-4.88-.88-9.8-.56-14.71.63-9.8.68-19.57-.67-29.32-.15-1.1.1-1.96.81-2.86.9-1.16,1.92-1.62,3.32-1.32,1.47.31,2.28,1.23,2.53,2.69.65,3.81,1.32,7.62,1.94,11.43.1.6.28.97.94.99,1.56.05,3.11.1,4.67.2.77.05,1.2-.2,1.01-1-.69-2.87.28-5.89-.95-8.74-.67-1.56-.89-3.31-1.35-4.96-.81-2.88-2.81-4.5-5.65-5.08-3.22-.66-6.46-.43-9.37,1.04-2.09,1.06-3.99,2.81-4.11,5.36-.18,3.78-.27,7.6.15,11.35.49,4.35.91,8.66.15,12.99-.87,4.96-.86,9.94-.55,14.93.16,2.63.46,5.26.94,7.84.31,1.67,1.09,3.24,1.59,4.87.42,1.38,1.39,2.02,2.71,2.17.71.08,1.44.04,2.15-.04,2.97-.36,5.94-.73,8.9-1.13,2.69-.36,5.11-3.09,5.13-5.76.01-1.8,0-3.6,0-5.71ZM77.34,12.66s0,.05-.01.08c-.64.03-1.28.02-1.91.11-2.08.27-2.27.35-2.21,2.44.17,6.27.48,12.53.66,18.8.05,1.82,0,3.68-.29,5.48-.58,3.59-1.41,7.13-2.01,10.72-.33,1.99-.8,3.96-.39,6.05.58,2.94.94,5.91.63,8.94-.13,1.31-.04,2.64,0,3.96.04.97.72,1.46,2.02,1.62.99.12.87-.73.93-1.2.33-2.81.64-5.63.83-8.46.12-1.82.41-3.65-.24-5.46-.27-.75.53-1.59,1.35-1.56,2.07.08,4.15.16,6.22.26,1.27.06,1.62.48,1.89,1.72.85,3.94,1.76,7.86,2.62,11.8.42,1.94,1.39,2.87,3.93,2.82,1.51-.03,1.75-.23,1.5-1.69-.39-2.28-.9-4.54-1.36-6.81-1.5-7.34-2.01-14.8-2.56-22.24-.17-2.26-.51-4.41-1.33-6.53-.58-1.47-.86-3.07-1.19-4.63-.3-1.41-.32-2.89-.76-4.24-1-3.05-1.17-6.19-1.38-9.34-.02-.24-.04-.48-.04-.72-.03-.76-.42-1.15-1.18-1.23-1.91-.2-3.81-.43-5.71-.66ZM191.56,70.68c.32,0,.64,0,.96,0,2.46-.08,2.58-.18,1.78-2.57-2.21-6.61-3.8-13.37-4.85-20.26-.6-3.91-1.38-7.79-1.99-11.69-.68-4.31-2.81-8.13-4-12.27-.85-2.95-1.99-5.81-3.06-8.69-.17-.46-.6-1.13-.94-1.15-1.26-.08-2.58-.11-3.8.18-3.28.78-3.81,1.32-3.63,4.7.25,5.02.51,10.07,1.29,15.03.91,5.77.89,11.44-.12,17.15-.18,1.01-.25,2.09-.1,3.1.77,5.26,1.6,10.5,2.46,15.75.29,1.73.75,2,2.54,1.94.74-.02,1-.35.93-1.05-.12-1.19-.22-2.39-.33-3.58-.29-3.5-.61-7-.86-10.51-.09-1.22.53-1.87,1.75-1.92.59-.02,1.19.09,1.79.16.91.11,1.82.31,2.73.35,1.69.07,1.75.15,2.05,1.79.69,3.77,1.3,7.56,2.23,11.28.67,2.67.15,2.41,3.2,2.28ZM158.61,62.01c-.12,1.27-.22,2.55-.38,3.81-.13,1.06-.54,1.99-1.4,2.69-1.2.97-2.5,1.68-4.07,1.89-1.21.16-2.2-.15-3.02-1.05-1.35-1.48-1.87-3.18-1.58-5.19.35-2.49.57-5,.87-7.5.11-.9-.24-1.36-1.15-1.44-1.27-.12-2.55-.25-3.81-.45-.92-.15-1.36.16-1.38,1.1-.07,3.63-.35,7.27-.18,10.89.18,3.91,3.77,7.12,7.68,7.18,1.23.02,2.48-.14,3.68-.4,2.18-.48,4.34-1.03,6.46-1.7.53-.17,1.11-.83,1.27-1.39.48-1.68.78-3.42,1.13-5.14.36-1.84.79-3.67,1-5.53.18-1.53.37-3.15.08-4.64-.96-4.92-2.97-9.43-5.86-13.53-1.83-2.6-3.16-5.45-4.47-8.32-.27-.6-.4-1.33-.37-1.98.12-2.55.27-5.11.54-7.65.2-1.95,1.89-3.33,3.59-3.38,3.18-.1,3.67,1.44,4.04,3.49.06.31.04.64.06.96.1,1.67.19,3.35.32,5.02.15,1.99.81,2.65,2.83,2.85.48.05.96.02,1.44.04.99.05,1.4-.45,1.53-1.41.54-3.85.37-7.62-.69-11.4-.62-2.22-1.95-3.54-4.04-4.16-2.71-.8-5.48-.43-7.98.55-5.57,2.18-7.72,6.94-7.93,12.47-.11,3.01.75,6.07,1.32,9.09.53,2.82,1.94,5.23,3.87,7.33,4.4,4.78,6.58,10.41,6.61,16.91ZM96.46,51.43c.3,4.57.4,8.65.88,12.69.4,3.4,1.24,6.75,1.93,10.11.05.23.49.54.73.53,1.39-.06,2.78-.2,4.17-.34.7-.07,1.06-.52,1.09-1.21.07-1.47.27-2.95.19-4.41-.27-5.02-1.14-9.99-.82-15.05.34-5.5.52-11.01.73-16.52.04-.99.04-2.02-.17-2.98-.59-2.73-.53-5.47-.51-8.23.02-2.79-.14-5.57-.2-8.36-.02-.76-.39-1.08-1.11-1.1-1.96-.04-3.91-.07-5.87-.1-.77-.01-1.08.41-1.03,1.14.02.32.04.64.09.95.91,5.91,1.02,11.86.8,17.82-.2,5.19-.6,10.36-.89,15.06ZM38.01,48.65c.22-1.98.43-3.99.68-6,.07-.55.1-.83-.62-.92-1.81-.23-3.6-.64-5.41-.9-1.03-.15-1.78-.51-2.18-1.55-.37-.96-.84-1.89-1.3-2.81-.52-1.03-1.08-2.04-1.64-3.1-.29,4.06-.56,7.95-.86,11.84-.06.74.42.53.77.52,1.8-.07,3.6-.3,5.38-.21,2.18.1,4.5.22,5.08,3.07,0,.05.13.07.1.06ZM160.04,37.19c-.23,1.7.29,2.86,1.02,4.08,1.58,2.61,3.01,5.32,4.4,8.04,1.57,3.08,3.04,6.22,4.45,9.13,0-1.36-.05-2.87,0-4.38.13-3.51.29-7.01.5-10.52.05-.83-.3-1.21-1.04-1.22-1.43-.02-2.88-.09-4.3.08-1.76.21-2.24.05-3.07-1.53-.61-1.16-1.23-2.3-1.98-3.68ZM152.82,53.91c-.11,1.56-.82-.59.11.14.41-1.75.99,1.28-.11-.14Z"/>
  <path class="cls-2" d="M197.42,48.77c0-3.72.1-7.44-.04-11.15-.1-2.54-.53-5.07-.82-7.6-.27-2.37-.59-4.74-.81-7.12-.16-1.67-.18-3.35-.28-5.03-.04-.8.24-1.19,1.12-1.08,1.03.13,2.06.18,3.1.26,1.01.08,1.41.64,1.52,1.63.57,4.88,1.15,9.76,1.83,14.63.16,1.12.65,2.21,1.09,3.27.33.8.97.86,1.68.44,1.21-.71,1.73-1.83,1.9-3.16.47-3.61.94-7.21,1.42-10.82.21-1.54.45-3.08.7-4.62.19-1.18.86-1.95,2.01-2.05,1.38-.12,2.78-.07,4.18-.1.69-.01,1.01.35,1.08,1.01.47,4.33,1.04,8.65,1.37,12.98.18,2.3.82,4.28,2.39,5.97.96,1.04,1.95.89,2.46-.44.17-.43.2-.93.2-1.41.07-4.99.11-9.99.17-14.98,0-.4.02-.8.06-1.2.14-1.57.8-2.08,2.39-1.88,2.83.35,3.26.82,2.97,3.68-.51,5.17-1.05,10.34-1.63,15.5-.15,1.3-.41,2.62-.81,3.87-1.38,4.42-1.94,8.97-2.21,13.57-.17,2.91-.62,5.8-.76,8.71-.13,2.71-.02,5.43.01,8.15.02,1.69.04,1.65-1.63,1.59-1.52-.05-3.03-.02-4.55.02-.9.03-1.36-.28-1.56-1.22-.72-3.44-1.4-6.84-1.36-10.42.04-3.62-.52-7.25-.84-10.87-.06-.7-.21-1.42-1.05-1.55-.9-.14-1.49.34-1.92,1.12-1.34,2.41-1.72,5.06-1.98,7.73-.46,4.61-.74,9.24-1.22,13.85-.35,3.35-1.23,3.96-4.54,3.56-.04,0-.08,0-.12-.01-3.27-.44-3.45-.66-4.09-3.91-1.11-5.64-1.43-11.33-1.22-17.06.05-1.28,0-2.56,0-3.84h-.22Z"/>
  <path class="cls-2" d="M117.8,46.67c-.21,6.14.53,12.21,1.34,18.28.23,1.74.38,3.5.52,5.25.09,1.15-.22,1.43-1.37,1.37-3.98-.23-4.47-.57-4.87-4.63-.82-8.38-2.21-16.73-1.73-25.2.27-4.79-.68-9.46-1.27-14.18-.45-3.6-.66-7.24-.91-10.86-.03-.39.21-1.04.5-1.16,2.9-1.23,5.83-2.42,8.78-3.53,1.25-.47,1.45-.34,1.79.95,2.42,9.23,5.84,18.2,7.2,27.71.23,1.58.35,3.18.64,4.75.14.76.46,1.52.88,2.18.22.35.95.76,1.21.64.46-.22.95-.79,1.03-1.28.21-1.26.21-2.55.26-3.82.08-2-.08-4.03.22-5.99.7-4.55-.38-8.88-1.27-13.26-.67-3.32-1.14-6.68-1.65-10.03-.22-1.47.01-1.72,1.48-2.02.16-.03.32-.05.47-.09q2.45-.53,2.89,1.87c1.08,5.94,1.72,11.94,2.13,17.96.14,2.03.57,4.04.67,6.08.16,3.03.21,6.07.21,9.1-.01,6.77.5,13.49,1.49,20.18.16,1.1.41,2.2.61,3.3.14.8-.22,1.12-1.01,1-2.52-.4-5.06-.75-7.57-1.24-.48-.09-1.03-.65-1.24-1.12-1.22-2.78-2.39-5.58-3.5-8.4-1.98-5.05-3.4-10.22-3.34-15.72.02-1.83-.23-3.67-.47-5.49-.13-.98-.45-1.94-.77-2.88-.29-.87-.93-1.28-1.87-1.07-1.12.24-1.51.7-1.51,1.79,0,3.2,0,6.4,0,9.6Z"/>
  <path class="cls-2" d="M65.53,27.6c.24,7.5-.6,14.93-1.69,22.33-.98,6.68-1.2,13.37-.66,20.09.22,2.72.16,2.74-2.59,2.85-1.28.05-2.56.02-3.84.05-.73.01-1.12-.33-1.19-1.05-.03-.36-.13-.72-.11-1.07.18-3.86.28-7.74.6-11.59.15-1.85.9-3.65,1.07-5.5.27-2.93.71-5.88.07-8.82-.08-.35-.61-.84-.96-.86-1.91-.14-3.82-.18-5.73-.19-.87,0-1.21.55-1.29,1.41-.4,4.54-.92,9.06-1.23,13.6-.26,3.67-.28,7.35-.42,11.02-.06,1.54-.08,1.55-1.56,1.83-.58.11-1.19.23-1.77.18-2.15-.17-2.91-.81-2.93-2.93-.04-3.63.01-7.27.22-10.9.36-6.18.98-12.35,1.26-18.53.17-3.7-.3-7.44-.15-11.14.2-4.94.69-9.88,1.15-14.81.13-1.41.32-1.52,1.71-1.25,1.56.31,3.08.81,4.62,1.23.6.16.78.57.78,1.17.01,4.79.11,9.59.05,14.38-.02,1.91-.39,3.81-.6,5.71-.05.44-.15.87-.17,1.31-.05,1.24.42,1.67,1.65,1.59,1.39-.09,2.79-.17,4.18-.23,1.98-.08,2.55-.66,2.47-2.64-.12-3-.43-5.99-.4-8.98.04-3.59.35-7.18.53-10.77.04-.72.43-1.04,1.11-1.19,1.17-.26,2.33-.59,3.49-.86,1.64-.39,1.7-.38,1.79,1.27.21,3.59.36,7.19.53,10.78.04.84,0,1.68,0,2.52Z"/>
  <path class="cls-2" d="M35.05,59.01c0,2.11.01,3.91,0,5.71-.02,2.67-2.44,5.4-5.13,5.76-2.96.4-5.93.78-8.9,1.13-.71.08-1.45.12-2.15.04-1.33-.15-2.3-.79-2.71-2.17-.5-1.64-1.28-3.21-1.59-4.87-.48-2.58-.78-5.22-.94-7.84-.31-4.99-.32-9.98.55-14.93.76-4.33.34-8.64-.15-12.99-.42-3.75-.33-7.57-.15-11.35.12-2.55,2.03-4.31,4.11-5.36,2.91-1.47,6.15-1.71,9.37-1.04,2.84.58,4.85,2.2,5.65,5.08.46,1.65.68,3.4,1.35,4.96,1.23,2.85.26,5.87.95,8.74.19.81-.24,1.05-1.01,1-1.55-.1-3.11-.15-4.67-.2-.66-.02-.84-.39-.94-.99-.63-3.82-1.29-7.62-1.94-11.43-.25-1.46-1.06-2.38-2.53-2.69-1.4-.3-2.41.17-3.32,1.32-.71.91-.96,1.76-.81,2.86,1.34,9.75,1.3,19.52.67,29.32-.32,4.91-.27,9.83.56,14.71.26,1.53,1.63,2.71,3.17,2.71.79,0,1.62-.09,2.36-.35.41-.14.81-.66.97-1.1,1.08-2.99,1.44-6.05.75-9.19-.26-1.17-.51-2.34-.67-3.53-.08-.62-.35-1.39.54-1.76.08-.03.17-.23.14-.3-.58-1.19.48-1.19,1.05-1.27,1.26-.17,2.54-.19,3.81-.19.81,0,1.06.58,1.1,1.3.17,3.07.35,6.14.5,8.91Z"/>
  <path class="cls-2" d="M77.34,12.66c1.9.22,3.81.45,5.71.66.77.08,1.15.47,1.18,1.23,0,.24.03.48.04.72.21,3.15.39,6.29,1.38,9.34.44,1.35.46,2.84.76,4.24.33,1.56.62,3.16,1.19,4.63.83,2.12,1.17,4.28,1.33,6.53.55,7.45,1.07,14.9,2.56,22.24.46,2.27.97,4.53,1.36,6.81.25,1.46.01,1.66-1.5,1.69-2.54.05-3.51-.88-3.93-2.82-.86-3.94-1.77-7.86-2.62-11.8-.27-1.24-.62-1.65-1.89-1.72-2.07-.1-4.15-.18-6.22-.26-.82-.03-1.63.81-1.35,1.56.65,1.81.36,3.65.24,5.46-.19,2.83-.5,5.65-.83,8.46-.06.48.06,1.32-.93,1.2-1.3-.16-1.98-.65-2.02-1.62-.05-1.32-.14-2.65,0-3.96.31-3.03-.05-6-.63-8.94-.41-2.09.06-4.06.39-6.05.6-3.59,1.43-7.13,2.01-10.72.29-1.8.34-3.65.29-5.48-.18-6.27-.49-12.53-.66-18.8-.06-2.09.13-2.17,2.21-2.44.63-.08,1.28-.07,1.91-.11,0-.03,0-.05.01-.08ZM83.74,45.6c-.72-5.22-1.38-10.2-2.1-15.17-.09-.66-.4-1.29-.66-1.92-.32-.77-.87-1.3-1.75-1.11-.85.18-1.42.72-1.49,1.64-.1,1.43-.26,2.86-.27,4.3-.02,3.27.08,6.53.04,9.8-.02,1.25-.33,2.5-.41,3.76-.03.51.05,1.12.31,1.55.48.78,1.32.94,2.21.93.75,0,1.5.13,2.24.06.4-.04,1.01-.29,1.1-.58.36-1.11.56-2.28.77-3.26Z"/>
  <path class="cls-2" d="M191.56,70.68c-3.05.13-2.53.4-3.2-2.28-.93-3.71-1.54-7.51-2.23-11.28-.3-1.63-.36-1.71-2.05-1.79-.91-.04-1.82-.24-2.73-.35-.59-.07-1.19-.19-1.79-.16-1.23.05-1.84.7-1.75,1.92.26,3.51.57,7.01.86,10.51.1,1.19.21,2.39.33,3.58.07.7-.19,1.03-.93,1.05-1.78.06-2.25-.21-2.54-1.94-.86-5.24-1.69-10.49-2.46-15.75-.15-1.01-.08-2.09.1-3.1,1.01-5.72,1.03-11.39.12-17.15-.78-4.96-1.03-10.01-1.29-15.03-.17-3.38.35-3.92,3.63-4.7,1.22-.29,2.54-.26,3.8-.18.34.02.78.7.94,1.15,1.07,2.88,2.21,5.75,3.06,8.69,1.19,4.14,3.32,7.96,4,12.27.61,3.91,1.39,7.79,1.99,11.69,1.06,6.89,2.64,13.64,4.85,20.26.8,2.38.68,2.49-1.78,2.57-.32.01-.64,0-.96,0ZM178.25,44.83s-.08,0-.12,0c0,.44,0,.88,0,1.32q0,3.22,3.21,3.02c1.15-.07,1.51-.37,1.51-1.55,0-2.16.08-4.34-.2-6.46-.53-3.88-1.6-7.65-2.9-11.35-.27-.78-.71-.96-1.46-.78-1.08.27-1.24.55-1.14,1.83.38,4.65.74,9.31,1.11,13.96Z"/>
  <path class="cls-2" d="M158.61,62.01c-.03-6.5-2.21-12.13-6.61-16.91-1.93-2.1-3.34-4.51-3.87-7.33-.56-3.01-1.43-6.08-1.32-9.09.21-5.53,2.36-10.29,7.93-12.47,2.5-.98,5.28-1.35,7.98-.55,2.09.62,3.42,1.95,4.04,4.16,1.05,3.77,1.22,7.55.69,11.4-.13.97-.54,1.46-1.53,1.41-.48-.02-.96,0-1.44-.04-2.02-.19-2.68-.86-2.83-2.85-.12-1.67-.21-3.35-.32-5.02-.02-.32,0-.64-.06-.96-.37-2.05-.86-3.59-4.04-3.49-1.7.05-3.39,1.44-3.59,3.38-.27,2.54-.42,5.1-.54,7.65-.03.66.09,1.39.37,1.98,1.31,2.87,2.64,5.72,4.47,8.32,2.89,4.1,4.9,8.61,5.86,13.53.29,1.49.1,3.1-.08,4.64-.22,1.86-.64,3.69-1,5.53-.34,1.72-.64,3.46-1.13,5.14-.16.55-.74,1.22-1.27,1.39-2.12.67-4.29,1.22-6.46,1.7-1.2.26-2.45.42-3.68.4-3.91-.06-7.5-3.27-7.68-7.18-.17-3.62.11-7.26.18-10.89.02-.94.46-1.24,1.38-1.1,1.26.2,2.54.32,3.81.45.91.09,1.25.55,1.15,1.44-.3,2.5-.51,5.01-.87,7.5-.29,2.01.23,3.71,1.58,5.19.82.9,1.81,1.21,3.02,1.05,1.57-.21,2.87-.92,4.07-1.89.87-.7,1.28-1.63,1.4-2.69.15-1.27.25-2.54.38-3.81Z"/>
  <path class="cls-2" d="M96.46,51.43c.28-4.7.69-9.88.89-15.06.23-5.95.11-11.91-.8-17.82-.05-.32-.07-.64-.09-.95-.05-.73.25-1.15,1.03-1.14,1.96.03,3.91.07,5.87.1.72.01,1.09.34,1.11,1.1.06,2.79.22,5.57.2,8.36-.02,2.76-.07,5.5.51,8.23.21.96.2,1.99.17,2.98-.21,5.51-.39,11.02-.73,16.52-.32,5.06.55,10.04.82,15.05.08,1.46-.11,2.94-.19,4.41-.04.69-.39,1.14-1.09,1.21-1.39.14-2.77.28-4.17.34-.24.01-.69-.3-.73-.53-.69-3.36-1.52-6.71-1.93-10.11-.48-4.04-.58-8.12-.88-12.69Z"/>
  <path class="cls-1" d="M83.74,45.6c-.22.98-.41,2.15-.77,3.26-.1.29-.71.55-1.1.58-.74.07-1.49-.07-2.24-.06-.88,0-1.73-.15-2.21-.93-.26-.43-.35-1.03-.31-1.55.08-1.26.39-2.51.41-3.76.04-3.27-.06-6.53-.04-9.8,0-1.43.16-2.86.27-4.3.07-.93.64-1.47,1.49-1.64.89-.19,1.44.34,1.75,1.11.26.62.57,1.26.66,1.92.71,4.97,1.38,9.95,2.1,15.17Z"/>
  <path class="cls-1" d="M178.25,44.83c-.37-4.65-.73-9.31-1.11-13.96-.11-1.28.05-1.56,1.14-1.83.75-.19,1.18,0,1.46.78,1.3,3.7,2.38,7.47,2.9,11.35.29,2.12.2,4.31.2,6.46,0,1.18-.36,1.48-1.51,1.55q-3.21.2-3.21-3.02c0-.44,0-.88,0-1.32.04,0,.08,0,.12,0Z"/>
</svg>