<?xml version="1.0" encoding="UTF-8"?>
<svg id="Layer_1" data-name="Layer 1" xmlns="http://www.w3.org/2000/svg" viewBox="0 0 621.73 497.14">
  <defs>
    <style>
      .cls-1 {
        fill: #000;
      }

      .cls-1, .cls-2 {
        stroke-width: 0px;
      }

      .cls-2 {
        fill: #fff;
      }
    </style>
  </defs>
  <path class="cls-1" d="M196.43,480.58c-.15-1.58-.09-3.56,1.15-5.03,1.69-1.99,2.4-4.42,3.63-6.61.28-.51.71-.95,1.13-1.37,1.26-1.25,1.41-2.92,1.48-4.5.12-2.66,1.6-4.58,2.93-6.7,1.51-2.41,2.67-5.05,3.87-7.65.29-.64.18-1.48.2-2.23.02-1.07.43-1.85,1.33-2.49.89-.63,1.75-1.35,2.41-2.2.4-.51.35-1.35.58-2.01.33-.96.66-1.93,1.1-2.85.89-1.84,1.93-3.62,2.76-5.49.29-.64.12-1.48.26-2.21.14-.68.32-1.38.64-1.98.84-1.6,1.81-3.13,2.65-4.73,1.02-1.94,1.9-3.97,2.99-5.87.36-.63,1.13-1.12,1.83-1.44,1.73-.81,2.89-1.92,3.52-3.85.49-1.49,1.45-2.97,2.57-4.08,1.74-1.72,2.34-3.87,3.04-6.04,1.2-3.7,2.66-7.22,5.46-10.11,1.07-1.1,1.61-2.7,2.42-4.05,1.34-2.22,2.73-4.42,4.04-6.65.79-1.35,1.49-2.76,2.23-4.14.41-.75.76-1.55,1.27-2.22,1.78-2.36,3.94-4.51,5.36-7.07,1.55-2.81,3.51-5.32,5.11-8.07.91-1.56,1.74-3.16,2.63-4.72.31-.54.73-1.03,1.07-1.55.56-.85,1.1-1.71,1.66-2.55.67-1.02,1.24-2.13,2.05-3.02.92-1.01,1.66-2.08,1.68-3.42.04-2.43,1.4-4.32,2.36-6.39.24-.52.51-1.08.56-1.64.14-1.44-.47-2.02-1.9-2.06-1.94-.07-3.54.74-4.95,1.94-1.04.89-2.25,1.17-3.52,1.18-6.8.03-13.6.08-20.4-.03-1.87-.03-3.79-.41-5.57-.99-3.55-1.16-7.15-1.66-10.86-1.6-.46,0-.99.06-1.37.28-2.84,1.71-6.1,2.32-9.12,3.55-3.52,1.43-7.13,2.32-10.95,2.17-3.15-.12-6.32-.16-9.44-.54-1.84-.23-3.66-.93-5.4-1.64-2.94-1.19-5.8-1.3-8.72-.01-1.5.66-3.03,1.06-4.72,1.01-1.9-.05-3.82.25-5.72.18-4.5-.17-8.97-.44-13.42-1.48-3.17-.74-6.53-.76-9.81-.84-2.82-.07-5.45-.55-8.05-1.68-3.83-1.67-7.76-1.86-11.49.31-1.7.99-3.54.98-5.34,1.36-2.54.53-5.04,1.22-7.56,1.82-2.26.53-4.51,1.08-6.79,1.5-1.55.28-3.18.21-4.7.57-1.07.25-2.14.84-3.01,1.52-1.64,1.27-3.46,1.81-5.47,2.03-1.21.14-2.4.69-3.59.64-2.56-.11-5.11-.48-7.67-.75-1.22-.13-2.47-.12-3.65-.41-1.2-.3-2.44-.72-3.47-1.39-2.02-1.3-4.23-1.8-6.54-2.22-1.59-.29-3.1-1.06-4.63-1.65-.7-.27-1.34-.7-2.04-.94-1.63-.57-2.86-1.56-3.8-3.01-1.84-2.83-2.55-5.93-2.85-9.26-.29-3.26.32-6.62-.89-9.79-.46-1.21-.92-2.43-1.43-3.63-.86-2.06-.24-4.05.29-6.01.78-2.85,1.05-5.74,1.15-8.67.04-1.19.26-2.38.19-3.56-.05-.78-.36-1.62-.78-2.28-.72-1.13-1.61-2.15-2.44-3.21-.36-.46-.67-1.06-1.15-1.33-1.77-.99-1.96-2.69-2.33-4.42-.58-2.68-1.28-5.34-2.06-7.97-1.06-3.57-1.52-7.17-1.12-10.89.15-1.41-.04-2.86-.09-4.29,0-.16-.06-.31-.06-.47-.09-2.19-.32-4.38-.22-6.56.22-4.75.46-9.52.95-14.25.66-6.27.86-12.56.67-18.84-.13-4.49.62-8.83,1.54-13.18.21-1,.31-2.03.38-3.05.12-1.71.25-3.42.23-5.12-.03-2.45-.25-4.84-1.26-7.18-.73-1.66-1.13-3.54-1.29-5.36-.45-5.14-.66-67.64-1.04-72.79-.14-1.88.4-3.53,1.7-4.76,1.67-1.57,2.14-3.68,2.82-5.66.82-2.4,1.3-4.93,1.82-7.42.26-1.23.36-2.51.38-3.77.11-9.27.28-18.54.2-27.8-.04-4.35-.56-8.71-.9-13.05-.21-2.68-2.8-4.99-5.77-5.2-2.3-.16-2.97-1.61-1.8-3.58.78-1.31,1.34-2.75,2.04-4.1.36-.69.72-1.43,1.25-1.98,1.95-2.03,3.95-4.01,6.49-5.37,1.02-.55,1.83-1.47,2.74-2.22,1.57-1.31,3.83-1.22,5.29.2.29.28.62.53.84.86,1.71,2.58,4.8,1.89,6.54.42,1.7-1.44,3.37-2.73,5.7-3.07.97-.14,1.88-.94,2.75-1.52,2.86-1.91,5.26-2.04,8,.05,2.64,2.02,5.42,2.34,8.49,1.55,2.62-.68,5.23-1.45,7.89-1.98,3.16-.62,6.33-.42,9.4.57,3.16,1.02,6.36,1.78,9.68,2.11,1.09.11,2.17.91,3.14,1.57,1.64,1.1,3.41,1.09,5.29,1.1,2.14.01,3.86-1.02,5.77-1.62,1.6-.51,3.27-.89,4.93-1.08,2.05-.23,4.13-.21,6.2-.27,3.15-.09,6.3-.16,9.44-.25,2.67-.07,5.34-.19,8-.23,7.31-.1,14.62-.28,21.92-.19,4.15.05,8.3.64,12.45.85,2.02.1,4.06-.07,6.08-.23,1.73-.14,3.44-.56,5.17-.63,2.77-.11,5.55-.12,8.32,0,2.97.13,5.92.48,8.89.67,3.21.21,6.28-.59,9.31-1.52,2.45-.75,4.91-.99,7.44-.43,2.46.55,4.92,1.09,7.4,1.53,1.4.25,2.83.39,4.25.38,3.83-.02,7.67,0,11.48-.28,1.68-.12,3.37-.8,4.94-1.47,2.14-.91,4.3-1.42,6.62-1.63,3.97-.37,7.68.44,11.33,1.82,1.88.71,3.78.7,5.48-.37,2.09-1.31,4.43-1.45,6.73-1.59,1.97-.12,4-.09,5.94.25,1.3.23,2.54,1.02,3.71,1.73,2.2,1.32,4.22,1.2,6.14-.47,1.33-1.16,3.03-1.27,4.66-1.53,1.36-.22,2.75-.41,4.12-.44,1.13-.02,2.27.25,3.41.33,2.46.18,4.93.41,7.21-.87.65-.37,1.23-.92,1.92-1.16,1.81-.64,3.68-1.09,5.48-1.75.94-.35,1.78-.97,2.65-1.49,2.46-1.48,4.86-3.09,7.39-4.45,2.43-1.3,6.28.6,7.47,2.35,1.42,2.08,3.13,3.97,4.63,6,1.16,1.57,2.85,1.67,4.48,1.64,1.76-.03,3.4-.5,4.93-1.67,1.73-1.34,3.94-1.82,6.15-1.83,1.79,0,3.61-.05,5.35.29,1.18.23,2.4.9,3.33,1.69,1.45,1.24,3.13,1.52,4.86,1.55,2.43.05,4.86-.09,7.28-.23.6-.03,1.25-.28,1.76-.61,2.04-1.3,4.11-2.6,6.6-2.62,2.69-.02,5.4.04,8.06.38,1.11.14,2.2,1,3.16,1.72,1.23.92,2.51,1.41,4.04,1.4,5.32-.02,10.64-.02,15.96.02,2.51.02,5.05-.07,7.52.29,3.22.46,6.39,1.34,9.58,1.99,1.58.32,3.17.67,4.77.79,2.38.19,4.77.24,7.16.25,2.93.02,5.67-.47,8.18-2.26,1.19-.85,2.86-1.04,4.3-1.56.58-.21,1.25-.39,1.69-.78,1.99-1.8,4.36-2.37,6.96-2.61,2.38-.22,4.83-.48,7.06-1.25,2.18-.75,4.13-2.06,6.56-2.19.91-.05,1.95-.56,2.65-1.17,1.94-1.68,4.32-2,6.66-2.54,1.76-.41,3.51-.85,5.26-1.33,3.47-.94,6.86-1.1,10.33.22,1.74.66,3.67.9,5.54,1.06,2.54.22,5.09.18,7.64.27,2.11.07,3.86-.81,5.63-1.86,1.32-.78,2.85-1.53,4.34-1.66,2.83-.26,5.71-.2,8.56,0,1.06.07,2.25.67,3.05,1.39,1.39,1.26,2.98,1.67,4.72,1.92,1.9.27,3.82.52,5.68.98,1.5.38,1.67,1.3,1.2,2.75-.58,1.78-.81,3.67-1.37,5.46-.38,1.22-1.16,2.32-1.61,3.53-.73,1.98-1.44,3.98-1.95,6.02-.87,3.44-.53,6.91-.08,10.4.59,4.49.48,8.92-1.87,13.06-.98,1.73-.98,3.64.05,5.42,1.33,2.29,2.01,4.75,2.4,7.37.21,1.43.95,2.83,1.7,4.11.99,1.69,1.59,3.42,1.62,5.37.06,4.51.17,9.02.22,13.52.02,2.25-.47,4.37-1.51,6.4-.62,1.22-1.05,2.54-1.47,3.85-.16.5-.06,1.09-.07,1.64-.01.62,0,1.24-.02,1.85-.17,4.29-.53,8.59-.44,12.87.05,2.25,1.34,61.65,2.46,63.65.49.89.7,2.01.78,3.04.13,1.55-.04,3.12.05,4.68.27,4.59.55,9.19.93,13.77.33,3.9.75,7.79,1.22,11.68.26,2.15.91,4.26,1.03,6.41.22,3.68.12,7.38.23,11.07.09,3.04-1.23,5.67-2.26,8.39-.77,2.04-.5,4.04.07,6.05.78,2.72,1.61,5.42,2.33,8.15.38,1.44.91,2.72,1.91,3.87,1.36,1.56,1.84,3.5,2.21,5.52.45,2.43.99,4.87,1.8,7.21.38,1.12,1.3,2.2,2.26,2.94,2.88,2.23,3.29,5.17.86,7.88-1.4,1.55-1.9,3.41-2.05,5.41-.32,4.51-.64,9.02-.96,13.53-.35,4.92-.51,9.83.65,14.69.17.69-.09,1.51.19,2.13.48,1.09,1.18,2.09,1.86,3.08,1.06,1.55.72,2.92-1.03,3.61-1.52.6-3.04.71-4.7.34-2.03-.45-4.14-.61-6.23-.77-2.81-.22-5.63-.45-8.45-.44-3.05,0-6.11.26-9.16.45-.53.03-1.08.27-1.56.51-2.38,1.22-4.82,2.12-7.56,2.14-2.62.02-5.23.39-7.85.41-4.65.03-9.2-.62-13.63-2.17-1.61-.56-3.38-.75-5.1-.9-2.18-.19-4.37-.2-6.56-.25-3.53-.07-6.86.69-10.11,2.11-1.41.61-3.05.76-4.6.99-3.07.46-6.2.59-9.1,1.91-1.46.66-2.97,1.22-4.46,1.81-.25.1-.54.13-.82.13-4.35.09-8.7.27-13.04.19-2.23-.04-4.47-.46-6.66-.92-1.09-.23-2.04-1.02-3.12-1.37-1.56-.51-3.15-1-4.77-1.22-3.17-.43-6.37-.81-9.56-.94-3.02-.13-6.05.06-9.08.15-1.51.04-3.01.2-4.52.26-6.92.25-13.85.67-20.77.66-3.69,0-7.48.12-11.07-1.14-1.03-.36-1.95-1.07-2.99-1.38-1.91-.58-3.88-.99-5.82-1.47-.11-.03-.26.02-.35-.04-3.73-2.14-6.68.18-9.64,1.83-1.9,1.05-3.83,1.73-5.93,1.77-7.83.14-15.65.2-23.48.25-2.45.02-4.2,1.07-5.38,3.19-.32.58-.79,1.08-1.15,1.65-.56.9-1.03,1.85-1.62,2.72-.74,1.09-1.55,2.14-2.36,3.18-.73.93-1.53,1.82-2.27,2.74-.47.58-.94,1.18-1.32,1.82-.52.87-1.11,1.73-1.41,2.68-.4,1.24-1.14,2.14-2.12,2.92-.49.39-.97.84-1.29,1.36-1.65,2.63-3.78,4.8-6.08,6.85-1.59,1.43-3.23,2.87-4.51,4.57-1.48,1.97-2.62,4.19-3.83,6.35-1.4,2.5-2.65,5.08-4.08,7.56-.42.73-1.15,1.32-1.84,1.85-2.96,2.28-5.76,4.71-7.91,7.8-.27.39-.61.8-.67,1.24-.43,2.78-2.51,4.7-3.67,7.1-.46.94-1.5,1.59-2.27,2.37-.92.92-1.73,2.01-2.78,2.73-2.26,1.55-4.7,2.86-6.98,4.39-.83.55-1.46,1.42-2.12,2.19-.85.99-1.63,2.04-2.44,3.06-.12.16-.33.27-.39.45-.85,2.54-3.02,3.96-4.77,5.75-1.29,1.32-2.28,2.92-3.42,4.38-.34.43-.66.95-1.11,1.21-2.58,1.5-4.41,3.71-6.02,6.14-.2.29-.37.65-.65.83-2.71,1.84-4.65,4.4-6.67,6.89-.47.58-1.2.93-1.68,1.5-2.1,2.47-4.22,4.94-6.2,7.5-2.31,2.99-4.5,6.09-6.74,9.13-.13.18-.33.32-.51.47-1.05.92-2.02,1.84-2.49,3.26-.27.83-.95,1.53-1.45,2.28-.88,1.31-1.68,2.69-2.68,3.89-2.63,3.16-5.16,6.43-8.62,8.78-.1.07-.24.09-.3.18-2.83,3.62-7.29,4.4-11.1,6.28-1.44.71-2.93,1.16-4.09,2.41-.72.78-1.8,1.25-2.76,1.79-2.3,1.27-4.62,2.49-6.92,3.76-.44.25-.86.58-1.21.96-2.41,2.58-5.79,2.53-8.86,3.03-3.45.56-5.31-1.44-5.31-5.03,0-.48,0-.96,0-1.77ZM563.34,47.91c-.08,0-.17,0-.25,0,0-8.52,0-17.04-.02-25.56,0-.79-.17-1.59-.35-2.36-.48-2.06-1.41-2.65-3.4-1.85-2.74,1.09-5.55,1.83-8.48,1.97-3.15.15-6.31.31-9.45.17-4.47-.2-8.92-.81-13.39-.96-3.21-.11-6.41.27-8.84,2.88-.37.4-1.04.57-1.61.74-1.72.53-3.5.88-5.16,1.55-3.11,1.24-6.26,2.1-9.63,2.27-2.35.12-4.73.33-6.82,1.61-2.38,1.46-5.01,1.94-7.72,2.37-1.57.25-3.06,1.08-4.57,1.69-.84.34-1.63.9-2.5,1.09-5.29,1.11-10.65,1.13-16,.77-5.94-.41-11.86-1.06-17.8-1.56-6.09-.51-12.2-.82-18.28-1.51-3.48-.39-7.12-.45-10.17-2.77-.96-.73-2.41-.63-3.42.13-2.89,2.19-6.39,2.41-9.71,3.15-1.17.26-2.47.17-3.68.01-3.33-.44-6.65-.94-9.95-1.55-.93-.17-1.96-.64-2.63-1.29-2.51-2.45-5.38-2.52-8.47-1.61-.48.14-1.02.4-1.31.77-1.66,2.1-3.83,2.73-6.39,2.51-.83-.07-1.68,0-2.52,0-1.43-.02-2.63-.52-3.64-1.56-.61-.63-1.24-1.27-1.98-1.71-2.06-1.24-3.74-2.86-5.12-4.8-1.77-2.47-4.27-2.5-6.3-.28-2.12,2.32-4.62,3.93-7.97,4.12-2.65.15-5.43.26-7.55,2.24-1.12,1.04-2.42,1.62-3.88,1.69-3.03.14-6.06.17-9.1.2-1.66.01-3.23-.33-4.7-1.2-.49-.28-1.34-.25-1.91-.03-1.79.68-3.55,1.44-5.26,2.29-2.58,1.28-5.17.98-7.83.34-3.89-.94-7.83-1.63-11.87-1.28-1.56.13-2.9.68-4.15,1.67-.84.66-1.93,1.25-2.97,1.39-3.19.45-6.39.19-9.53-.54-6.48-1.5-12.99-2.32-19.57-.61-1.47.38-2.9.92-4.39,1.17-5.28.9-10.53.33-15.73-.62-3.55-.65-6.46.15-8.74,3-.75.94-1.7,1.45-2.9,1.45-1.48,0-2.98.1-4.43-.1-1.48-.2-2.93-.69-4.38-1.11-1.98-.58-3.92-1.63-5.92-1.76-8.21-.51-16.42-1.37-24.67-1.03-2.5.1-4.9.56-7.18,1.68-1.09.54-2.31.9-3.5,1.09-2.2.35-4.43.51-6.65.75-1.43.16-2.85.43-4.28.47-4.84.14-9.68.11-14.51.34-3.1.15-6.21.55-9.28,1.04-4.18.66-8.31.98-12.49-.06-2.43-.6-4.95-.83-7.41-1.33-.99-.2-2.22-.44-2.83-1.12-1.6-1.78-3.64-2.22-5.78-2.53-3.25-.47-6.52-.48-9.54.95-2.61,1.23-5.11,1.35-7.89.59-3.15-.86-6.4-1.43-9.64-1.86-2.49-.33-4.85.09-6.44,2.5-.44.67-1.34,1.12-2.11,1.48-1.65.77-3.37,1.4-5.04,2.13-1.07.47-2.15.79-3.23.26-1.23-.6-2.22-.33-3.18.51-.54.47-1.23.8-1.69,1.33-.6.71-1.27,1.49-1.5,2.35-.83,3.08-1.45,6.22-2.24,9.32-.55,2.17-.32,4.18.7,6.16.99,1.92,1.48,3.95,1.39,6.13-.06,1.36-.1,2.72-.02,4.08.1,1.8.34,3.56,1.56,5.06,2.23,2.76,2.08,5.74.55,8.75-.52,1.02-.53,1.91,0,2.94,2.17,4.14,1.8,8.21-.48,12.21-.39.68-.8,1.43-.88,2.18-.25,2.42-.46,4.86-.45,7.29,0,1.19.49,2.39.85,3.55.23.72.69,1.35.96,2.06.8,2.15.75,61.52-.76,63.45-.58.75-.99,1.8-1.07,2.74-.27,3.42-.36,6.86-.51,10.29-.06,1.39.48,2.47,1.74,3.18,1.13.64,1.75,1.66,1.82,2.93.14,2.57-.18,5.02-1.86,7.14-.44.55-.75,1.23-1.01,1.89-.99,2.5-1.22,5.1-1.05,7.77.16,2.59.36,5.19.31,7.79-.08,4.23-.24,8.47-.55,12.7-.31,4.24-.7,8.41-2.42,12.49-1.44,3.44-1.57,7.31,1.39,10.47.24.25.42.6.52.93.98,3.25,1.5,6.61,1.15,9.95-.31,2.98-.36,5.91,0,8.84.21,1.71.72,3.42,1.37,5.03.61,1.54,1.57,2.94,2.37,4.4.44.8.8,1.68,1.37,2.37,1.29,1.55,1.76,3.37,1.65,5.26-.25,4.43-.64,8.85-1.03,13.27-.31,3.54.2,6.75,3.09,9.26.69.6,1.21,1.66,1.34,2.57.23,1.6.24,3.27.11,4.89-.16,2.02-.51,4.01-1.58,5.85-.81,1.4-.52,2.71.57,3.12,1.26.48,2.6.75,3.91,1.06,1.23.29,2.51.43,3.72.78,2.26.65,4.48,1.41,6.72,2.09,1.07.32,2.15.72,3.25.82,1.44.14,2.91.11,4.36-.01,1.19-.1,2.35-.42,3.53-.65,2.46-.49,4.95-.9,7.38-1.5,1.38-.34,2.65-1.19,4.03-1.47,2.58-.53,5.22-.74,7.8-1.25,1.46-.29,2.87-.89,4.29-1.39,1.48-.53,2.91-1.31,4.43-1.65,2.45-.55,4.97-.79,7.44-1.25,2.5-.47,4.98-.74,7.51-.3,2.83.49,5.66,1.01,8.51,1.42,3.16.45,6.35.75,9.51,1.21,2.61.38,5.18,1.07,7.79,1.34,3.37.34,6.79.6,9.88-1.42.68-.44,1.57-.69,2.38-.76,3.74-.31,7.49-.74,11.23-.67,2.12.04,4.45.57,6.28,1.61,2.24,1.28,4.37,2.43,6.99,2.5,4.33.1,8.7.17,12.63-1.94,2.07-1.11,4.21-1.68,6.47-1.99.99-.14,1.97-.31,2.97-.41,3.53-.36,7.08-1.03,10.61-.95,7.27.15,14.53.68,21.79,1.1,3.27.19,6.34-.24,9.2-2.02,2.04-1.27,4.46-1.89,6.12-3.86.48-.57,1.57-.74,2.41-.86,3.27-.48,6.62-.63,9.83-1.36,2.67-.61,4.81.19,6.92,1.47,1.78,1.08,1.74,2.35.39,3.94-1.61,1.9-3.03,3.97-4.46,6.02-.32.46-.38,1.13-.5,1.71-.44,2.02-.6,4.15-1.34,6.06-1.15,2.96-2.11,5.92-2.34,9.11-.09,1.26-.82,2.3-1.86,3.1-.59.45-1.21,1.01-1.52,1.66-1.39,2.92-3.73,5.05-5.81,7.41-1.93,2.18-3.63,4.56-5.64,6.65-1.79,1.85-3.42,3.75-4.37,6.17-.04.11-.16.18-.22.28-.52.84-1.12,1.65-1.52,2.54-.71,1.58-1.41,3.1-2.79,4.27-.56.47-.93,1.31-1.1,2.05-.41,1.74-1.07,3.31-2.22,4.72-.61.75-1.06,1.69-1.32,2.63-.43,1.55-1.05,2.92-2.3,3.97-.96.8-1.45,1.84-1.72,3.07-.18.82-.66,1.6-1.1,2.34-.84,1.44-1.75,2.85-2.63,4.27-.44.71-.91,1.4-1.34,2.11-.46.78-.95,1.55-1.32,2.38-.6,1.3-.91,2.79-1.72,3.94-1.01,1.43-1.76,2.9-2.37,4.53-1.1,2.93-3.2,5.39-4.08,8.44-.06.22-.2.47-.38.6-1.65,1.23-2.48,3.08-3.66,4.67-1.34,1.81-2.23,3.74-2.83,5.89-.28,1-.85,1.97-1.5,2.8-1.01,1.28-1.77,2.6-2.14,4.22-.26,1.13-.81,2.24-1.44,3.23-.92,1.44-1.73,2.85-1.71,4.64.02,1.35-.61,2.49-1.71,3.29-1.2.87-1.8,2.04-2.22,3.44-.33,1.12-1.02,2.14-1.54,3.21-.62,1.28-1.2,2.58-1.84,3.85-.42.84-.72,1.92-1.41,2.43-2.31,1.69-4.32,3.81-7.06,4.89-.64.25-1.23.75-1.72,1.25-.78.8-1.46,1.69-2.17,2.55-.83,1-.68,2.08.45,2.73.5.29,1.11.48,1.69.53,1.95.17,3.66-.58,5.05-1.82,1.7-1.51,3.41-2.9,5.75-3.22.27-.04.55-.15.77-.31,1.67-1.22,3.43-2.34,4.96-3.72,2.87-2.6,5.66-5.3,8.38-8.07,1.45-1.47,2.57-3.29,4.07-4.7,1.13-1.06,2.18-2.07,2.85-3.48.23-.49.67-.89,1.01-1.34,1.66-2.19,3.31-4.38,4.98-6.56,1.61-2.08,3.2-4.19,4.88-6.21,1.77-2.13,3.67-4.16,5.47-6.28,1.21-1.43,2.32-2.94,3.49-4.41,1.86-2.34,3.65-4.73,5.6-7,2.12-2.47,4.39-4.83,6.59-7.23.16-.18.36-.32.52-.49,1.92-1.97,3.85-3.92,5.74-5.91,1.72-1.82,3.35-3.73,5.11-5.5,1.63-1.64,3.38-3.16,5.1-4.7,1.9-1.7,3.79-3.41,5.76-5.01,3.36-2.73,6.66-5.49,9.14-9.09.38-.55.86-1.04,1.31-1.55,1.74-1.96,3.49-3.91,5.21-5.88.22-.26.27-.66.45-.97.62-1.14,1.3-2.26,1.9-3.41.69-1.33,1.33-2.69,1.98-4.04.39-.82.68-1.7,1.12-2.49.68-1.22,1.45-2.39,2.19-3.57.34-.54.66-1.12,1.1-1.55,2.17-2.11,4.38-4.19,6.58-6.27.26-.24.6-.4.87-.64,2.03-1.79,4.08-3.55,6.05-5.4,1.54-1.45,2.96-3.02,4.42-4.54,1.8-1.86,3.61-3.7,5.36-5.6.41-.45.59-1.12.87-1.69.32-.64.56-1.33.96-1.91.91-1.31,2.03-2.49,2.81-3.87,1.17-2.06,2.98-3.79,3.33-6.3.06-.42.44-.91.81-1.15,1.25-.82,2.55-1.59,3.87-2.31,4.07-2.23,8.34-2.03,12.7-1.1,1.67.35,3.39.69,5.07.63,1.89-.07,3.78-.58,5.66-.93,3.57-.67,7.16-1.27,10.7-2.09,1.93-.45,3.76-1.3,5.66-1.93,2.38-.78,4.71-.68,6.98.48.95.48,1.95.95,2.98,1.19,1.91.44,3.87.62,5.78,1.06,5,1.15,10.06,1.34,15.15.96,10.41-.79,20.83-1.41,31.27-1.03,3.01.11,6.01.81,9.01,1.27,3.19.49,6.36,1.27,9.57,1.48,6.45.42,12.83-.32,19.16-1.65,3.2-.67,6.49-.92,9.72-1.45,1.57-.26,3.11-.66,4.64-1.1,2.18-.63,4.3-1.76,6.5-1.95,4.21-.36,8.47-.29,12.7-.23,1.94.03,3.89.41,5.81.77,1.92.36,3.79,1,5.72,1.3,2.68.42,5.38.74,8.09.91,4.24.27,8.49.36,12.62-.85,1.26-.37,2.43-1.13,3.7-1.33,2.59-.41,5.22-.65,7.84-.81,2.02-.13,3.23-.97,3.97-2.85,1.18-2.98,1.64-6.07,1.84-9.24.35-5.54.96-11.08-.17-16.61-.42-2.07-.79-4.12-1.83-6.04-.7-1.29-1.06-2.85-1.24-4.33-.46-3.81-.86-7.59-2.06-11.29-.74-2.31-.88-4.86-.99-7.32-.12-2.75-.01-5.51.2-8.26.16-2.06.33-4.19,1.01-6.11,2.26-6.37,1.83-12.63-.19-18.94-.58-1.82-1.08-3.7-1.31-5.59-.69-5.71-1.21-11.4-2.8-17-1.09-3.84-1.13-7.97-1.79-11.95-.54-3.29-.96-6.57-.49-9.9.17-1.19.31-2.38.48-3.56.5-3.56,1.01-64.46,1.52-68.02.31-2.17.62-4.33.9-6.51.08-.63.07-1.28.09-1.92.22-6.35.58-12.72-.71-19.01-.77-3.74-1.11-7.5-1.09-11.32.05-7.12.01-14.24.01-21.36Z"/>
  <path class="cls-2" d="M563.34,47.91c0,7.12.03,14.24-.01,21.36-.02,3.82.32,7.57,1.09,11.32,1.29,6.29.93,12.65.71,19.01-.02.64,0,1.28-.09,1.92-.28,2.17-.6,4.34-.9,6.51-.5,3.56-1.01,64.46-1.52,68.02-.17,1.19-.31,2.38-.48,3.56-.47,3.33-.05,6.61.49,9.9.65,3.98.69,8.11,1.79,11.95,1.59,5.6,2.11,11.29,2.8,17,.23,1.89.72,3.77,1.31,5.59,2.02,6.3,2.45,12.56.19,18.94-.68,1.92-.86,4.06-1.01,6.11-.21,2.74-.32,5.51-.2,8.26.11,2.46.25,5.01.99,7.32,1.2,3.71,1.6,7.48,2.06,11.29.18,1.48.54,3.04,1.24,4.33,1.04,1.92,1.41,3.97,1.83,6.04,1.13,5.52.52,11.06.17,16.61-.2,3.17-.66,6.26-1.84,9.24-.75,1.88-1.95,2.72-3.97,2.85-2.62.17-5.25.4-7.84.81-1.27.2-2.44.96-3.7,1.33-4.14,1.21-8.39,1.12-12.62.85-2.71-.17-5.41-.5-8.09-.91-1.93-.3-3.8-.94-5.72-1.3-1.92-.36-3.87-.74-5.81-.77-4.23-.07-8.49-.13-12.7.23-2.21.19-4.32,1.32-6.5,1.95-1.53.44-3.07.84-4.64,1.1-3.23.53-6.52.77-9.72,1.45-6.33,1.33-12.71,2.07-19.16,1.65-3.21-.21-6.38-.99-9.57-1.48-3-.46-5.99-1.16-9.01-1.27-10.44-.38-20.86.24-31.27,1.03-5.08.39-10.14.19-15.15-.96-1.91-.44-3.87-.62-5.78-1.06-1.03-.24-2.03-.7-2.98-1.19-2.27-1.16-4.6-1.26-6.98-.48-1.89.62-3.73,1.48-5.66,1.93-3.54.82-7.13,1.42-10.7,2.09-1.88.35-3.76.86-5.66.93-1.68.06-3.41-.28-5.07-.63-4.36-.93-8.63-1.13-12.7,1.1-1.32.72-2.62,1.49-3.87,2.31-.37.24-.75.73-.81,1.15-.35,2.51-2.16,4.24-3.33,6.3-.78,1.38-1.9,2.56-2.81,3.87-.4.58-.65,1.27-.96,1.91-.28.57-.46,1.24-.87,1.69-1.75,1.9-3.57,3.74-5.36,5.6-1.47,1.52-2.89,3.09-4.42,4.54-1.97,1.85-4.02,3.61-6.05,5.4-.27.24-.61.39-.87.64-2.2,2.08-4.41,4.15-6.58,6.27-.45.44-.76,1.02-1.1,1.55-.75,1.18-1.51,2.35-2.19,3.57-.44.79-.73,1.67-1.12,2.49-.64,1.35-1.29,2.71-1.98,4.04-.6,1.15-1.27,2.27-1.9,3.41-.17.31-.22.72-.45.97-1.72,1.97-3.47,3.92-5.21,5.88-.45.51-.93.99-1.31,1.55-2.48,3.6-5.79,6.36-9.14,9.09-1.97,1.6-3.86,3.32-5.76,5.01-1.73,1.54-3.47,3.07-5.1,4.7-1.77,1.77-3.39,3.68-5.11,5.5-1.89,1.99-3.82,3.94-5.74,5.91-.17.17-.36.32-.52.49-2.21,2.4-4.47,4.76-6.59,7.23-1.94,2.26-3.74,4.66-5.6,7-1.17,1.47-2.28,2.98-3.49,4.41-1.79,2.12-3.69,4.15-5.47,6.28-1.68,2.02-3.27,4.12-4.88,6.21-1.68,2.17-3.32,4.37-4.98,6.56-.34.45-.77.84-1.01,1.34-.67,1.41-1.72,2.43-2.85,3.48-1.5,1.41-2.62,3.22-4.07,4.7-2.72,2.76-5.5,5.46-8.38,8.07-1.53,1.38-3.29,2.5-4.96,3.72-.22.16-.5.28-.77.31-2.34.32-4.05,1.71-5.75,3.22-1.39,1.24-3.1,1.99-5.05,1.82-.58-.05-1.19-.24-1.69-.53-1.13-.65-1.27-1.73-.45-2.73.71-.86,1.39-1.76,2.17-2.55.49-.5,1.08-.99,1.72-1.25,2.74-1.08,4.75-3.21,7.06-4.89.69-.51.99-1.59,1.41-2.43.64-1.27,1.22-2.57,1.84-3.85.52-1.07,1.21-2.09,1.54-3.21.41-1.4,1.02-2.57,2.22-3.44,1.09-.8,1.72-1.93,1.71-3.29-.03-1.79.79-3.2,1.71-4.64.63-.99,1.19-2.1,1.44-3.23.37-1.62,1.14-2.94,2.14-4.22.65-.82,1.22-1.8,1.5-2.8.6-2.15,1.49-4.08,2.83-5.89,1.18-1.59,2.01-3.44,3.66-4.67.18-.13.32-.38.38-.6.88-3.05,2.98-5.51,4.08-8.44.61-1.62,1.36-3.1,2.37-4.53.81-1.14,1.12-2.63,1.72-3.94.38-.82.86-1.6,1.32-2.38.43-.72.9-1.41,1.34-2.11.88-1.42,1.79-2.82,2.63-4.27.44-.74.92-1.52,1.1-2.34.27-1.23.76-2.27,1.72-3.07,1.25-1.05,1.87-2.42,2.3-3.97.26-.93.71-1.88,1.32-2.63,1.15-1.41,1.81-2.98,2.22-4.72.18-.74.55-1.58,1.1-2.05,1.38-1.17,2.08-2.69,2.79-4.27.4-.9,1-1.7,1.52-2.54.06-.1.18-.17.22-.28.95-2.42,2.58-4.31,4.37-6.17,2.02-2.09,3.72-4.47,5.64-6.65,2.08-2.36,4.42-4.49,5.81-7.41.31-.65.93-1.21,1.52-1.66,1.05-.81,1.77-1.84,1.86-3.1.23-3.19,1.2-6.15,2.34-9.11.74-1.91.9-4.03,1.34-6.06.13-.58.18-1.25.5-1.71,1.43-2.05,2.85-4.11,4.46-6.02,1.35-1.59,1.39-2.86-.39-3.94-2.11-1.28-4.25-2.08-6.92-1.47-3.21.73-6.55.88-9.83,1.36-.84.12-1.93.29-2.41.86-1.66,1.97-4.08,2.59-6.12,3.86-2.86,1.78-5.93,2.2-9.2,2.02-7.26-.42-14.52-.95-21.79-1.1-3.53-.07-7.07.6-10.61.95-.99.1-1.98.27-2.97.41-2.26.31-4.4.88-6.47,1.99-3.94,2.11-8.3,2.04-12.63,1.94-2.61-.06-4.75-1.22-6.99-2.5-1.82-1.04-4.16-1.57-6.28-1.61-3.74-.07-7.49.37-11.23.67-.81.07-1.71.31-2.38.76-3.09,2.02-6.5,1.76-9.88,1.42-2.61-.26-5.18-.96-7.79-1.34-3.16-.46-6.34-.75-9.51-1.21-2.85-.41-5.68-.93-8.51-1.42-2.53-.44-5.01-.17-7.51.3-2.47.46-4.99.7-7.44,1.25-1.52.34-2.94,1.12-4.43,1.65-1.42.51-2.82,1.1-4.29,1.39-2.58.51-5.23.71-7.8,1.25-1.39.29-2.65,1.13-4.03,1.47-2.43.6-4.92,1.02-7.38,1.5-1.17.23-2.34.56-3.53.65-1.45.12-2.92.15-4.36.01-1.1-.11-2.18-.5-3.25-.82-2.25-.68-4.47-1.44-6.72-2.09-1.22-.35-2.49-.49-3.72-.78-1.32-.31-2.65-.58-3.91-1.06-1.09-.42-1.39-1.72-.57-3.12,1.07-1.84,1.42-3.83,1.58-5.85.13-1.62.13-3.29-.11-4.89-.13-.91-.65-1.97-1.34-2.57-2.89-2.51-3.4-5.72-3.09-9.26.38-4.42.78-8.84,1.03-13.27.11-1.89-.36-3.71-1.65-5.26-.58-.69-.93-1.57-1.37-2.37-.81-1.46-1.76-2.86-2.37-4.4-.64-1.61-1.16-3.32-1.37-5.03-.36-2.93-.3-5.87,0-8.84.35-3.33-.17-6.7-1.15-9.95-.1-.33-.28-.68-.52-.93-2.97-3.16-2.84-7.03-1.39-10.47,1.72-4.08,2.11-8.25,2.42-12.49.31-4.22.47-8.46.55-12.7.05-2.59-.15-5.19-.31-7.79-.17-2.67.06-5.27,1.05-7.77.26-.66.57-1.34,1.01-1.89,1.68-2.12,1.99-4.58,1.86-7.14-.07-1.27-.69-2.3-1.82-2.93-1.25-.7-1.8-1.78-1.74-3.18.14-3.43.24-6.87.51-10.29.07-.94.49-1.99,1.07-2.74,1.51-1.93,1.56-61.3.76-63.45-.26-.71-.73-1.34-.96-2.06-.37-1.16-.85-2.37-.85-3.55-.01-2.43.2-4.87.45-7.29.08-.75.49-1.5.88-2.18,2.27-4,2.65-8.07.48-12.21-.54-1.03-.53-1.91,0-2.94,1.53-3,1.68-5.98-.55-8.75-1.21-1.5-1.45-3.26-1.56-5.06-.08-1.35-.03-2.72.02-4.08.09-2.18-.4-4.21-1.39-6.13-1.02-1.97-1.25-3.99-.7-6.16.79-3.1,1.41-6.24,2.24-9.32.23-.86.9-1.64,1.5-2.35.46-.54,1.15-.86,1.69-1.33.97-.84,1.96-1.11,3.18-.51,1.09.54,2.17.21,3.23-.26,1.67-.74,3.39-1.36,5.04-2.13.78-.36,1.67-.81,2.11-1.48,1.59-2.41,3.95-2.83,6.44-2.5,3.24.43,6.49,1,9.64,1.86,2.78.76,5.27.64,7.89-.59,3.02-1.42,6.28-1.41,9.54-.95,2.15.31,4.19.75,5.78,2.53.61.68,1.84.92,2.83,1.12,2.46.51,4.98.73,7.41,1.33,4.18,1.04,8.31.71,12.49.06,3.07-.48,6.18-.88,9.28-1.04,4.83-.24,9.67-.2,14.51-.34,1.43-.04,2.86-.31,4.28-.47,2.22-.24,4.45-.4,6.65-.75,1.2-.19,2.42-.55,3.5-1.09,2.28-1.13,4.69-1.58,7.18-1.68,8.25-.34,16.46.52,24.67,1.03,2,.13,3.94,1.18,5.92,1.76,1.45.42,2.9.91,4.38,1.11,1.45.2,2.95.09,4.43.1,1.2,0,2.15-.51,2.9-1.45,2.27-2.85,5.18-3.65,8.74-3,5.2.95,10.46,1.52,15.73.62,1.49-.25,2.92-.79,4.39-1.17,6.58-1.71,13.08-.89,19.57.61,3.14.73,6.34.98,9.53.54,1.04-.15,2.13-.73,2.97-1.39,1.25-.99,2.6-1.53,4.15-1.67,4.04-.35,7.97.34,11.87,1.28,2.66.64,5.25.94,7.83-.34,1.71-.85,3.47-1.61,5.26-2.29.56-.21,1.42-.25,1.91.03,1.48.86,3.04,1.21,4.7,1.2,3.03-.03,6.07-.05,9.1-.2,1.46-.07,2.76-.64,3.88-1.69,2.12-1.98,4.9-2.09,7.55-2.24,3.34-.19,5.85-1.81,7.97-4.12,2.04-2.23,4.54-2.2,6.3.28,1.39,1.94,3.06,3.56,5.12,4.8.74.44,1.37,1.09,1.98,1.71,1.01,1.04,2.22,1.54,3.64,1.56.84,0,1.69-.07,2.52,0,2.56.23,4.74-.41,6.39-2.51.3-.37.83-.63,1.31-.77,3.08-.92,5.96-.84,8.47,1.61.67.65,1.69,1.12,2.63,1.29,3.3.62,6.62,1.11,9.95,1.55,1.21.16,2.51.25,3.68-.01,3.33-.73,6.82-.96,9.71-3.15,1.01-.77,2.46-.86,3.42-.13,3.05,2.32,6.68,2.38,10.17,2.77,6.07.69,12.18,1,18.28,1.51,5.93.5,11.86,1.15,17.8,1.56,5.35.37,10.72.34,16-.77.87-.18,1.65-.75,2.5-1.09,1.51-.6,3-1.44,4.57-1.69,2.71-.43,5.35-.91,7.72-2.37,2.09-1.28,4.46-1.5,6.82-1.61,3.36-.16,6.52-1.02,9.63-2.27,1.66-.67,3.45-1.02,5.16-1.55.56-.18,1.24-.34,1.61-.74,2.43-2.61,5.62-2.99,8.84-2.88,4.47.15,8.92.77,13.39.96,3.14.14,6.3-.01,9.45-.17,2.93-.14,5.74-.88,8.48-1.97,1.99-.79,2.92-.2,3.4,1.85.18.77.35,1.57.35,2.36.02,8.52.02,17.04.02,25.56.08,0,.17,0,.25,0Z"/>
</svg>