<?xml version="1.0" encoding="UTF-8"?>
<svg id="Layer_1" data-name="Layer 1" xmlns="http://www.w3.org/2000/svg" viewBox="0 0 195.69 213.77">
  <defs>
    <style>
      .cls-1 {
        fill: #fff;
        stroke-width: 0px;
      }
    </style>
  </defs>
  <path class="cls-1" d="M87.57,93.23c-.63-8.16-8.56-12.67-15.66-14.69-8.5-2.42-17.55-1.35-24.07,4.82-6.46,6.12-6.7,14.27-.57,20.58,6.12,6.3,16.49,9.54,25.11,9.12-.32-.88-.63-1.76-.95-2.65-6,5.01-9.22,11.74-1.63,16.88,7.13,4.84,17.38,5.86,25.75,6.5,8.66.67,17.72.29,26.27-1.14,8.89-1.49,19.05-5.68,18.69-16.2-.94.14-1.89.27-2.83.41,3.04,11.56,20.24,12.85,29.47,9.24,12.89-5.05,15.48-21.45,10.75-33.01-9.21-22.51-41.72-15.41-58.74-8.22-1.89.8-.8,3.71,1.13,3.2,5.1-1.33,7.3-4.95,4.68-9.75-2.91-5.34-9.59-9.15-14.98-11.41-6.48-2.72-12.98-2.02-18.45,2.64-6.23,5.31-8.46,14.28-8.68,22.12-.06,2.11,3.34,3.26,3.41.89.36-11.03,6.7-26.95,20.55-23,4.18,1.19,23.33,11.98,12.33,15.3.5,1.01,1.01,2.02,1.51,3.03,14.34-6.7,39.01-12.18,51.29,1.08,8.08,8.73,6.84,24.98-2.44,32.23-7.28,5.69-26.21,5.68-29.09-5.16-.45-1.68-2.89-1.34-2.83.41.34,9.38-10.24,12.17-17.65,13.43-7.36,1.25-15.09,1.33-22.54,1.07-7.01-.25-14.17-1.39-20.84-3.58-2.92-.96-6.34-2.36-8.15-4.98-2.4-3.47,2.34-7.62,4.65-9.56.99-.83.47-2.72-.95-2.65-12.19.66-35.83-9.6-23.18-24.25,5.27-6.11,13.29-6.98,20.83-5.55,6.69,1.27,15.1,5.33,16.2,12.81.15,1.03,1.72,1.14,1.63-.01h0Z"/>
  <path class="cls-1" d="M44.89,99.7c-7.41-4.42-14.95.83-15.31,8.94-.38,8.66,8.2,9.81,14.87,10.06,2.05.08,1.52-3.03-.32-3.16-11.61-.81-11.84,15.23-6.1,21.73,3.16,3.58,9.67,4.46,14.08,4.94,4.35.48,10.57.07,12.29-4.77.62-1.75-1.6-3.84-3.04-2.2-8.15,9.36,11.15,13.46,16.84,14.26,5.2.73,11.36.77,15.73-2.52,4.83-3.64,4.59-12.09-.42-15.32-2.4-1.54-3.91,2.39-1.64,3.76,2.78,1.67,1.75,5.86.2,7.87-1.51,1.96-4.6,2.38-6.87,2.62-2.87.29-5.65.05-8.49-.41-2.98-.48-16.71-2.76-12.55-7.67-1.01-.73-2.03-1.46-3.04-2.2-2.17,6.35-15.96,2.35-19.97.05-6.31-3.63-4.75-17.05,3.28-16.98l-.32-3.16c-4.56.14-10.9.25-11.78-5.46-1.19-7.71,5.86-10.28,11.92-8.26,1.35.45,1.6-1.54.61-2.13h0Z"/>
  <path class="cls-1" d="M41.79,99.54c-.45,2.61-2,4.77-3.54,6.86-1.04,1.41-2.49,2.92-2.42,4.76.02.52.62.84,1.06.59,1.8-1.03,3.07-3.97,4.15-5.71,1.24-2,2.12-3.97,2.11-6.34,0-.77-1.21-.98-1.35-.17h0Z"/>
  <path class="cls-1" d="M49.53,102.84c-2.31,2.37-3.87,5.29-5.51,8.14-1.75,3.03-4.21,5.48-5.98,8.4-.22.36.25.85.62.73,2.51-.82,4.01-3.84,5.28-5.98,2.11-3.54,3.76-7.35,6.39-10.56.39-.48-.33-1.19-.78-.72h0Z"/>
  <path class="cls-1" d="M52.59,110.67c-3.15,2.51-5.51,5.86-7.79,9.15-2.24,3.23-5.03,6.48-6.79,9.98-.21.42.36,1.05.78.72,2.79-2.16,4.59-5.72,6.5-8.64,2.43-3.71,5.07-7.07,8.05-10.34.4-.43-.27-1.27-.75-.88h0Z"/>
  <path class="cls-1" d="M62.49,110.82c-3.43,4.52-6.96,8.96-10.34,13.52-3.02,4.07-6.67,8.25-8.7,12.92-.24.54.5,1.14.93.67,3.39-3.72,5.97-8.43,8.92-12.52,3.33-4.62,6.66-9.24,9.93-13.9.33-.47-.36-1.17-.74-.68h0Z"/>
  <path class="cls-1" d="M69.38,115.89c-2.22,4.98-5.44,8.8-9.23,12.65-2.77,2.82-8.2,7.08-8.41,11.3-.03.55.52,1.14,1.08.79,1.88-1.19,2.94-3.52,4.33-5.24,1.73-2.15,3.68-4.12,5.5-6.19,3.29-3.74,6.78-7.91,7.67-12.95.09-.51-.68-.91-.92-.37h0Z"/>
  <path class="cls-1" d="M71.4,128.34c-1.36,2.4-3.09,4.32-5,6.3-1.46,1.51-3.92,3.6-3.69,5.88.05.52.58.81,1.03.58,1.14-.57,1.61-1.84,2.34-2.85.84-1.16,1.78-2.26,2.69-3.37,1.51-1.84,3-3.82,3.49-6.2.1-.51-.61-.81-.87-.35h0Z"/>
  <path class="cls-1" d="M80.54,132.65c-1.14,2.14-3.03,3.71-4.52,5.59-.72.9-1.87,3.24.07,3.43.24.02.56-.13.7-.33,1.74-2.56,4.32-4.87,5.23-7.88.28-.92-.95-1.8-1.47-.81h0Z"/>
  <path class="cls-1" d="M90.27,135.12c-.36.51-1.17,1.09-1.63,1.56-.92.95-1.98,1.78-3,2.62-1.35,1.12-4.04,2.78-3.4,4.84.06.18.24.38.44.41,1.91.27,3.78-2.41,5.02-3.59.92-.88,1.81-1.76,2.59-2.76.3-.39.56-.81.8-1.25.26-.48.09-.8.2-1.28.12-.51-.67-1.06-1.02-.57h0Z"/>
  <path class="cls-1" d="M93.43,139.6c-.76.53-1.49,1.09-2.2,1.68-.69.58-1.48,1.19-1.86,2.03-.17.37.26.72.59.55.7-.35,1.23-1,1.79-1.53.71-.67,1.46-1.29,2.23-1.88.47-.36-.07-1.18-.56-.84h0Z"/>
</svg>