<?xml version="1.0" encoding="UTF-8"?>
<svg id="Layer_1" data-name="Layer 1" xmlns="http://www.w3.org/2000/svg" viewBox="0 0 158.22 98.05">
  <defs>
    <style>
      .cls-1 {
        stroke: #231f20;
        stroke-linecap: square;
        stroke-miterlimit: 10;
      }

      .cls-1, .cls-2 {
        fill: #000;
      }

      .cls-2, .cls-3 {
        stroke-width: 0px;
      }

      .cls-3 {
        fill: #bc2527;
      }
    </style>
  </defs>
  <path class="cls-1" d="M8.07,78.33c0-6.95,0-13.9,0-20.86.17-.92.38-1.83.52-2.76.52-3.58.91-7.17,1.56-10.73.88-4.79,1.87-9.55,1.6-14.45-.05-.84-.21-1.68-.18-2.52.14-4.26.32-8.52.5-12.78.08-1.95.93-2.8,2.93-2.82,2.61-.03,5.23.13,7.83,0,1.91-.09,3.1.74,4.04,2.26,1.14,1.84,2.41,3.61,3.48,5.49.44.77.74,1.77.69,2.64-.18,3.49-.51,6.97-.79,10.45-.16,1.98-.2,4-.57,5.94-1.06,5.59-1.62,11.2-1.56,16.89,0,.53-.08,1.06-.12,1.59-.21,2.81-.41,5.61-.63,8.61h5.47c.2-4.57.31-9.27.64-13.96.25-3.43.86-6.82,1.19-10.25.29-2.95.67-5.92.55-8.87-.21-5.31-.91-10.62.15-15.9.44-2.19.63-4.6,2.92-5.92,2.05,0,4.1,0,6.15,0,.18.09.35.24.53.25,3.43.27,6.18,1.61,7.95,4.74,1.44,2.55,3.05,5,4.61,7.48,1.92,3.07,2.93,6.4,3,10.03.03,1.46.14,2.92.3,4.37.58,5.15,1.25,10.29,1.01,15.5-.02.44,0,.87,0,1.34,3.37-.06,6.64-.51,9.91.25-1.52-2.37-3.13-4.64-4.5-7.05-3.04-5.34-4.91-11.06-4.86-17.28.02-1.76.33-3.52.51-5.27.35-3.35,1.25-6.48,4.01-8.66,4.12-3.26,8.62-5.56,14.12-5.18,4.45.3,7.76,2.2,9.65,6.32.46,1,.8,2.06,1.08,2.78.68-1.02,1.39-2.16,2.16-3.26,1.01-1.43,2.31-2.56,4.12-2.63,2.42-.08,4.86-.06,7.27.13,1.74.13,3.52.41,5.17.97,2.2.75,4.28,1.83,6.33,2.73-.05-.81-.19-1.82-.16-2.83.07-2.23.91-3.25,2.73-3.39,1.86-.14,3.73-.11,5.58-.3,2.16-.23,3.28.95,4.12,2.68.54,1.12,1.08,2.23,1.68,3.31.69,1.23,1.46,2.42,2.26,3.74.35-2.31.6-4.41,1.01-6.47.39-1.96,1.67-3.85,4.26-3.8,1.02.02,2.06-.08,3.07.06,2.39.34,4.56,1.15,5.79,3.47,1.42,2.67,2.82,5.34,4.24,8.01v8.02c-.1.17-.22.34-.28.52-.66,2.14-1.24,4.32-1.98,6.43-1.28,3.67-2.78,7.26-3.95,10.96-.58,1.83-.5,3.85-.95,5.73-.72,2.99-1.7,5.92-2.43,8.91-.93,3.76.44,7.47.39,11.22-.04,2.77.27,5.56.06,8.32-.2,2.67-2.74,4.99-4.99,4.84-1.93-.13-3.86-.44-5.77-.75-2.02-.33-3.06-1.65-3.67-3.56-.61-1.92-1.54-3.73-2.26-5.62-.31-.81-.57-1.68-.62-2.54-.17-3.06-.2-6.13-.35-9.19-.32-6.24-.68-12.49-1.02-18.73-.03-.51,0-1.02,0-1.56-3.24,2.39-6.9,1.78-10.46,1.9.86,2.22,1.62,4.29,2.45,6.33.89,2.21,1.83,4.39,2.75,6.59.78,1.88,1.95,3.69,2.25,5.64.5,3.33.83,6.78.53,10.12-.24,2.69-1.2,5.45-2.43,7.88-1.48,2.91-4.25,4.62-7.35,5.66h-6.95c-.14-.08-.26-.21-.41-.25-2.59-.6-5.02-1.61-6.85-3.57-1.8-1.92-3.4-4.03-5-5.95-.97,2.4-2.86,4.26-5.31,5.61-2.77,1.52-5.77,2.06-8.88,2.39-3.41.37-6.6-.04-9.65-1.55-.71-.35-1.32-.92-2.05-1.44,0,3.05-1.82,4.29-4.26,3.98-.61-.08-1.25.03-1.87-.03-2.86-.29-5.53-.99-6.99-3.83-1.33-2.61-2.61-5.24-3.78-7.58-.34,2.08-.69,4.53-1.16,6.95-.32,1.62-1.39,2.38-3.08,2.34-1.02-.02-2.04-.28-3.04-.22-2.28.13-3.95-.71-4.94-2.93-.29,1.96-1.57,2.27-3.11,2.42-4.61.47-9.2,1.1-13.82,1.5-1.75.15-3.54-.23-5.31-.2-1.6.02-2.57-.7-3.25-2.06-1.14-2.28-2.33-4.54-3.49-6.81ZM62.72,57.83c0,4.58-.06,9.02.04,13.46.03,1.21.77,2.23,1.95,2.85,2.6,1.39,5.17,2.54,8.3,2.4,2.46-.11,4.75-.48,6.94-1.55,2.32-1.14,3.89-2.96,4.03-5.58.22-4.17,1.31-8.23.7-12.52-.52-3.67-1.52-6.99-3.55-10.05-1.67-2.52-3.35-5.05-4.97-7.6-1.57-2.47-2.81-5.12-2.89-8.09-.07-2.7.2-5.41.2-8.12,0-2.04,1.51-2.55,2.94-3.15,1.48-.62,2.87-.46,4.05.75,1.11,1.14,1.72,2.47,1.68,4.08-.04,1.74-.08,3.47-.06,5.21,0,.39.15,1.06.37,1.13,1.96.63,3.95,1.16,5.95,1.73.12-.47.19-.59.18-.72-.21-3.93-.31-7.87-.67-11.79-.22-2.37-1.52-4.43-3.88-4.97-5.42-1.22-10.51-.42-14.77,3.54-1.36,1.26-2.26,2.76-2.52,4.59-.24,1.67-.45,3.35-.57,5.04-.51,7.21,1.79,13.6,5.83,19.43,1.47,2.12,3.38,3.97,4.62,6.21,2.64,4.79,2.45,9.8.22,14.74-1.03,2.28-2,2.71-4.47,2.15-1.83-.42-2.57-1.31-2.58-3.16,0-2.81-.07-5.62.07-8.42.07-1.43-.59-1.84-1.76-1.83-1.82.03-3.63.15-5.37.22ZM91.05,55.66c0,4.07-.08,7.8.02,11.53.13,4.54,3.02,7.11,6.83,8.79,2.1.93,4.38,1.23,6.69,1.51,1.91.24,3.67-.08,5.03-1.04,2.26-1.59,3.81-3.85,3.76-6.87-.04-2.23-.04-4.46.03-6.68.13-4.01-.71-7.78-2.61-11.31-2.72-5.06-5.41-10.14-8.16-15.18-1.12-2.04-1.61-4.15-1.1-6.42.43-1.95.94-3.89,1.43-5.83.37-1.47,1.25-2.05,2.75-1.87,3,.36,4.83,2.23,4.75,5.26-.06,2.25-.48,4.5-.76,6.75-.18,1.51.02,1.76,1.51,1.71,1.73-.06,3.47-.19,5.2-.22,1.13-.02,1.59-.5,1.57-1.64-.05-2.72.03-5.44-.07-8.15-.03-.8-.23-1.79-.73-2.35-2.3-2.56-5.03-4.61-8.49-5.21-2.84-.49-5.75-.57-8.62-.88-1.69-.18-2.73.17-3.39,1.68-.71,1.62-1.52,3.33-1.62,5.04-.19,3.08-.06,6.22.29,9.29.23,2.03.84,4.11,1.72,5.96,2.07,4.38,4.34,8.68,6.64,12.95,2.99,5.57,2.8,11.56,2.45,17.58-.06,1.09-.73,1.68-1.87,1.65-1.47-.04-2.94-.02-4.41-.1-1.61-.08-2.54-.77-2.74-2.38-.41-3.28-.74-6.57-.91-9.87-.1-1.91-.4-2.65-2.27-3.23-.79-.24-1.64-.27-2.89-.47ZM58.01,76.98c.12-.13.25-.25.37-.38-.05-.47-.05-.95-.16-1.41-.47-2.02-1.07-4.02-1.45-6.06-.62-3.38-1.12-6.78-1.65-10.17-.21-1.32-.46-2.64-.54-3.96-.37-6.16-.59-12.34-1.08-18.49-.26-3.28-.93-6.53-1.46-9.79-.35-2.13-.97-4.22-1.14-6.36-.19-2.34-2.01-5.14-4.33-5.65-1.94-.42-3.95-.59-5.94-.73-.38-.03-1.05.53-1.15.94-.33,1.23-.61,2.52-.62,3.78-.06,5.03.02,10.07-.03,15.1-.03,2.31-.1,4.64-.43,6.92-.95,6.64-1.79,13.27-1.78,19.99.01,4.56-.16,9.13-.25,13.78.79,0,1.71-.06,2.62.01,1.38.1,1.9-.56,1.92-1.85.06-3.47.14-6.94.22-10.41.02-.93-.05-1.87.06-2.79.16-1.36.88-1.83,2.2-1.66,1.32.17,2.64.35,3.97.43,2.43.14,3.74,1.39,4.01,3.78.42,3.64.85,7.28,1.4,10.9.11.73.57,1.62,1.16,2,1.27.83,2.72,1.39,4.1,2.06ZM23.19,14.99c-2.23,0-4.27.05-6.32-.02-.98-.03-1.31.25-1.32,1.27-.05,5.65-.13,11.3-.3,16.95-.06,2.08-.22,4.19-.66,6.22-1.82,8.39-2.77,16.88-3.04,25.45-.1,3.07.05,6.15-.07,9.22-.05,1.32.54,1.94,1.66,2.12,1.31.21,2.65.3,3.98.38,4.01.25,8.01.36,11.94-.69.56-.15,1.38-.66,1.44-1.1.25-1.78.26-3.6.36-5.58-.68,0-1.16-.04-1.63,0-2.55.28-5.1.54-7.63.9-1.66.24-1.96.06-1.97-1.63,0-2.93-.07-5.86.01-8.79.14-4.89.81-9.71,1.65-14.54.91-5.29,1.52-10.65,1.91-16,.3-4.21.06-8.46.06-12.69,0-.43-.04-.87-.06-1.47ZM134.45,75.43c.04-.46.1-.76.09-1.06-.12-3.74-.05-7.49-.43-11.2-.35-3.39-.53-6.71.38-10.01.87-3.13,1.89-6.21,2.73-9.35,1.38-5.14,2.73-10.28,3.96-15.45.98-4.09,1.37-8.25,1.09-12.46-.02-.33-.27-.82-.52-.91-.73-.27-1.51-.39-2.28-.52-1.15-.2-1.84.18-2.02,1.47-.75,5.37-1.55,10.74-2.35,16.1-.07.48-.09,1.1-.39,1.38-.57.54-1.29,1.08-2.03,1.22-.38.07-1.12-.59-1.37-1.09-.63-1.26-1.18-2.59-1.59-3.94-1.35-4.47-2.6-8.97-3.95-13.44-.14-.46-.68-1.11-1.05-1.12-1.44-.05-2.89.12-4.33.21-.27,2.22.35,4.08,1.07,5.99,2.62,6.97,5.52,13.82,5.61,21.52.08,7.6.66,15.19,1.01,22.79.13,2.85.22,5.7.41,8.54.03.46.45,1.26.73,1.28,1.71.12,3.44.06,5.23.06ZM83.1,42.98c1.59,3.1,3.38,6.56,5.03,9.76,3.69-1.13,7.3-1.13,11.05,1.09-1.55-3.31-3-6.41-4.3-9.19-4.13-.58-8.06-1.14-11.78-1.66Z"/>
  <path class="cls-3" d="M62.72,57.83c1.74-.08,3.55-.2,5.37-.22,1.17-.02,1.83.4,1.76,1.83-.14,2.8-.07,5.61-.07,8.42,0,1.86.75,2.75,2.58,3.16,2.47.56,3.44.14,4.47-2.15,2.23-4.94,2.42-9.94-.22-14.74-1.23-2.24-3.15-4.09-4.62-6.21-4.04-5.83-6.34-12.22-5.83-19.43.12-1.68.33-3.36.57-5.04.26-1.83,1.16-3.33,2.52-4.59,4.26-3.96,9.35-4.76,14.77-3.54,2.36.53,3.66,2.6,3.88,4.97.36,3.92.47,7.86.67,11.79,0,.12-.06.25-.18.72-2-.57-3.99-1.09-5.95-1.73-.23-.07-.37-.74-.37-1.13-.02-1.74.02-3.47.06-5.21.04-1.61-.57-2.94-1.68-4.08-1.18-1.21-2.57-1.38-4.05-.75-1.42.6-2.94,1.11-2.94,3.15,0,2.71-.27,5.41-.2,8.12.08,2.97,1.31,5.62,2.89,8.09,1.63,2.55,3.3,5.08,4.97,7.6,2.03,3.06,3.03,6.38,3.55,10.05.61,4.29-.48,8.35-.7,12.52-.14,2.62-1.71,4.44-4.03,5.58-2.18,1.07-4.47,1.44-6.94,1.55-3.13.14-5.7-1.02-8.3-2.4-1.17-.63-1.92-1.64-1.95-2.85-.1-4.44-.04-8.89-.04-13.46Z"/>
  <path class="cls-3" d="M91.05,55.66c1.25.19,2.1.23,2.89.47,1.87.58,2.17,1.32,2.27,3.23.17,3.3.5,6.59.91,9.87.2,1.62,1.13,2.3,2.74,2.38,1.47.08,2.94.06,4.41.1,1.14.03,1.81-.55,1.87-1.65.35-6.02.55-12-2.45-17.58-2.3-4.27-4.57-8.57-6.64-12.95-.87-1.85-1.48-3.93-1.72-5.96-.35-3.07-.47-6.21-.29-9.29.1-1.71.92-3.42,1.62-5.04.66-1.51,1.7-1.86,3.39-1.68,2.87.31,5.78.39,8.62.88,3.46.6,6.19,2.65,8.49,5.21.5.56.7,1.55.73,2.35.09,2.71.02,5.43.07,8.15.02,1.13-.44,1.62-1.57,1.64-1.74.03-3.47.16-5.2.22-1.49.05-1.69-.2-1.51-1.71.27-2.25.7-4.49.76-6.75.07-3.03-1.75-4.9-4.75-5.26-1.5-.18-2.38.4-2.75,1.87-.49,1.94-1,3.88-1.43,5.83-.5,2.28-.01,4.38,1.1,6.42,2.76,5.04,5.44,10.12,8.16,15.18,1.9,3.54,2.74,7.3,2.61,11.31-.07,2.23-.07,4.46-.03,6.68.05,3.02-1.5,5.28-3.76,6.87-1.35.95-3.12,1.28-5.03,1.04-2.3-.29-4.59-.58-6.69-1.51-3.8-1.69-6.7-4.25-6.83-8.79-.1-3.73-.02-7.46-.02-11.53Z"/>
  <path class="cls-3" d="M58.01,76.98c-1.38-.67-2.83-1.23-4.1-2.06-.58-.38-1.05-1.28-1.16-2-.54-3.62-.98-7.26-1.4-10.9-.27-2.39-1.58-3.64-4.01-3.78-1.33-.08-2.65-.26-3.97-.43-1.32-.17-2.04.3-2.2,1.66-.11.92-.04,1.86-.06,2.79-.07,3.47-.16,6.94-.22,10.41-.02,1.29-.54,1.95-1.92,1.85-.91-.07-1.83-.01-2.62-.01.09-4.65.26-9.21.25-13.78-.02-6.72.83-13.36,1.78-19.99.33-2.28.4-4.61.43-6.92.06-5.03-.03-10.07.03-15.1.02-1.27.29-2.55.62-3.78.11-.4.78-.97,1.15-.94,1.99.14,4,.31,5.94.73,2.32.51,4.14,3.3,4.33,5.65.17,2.14.79,4.23,1.14,6.36.53,3.26,1.2,6.51,1.46,9.79.49,6.15.7,12.33,1.08,18.49.08,1.33.33,2.65.54,3.96.53,3.39,1.03,6.79,1.65,10.17.38,2.04.97,4.04,1.45,6.06.11.46.11.94.16,1.41-.12.13-.25.25-.37.38ZM49.29,40.93l.49-.06c-.56-2.82-1.1-5.65-1.71-8.47-.17-.77-.39-1.62-.87-2.22-.41-.51-1.23-1-1.83-.95-.45.04-.89.9-1.22,1.47-.21.36-.15.87-.27,1.29-1.12,4.18-1.59,8.44-1.61,12.75,0,1.14-.08,2.29-.19,3.43-.11,1.14.11,2.19,1.07,2.82.6.39,1.42.46,2.15.62,2.68.57,3.87-.33,3.95-3.09.07-2.53.01-5.07.01-7.6Z"/>
  <path class="cls-3" d="M23.19,14.99c.03.6.06,1.03.06,1.47,0,4.23.24,8.48-.06,12.69-.39,5.35-1,10.71-1.91,16-.83,4.83-1.51,9.65-1.65,14.54-.08,2.93-.02,5.86-.01,8.79,0,1.69.31,1.86,1.97,1.63,2.54-.36,5.09-.62,7.63-.9.47-.05.95,0,1.63,0-.11,1.98-.11,3.8-.36,5.58-.06.43-.88.95-1.44,1.1-3.92,1.05-7.93.94-11.94.69-1.33-.08-2.67-.17-3.98-.38-1.12-.18-1.71-.8-1.66-2.12.12-3.07-.03-6.15.07-9.22.27-8.57,1.22-17.06,3.04-25.45.44-2.03.6-4.14.66-6.22.17-5.65.25-11.3.3-16.95,0-1.01.34-1.3,1.32-1.27,2.04.07,4.09.02,6.32.02Z"/>
  <path class="cls-3" d="M134.45,75.43c-1.78,0-3.51.06-5.23-.06-.28-.02-.7-.82-.73-1.28-.19-2.84-.28-5.69-.41-8.54-.36-7.6-.93-15.19-1.01-22.79-.08-7.69-2.99-14.55-5.61-21.52-.71-1.91-1.34-3.76-1.07-5.99,1.43-.09,2.88-.26,4.33-.21.37.01.92.66,1.05,1.12,1.35,4.47,2.6,8.97,3.95,13.44.41,1.35.95,2.68,1.59,3.94.25.5.98,1.17,1.37,1.09.74-.14,1.46-.68,2.03-1.22.3-.28.32-.9.39-1.38.8-5.37,1.6-10.73,2.35-16.1.18-1.29.87-1.67,2.02-1.47.77.13,1.56.26,2.28.52.26.09.5.59.52.91.28,4.21-.11,8.37-1.09,12.46-1.24,5.17-2.59,10.31-3.96,15.45-.84,3.13-1.86,6.22-2.73,9.35-.91,3.3-.74,6.62-.38,10.01.39,3.71.31,7.47.43,11.2,0,.3-.05.6-.09,1.06Z"/>
  <path class="cls-2" d="M49.29,40.93c0,2.53.06,5.07-.01,7.6-.08,2.76-1.27,3.66-3.95,3.09-.73-.16-1.55-.23-2.15-.62-.96-.63-1.18-1.68-1.07-2.82.11-1.14.18-2.28.19-3.43.02-4.32.48-8.58,1.61-12.75.11-.43.06-.93.27-1.29.32-.57.76-1.44,1.22-1.47.59-.05,1.42.44,1.83.95.47.59.7,1.44.87,2.22.61,2.81,1.15,5.64,1.71,8.47l-.49.06Z"/>
</svg>